<svg xmlns="http://www.w3.org/2000/svg" width="885" height="881" fill="none">
  <circle cx="443" cy="441" r="439" fill="url(#a)" fill-opacity=".2"/>
  <path fill="url(#b)" d="M173.38 152.47c13.47 6.62 2.05 15.53 4.56 20.09 2.52 4.57 4.57 11.87 4.57 11.87s17.6 0 23.76.46c6.17.45 13.47 3.2 20.1 5.7 6.62 2.51 8.9 1.6 23.76 1.6 15.07 0 18.73 6.62 18.73 6.62s4.56 6.16 11.88 6.16c7.3 0 7.3 2.51 10.27 5.25 3.2 2.51 4.12 4.11 9.37 6.62 5.25 2.51 6.62 0 13.93.46 7.31.45.46 3.2 9.83 4.1 9.36 1.15 15.53-7.75 22.15-9.8 6.63-2.06 27.41-4.12 34.27-4.57 6.62-.46 17.58-.46 21.7-4.11 4.1-3.65 0 0 5.25-1.6s6.17-4.56 7.54-7.76 7.54-6.62 7.54-6.62 6.16-2.51 7.76-2.51c1.6 0 4.57-5.25 4.57-5.25s-1.14-6.62-2.05-8.22c-1.15-1.6-5.26-6.16-5.26-8.21 0-2.06 4.11-10.96 7.31-13.01 3.2-2.06 11.42 2.5 11.42 2.5h16.68l13.02-10.95 9.36-1.6 7.77-5.25 5.71-1.14s1.6-4.56 1.6-6.16c0-1.6 7.3-11.87 7.3-11.87l5.72-2.06s5.25-3.2 5.71-4.56c.46-1.6 7.77-2.06 7.77-2.06l8.9-3.2s5.26 1.15 10.97 3.2c5.71 2.06 3.65 0 8.9-2.5 5.26-2.52-5.25-7.31-9.81-15.07-4.57-7.76-10.97-6.16-19.2-6.16-8.21 0-6.62 0-8.21 3.65-1.6 3.65-5.71-2.06-9.83-1.6-4.1.46-7.76 1.14-10.28 1.6-2.5.45-9.36-6.62-10.28-9.82-1.14-3.2 5.26-8.9 5.72-11.4.45-2.52 4.1-13.02 7.3-17.58 3.2-4.57.46-6.62 6.63-5.71 6.17 1.14 8.22 3.2 8.22 3.2s11.42-7.77 13.02-10.28c1.6-2.5 7.31-3.65 10.97-5.25 3.65-1.6-1.6-4.56-1.6-4.56s1.6-8.9 1.6-10.27c0-.69.91-2.06 1.83-3.43A439.95 439.95 0 0 0 441.55 0C321.62 0 212.89 47.93 133.4 125.31c5.71 2.51 21.93 9.36 21.93 9.36s4.8 11.19 18.04 17.8Z" opacity=".55"/>
  <path fill="url(#c)" d="M738.27 115.27c-.23.23-.68.45-1.14.68-5.71 3.2 6.17 21.23 6.17 21.23v23.28h-4.57v8.22c0 6.16-6.17 1.6-9.37-4.1-3.2-5.72-5.25 5.7-5.25 9.8 0 4.12-2.51 3.66-5.71 5.26-3.2 1.6-8.91 4.56-11.65 5.7-2.74 1.14-5.48 2.51-1.37 8.22 4.1 5.7-2.51 8.22-5.26 8.9-2.5.46-12.33 0-17.13-3.65-4.57-3.65-8.22 13.01-9.36 15.52-1.15 2.51-13.94 10.27-22.16 21.68-8.22 11.42-15.53 11.42-22.16 13.02-6.62 1.6-25.35 24.42-27.87 26.93-2.5 2.51-5.7-1.6-5.25-6.62.46-5.02 5.25-3.2 4.57-5.25-.46-2.05-5.25-3.65-3.2-7.3a293.34 293.34 0 0 1 10.97-17.58c3.2-4.56-2.52-7.3-4.57-11.87-2.06-4.56-9.83 0-13.48 0-3.65 0-3.65 9.82-5.25 13.01-1.6 3.2-5.26 6.16-6.63 7.3-1.6 1.15-8.9 7.77-10.28 8.9-1.6 1.15-2.05 6.17-2.05 7.77 0 1.6 3.65 6.62-5.71 6.16-9.37-.46-7.77 6.16-18.05.91-10.28-5.25-6.17 10.96-3.2 15.98 3.2 5.25 0 0 1.14 3.2 1.15 3.2 2.52 4.56 3.2 6.62.46 2.05 5.26 2.05 7.77-.69 2.51-2.74 3.65-1.37 9.36 0 5.72 1.37 1.15 1.14 1.15 3.2 0 2.05 2.5 1.6 2.5 3.2s-1.59 2.5-2.5 5.7c-1.15 3.2 2.5 4.1 9.82 5.25 7.3 1.14 7.76-5.25 9.36-8.22 1.6-3.2 5.72-7.3 9.83-8.9 4.1-1.6 9.82 6.4 9.82 6.4s8.9.68 10.96.22c2.06-.46 6.63 0 6.63 0h8.9s-.45 4.56-3.2 10.96c-2.5 6.16-5.7 2.5-8.21 2.5-2.52 0-5.26 5.26-8.91 5.26-3.66 0-5.26 4.56-9.37 8.9-4.11 4.1-1.6 4.56-4.57 5.7-3.2 1.15-7.3 7.77-9.36 9.36-2.06 1.6-4.57 8.9-9.83 10.96-5.25 2.06-1.14 7.76-1.14 7.76s5.71 2.06 12.34 7.76c6.62 5.7 13.93 13.93 13.93 17.58 0 3.65 2.51 7.76 2.51 7.76s6.17 3.65 6.63 5.25c.45 1.6 0 7.3 0 7.3h7.3c3.66 0 3.2 7.3 4.12 8.9 1.14 1.6 4.11 3.2 8.22 7.3 4.11 4.34-.45 3.43-.45 3.43l-7.31-3.2c-3.66-1.6-6.63 1.6-4.57 4.12 2.05 2.5 8.22 7.3 10.96 8.21 2.51 1.14 1.14 5.25 1.14 8.9 0 3.66-2.5 2.06-5.7 3.66s-5.26 4.1-8.23 7.76c-3.2 3.65.91 4.1.91 4.1 6.17-3.42 18.05 1.38 18.05 1.38 2.74-12.33 8.9-6.85 10.28-4.8 1.37 2.06 0 11.64 0 11.64l-4.8 2.74v7.53s-4.11 2.74-6.17 4.8c-2.05 2.05.69 8.21 0 10.27-.68 2.05 0 6.16 0 6.16s-.68 5.48-6.85 8.9c-6.17 3.43-7.54 15.98-7.54 15.98s-4.8 2.06-6.16 7.53c-1.37 5.48 0 8.22-5.72 12.33-5.7 4.1-5.93 13.01-1.14 17.35 4.8 4.1-7.53 6.84-10.28 6.84-2.74 0-4.1 2.74-7.53 7.54-3.43 4.79-3.43 6.84-5.49 11.64-2.05 4.8-6.16 0-11.65 0-5.48 0 0 9.58 0 9.58s-2.74 3.43-6.85 11.64c-4.11 8.22-8.22 6.85-10.96 8.22-2.74 1.37-8.91 12.33-13.7 15.07-4.8 2.74-8.92 3.42-13.03 4.33-4.11.92-12.33 1.83-16.67.23-4.12-1.6-6.17 7.3-11.65 10.73-5.49 3.42-4.8-7.53-10.28-10.27-5.49-2.74-4.8 14.38-13.02 16.66-8.23 2.06-7.54 3.42-10.28 6.85-2.74 3.42-12.34 4.8-31.75 5.48-19.42.68-13.7 16.66-13.7 16.66v7.76s9.81 1.6-2.52 4.1c-12.34 2.52-15.08-15.06-11.88-22.82 3.2-7.76-1.6-5.25-6.17-5.25-4.56 0-8.22 2.06-9.82-1.6-1.6-3.65-6.17-3.65-6.17-3.65l-2.5 2.51s-7.32.46-11.89.46-3.2-5.25-13.93-3.2c-10.97 2.06-12.34-8.9-12.34-8.9s-5.25-6.16-5.25-8.9c0-2.5 2.51-10.27 1.6-11.87-1.14-1.6-10.96 0-17.59-3.2-6.62-3.19-3.66-6.61-14.4-4.56-10.95 2.06-9.36 7.3-10.95 8.22-1.6 1.14-5.72 1.14-6.63 1.6-.91.45-7.3.45-11.42.45-4.11 0-5.71 1.14-7.77 2.51-2.05 1.6-9.36 0-11.42-2.05-2.05-2.05-5.7-1.14-5.7-1.14s-8.23 2.5-12.34 2.5c-4.12 0-4.12 5.72-4.12 5.72l2.52 10.27-1.14 10.95H224.3s0-10.27-4.1-10.95c-4.12-.46-10.97 2.5-19.2-1.14-8.22-3.66-3.65-10.28-3.65-10.28l-15.53-3.2s3.65-5.24 3.65-8.2v-6.17l6.17-5.7-3.66-2.06-7.76-2.06-3.66-8.9-1.6-8.22 1.6-4.56-11.88 3.2-11.42-1.6 4.57-5.25v-5.25l.46-4.11 5.25-10.96s13.02-8.9 18.73-16.66c5.71-7.76 3.2-27.85 3.2-29.44 0-1.6-2.05-3.2-6.17-8.9-4.1-5.71-2.5-11.88-2.5-11.88l-4.58-1.6-2.05-6.16s-3.2 1.6-4.57 4.11c-1.6 2.51-2.51 8.22-6.17 10.27-3.65 2.06-3.2 0-13.48-7.3-10.28-7.3-19.18-3.2-21.24-2.05-2.06 1.14-7.3 6.16-18.73 6.16-11.42 0-17.13 12.32-18.73 13-1.6.47-18.05-1.13-18.05-1.13l-14.39-3.65-4.11-9.36-1.6-6.17-5.25-9.81h-6.17l-10.96-7.76-10.97-4.11-11.88 6.16c22.62 222.32 210.61 395.8 439.04 395.8 243.73 0 441.31-197.44 441.31-441a446.3 446.3 0 0 0-145.96-324.34Z" opacity=".55"/>
  <path fill="#fff" d="m24.9 484.13 10.96 7.76h6.17l5.25 9.81 1.6 6.17 4.11 9.36 14.4 3.65s16.67 1.6 18.04 1.14c1.6-.46 7.31-13.01 18.73-13.01 11.42 0 16.68-5.25 18.73-6.16 2.06-1.15 10.97-5.25 21.25 2.05s9.82 9.36 13.47 7.3c3.66-2.05 4.57-7.76 6.17-10.27 1.6-2.5 4.57-4.1 4.57-4.1l2.06 6.16 4.56 1.6s-1.6 6.16 2.52 11.86c4.1 5.71 6.16 7.3 6.16 8.9 0 1.6 2.52 21.69-3.2 29.45-5.7 7.76-18.72 16.66-18.72 16.66l-5.26 10.96-.46 4.1v5.26l-4.56 5.25 11.42 1.6 11.88-3.2-1.6 4.56 1.6 8.22 3.65 8.9 7.77 2.06 3.65 2.05-6.17 5.7v6.17c0 3.2-3.65 8.22-3.65 8.22l15.53 3.2s-4.57 6.61 3.66 10.27c8.22 3.65 15.07.45 19.19 1.14 4.1.45 4.1 10.95 4.1 10.95h11.43l1.14-10.95-2.51-10.27s0-5.71 4.1-5.71c4.12 0 12.34-2.51 12.34-2.51s3.66-1.14 5.71 1.14c2.06 2.05 9.37 3.65 11.43 2.05 2.05-1.6 3.65-2.5 7.76-2.5 4.11 0 10.28 0 11.42-.46.92-.46 5.26-.46 6.63-1.6 1.6-1.14 0-6.16 10.96-8.22 10.97-2.05 7.77 1.6 14.4 4.57 6.62 3.2 16.67 1.6 17.58 3.2 1.14 1.59-1.6 9.35-1.6 11.86s5.26 8.9 5.26 8.9 1.6 10.96 12.33 8.9c10.97-2.05 9.37 3.2 13.94 3.2 4.56 0 11.87-.46 11.87-.46l2.52-2.5s4.56 0 6.16 3.65c1.6 3.65 5.26 1.6 9.83 1.6 4.56 0 9.36-2.52 6.16 5.24-3.2 7.76-.45 25.34 11.88 22.83 12.34-2.51 2.51-4.11 2.51-4.11v-7.76s-5.48-15.98 13.71-16.66c19.42-.69 29.01-2.06 31.75-5.48 2.74-3.43 2.06-4.8 10.28-6.85 8.22-2.05 7.54-19.4 13.02-16.66 5.48 2.74 4.8 13.7 10.28 10.27 5.48-3.42 7.54-12.33 11.65-10.73 4.11 1.6 12.33.69 16.67-.23 4.12-.9 8.23-1.6 13.02-4.33 4.8-2.74 10.97-13.7 13.71-15.07 2.74-1.37 6.85 0 10.96-8.22 4.12-8.21 6.86-11.64 6.86-11.64s-5.49-9.58 0-9.58c5.48 0 9.6 4.8 11.65 0 2.05-4.8 2.05-6.85 5.48-11.64 3.43-4.8 4.8-7.54 7.54-7.54s15.07-2.74 10.28-6.84c-4.8-4.11-4.8-13.01 1.14-17.35 5.7-4.11 4.34-6.85 5.7-12.33 1.38-5.48 6.18-7.53 6.18-7.53s1.37-12.32 7.53-15.98c6.17-3.42 6.86-8.9 6.86-8.9s-.69-4.1 0-6.16c.68-2.06-2.06-8.22 0-10.27 2.05-2.06 6.16-4.8 6.16-4.8v-7.53l4.8-2.74s1.37-9.59 0-11.64c-1.37-2.05-7.54-7.53-10.28 4.8 0 0-11.65-4.8-18.04-1.38 0 0-3.89-.45-.92-4.1 3.2-3.66 5.26-6.17 8.23-7.77 3.2-1.6 5.7 0 5.7-3.65s1.6-7.76-1.13-8.9c-2.52-1.14-8.91-5.7-10.97-8.22-2.05-2.5 1.14-5.7 4.57-4.1l7.3 3.2s4.58.68.47-3.43c-4.12-4.34-7.31-5.7-8.23-7.3-1.14-1.6-.45-8.9-4.11-8.9h-7.3s.45-5.71 0-7.31c-.47-1.6-6.63-5.25-6.63-5.25s-2.52-4.11-2.52-7.76c0-3.65-7.3-11.87-13.93-17.58-6.63-5.7-12.33-7.76-12.33-7.76s-4.12-5.7 1.14-7.76c5.25-2.06 7.76-9.36 9.82-10.96 2.06-1.6 6.17-8.21 9.37-9.35 3.2-1.15.45-1.6 4.56-5.71 4.12-4.11 5.71-8.9 9.37-8.9 3.65 0 6.17-5.25 8.9-5.25 2.52 0 5.72 3.65 8.23-2.51a51.57 51.57 0 0 0 3.2-10.96h-8.91s-4.57-.46-6.62 0c-2.06.46-10.97-.23-10.97-.23s-5.7-7.99-9.82-6.39c-4.11 1.6-8.22 5.7-9.82 8.9-1.6 3.2-2.06 9.36-9.37 8.22-7.3-1.14-10.96-2.06-9.82-5.25 1.14-3.2 2.51-4.1 2.51-5.7 0-1.6-2.51-1.15-2.51-3.2 0-2.06 4.57-2.06-1.14-3.2-5.71-1.37-6.63-2.74-9.37 0-2.51 2.74-7.3 2.74-7.76.69-.46-2.06-2.06-3.66-3.2-6.62-1.14-3.2 2.05 2.05-1.14-3.2-3.2-5.25-7.32-21.23 3.2-15.98 10.27 5.25 8.9-1.6 18.04-.9 9.36.45 5.7-4.57 5.7-6.17 0-1.6.47-6.62 2.07-7.76 1.6-1.14 8.9-7.76 10.27-8.9 1.6-1.15 5.26-4.11 6.63-7.3 1.6-3.2 1.6-13.02 5.25-13.02 3.66 0 11.42-4.56 13.48 0 2.05 4.57 7.77 7.3 4.57 11.87a293.9 293.9 0 0 0-10.97 17.58c-2.05 3.65 2.52 5.25 3.2 7.3.46 2.05-4.11 0-4.57 5.25-.45 5.25 2.51 9.36 5.26 6.62 2.5-2.51 21.24-25.34 27.86-26.93 6.63-1.6 13.94-1.6 22.16-13.02 8.23-11.4 21.25-19.17 22.16-21.68 1.14-2.51 4.57-19.17 9.36-15.52 4.57 3.65 14.4 4.1 17.14 3.65 2.5-.46 9.36-3.2 5.25-8.9-4.11-5.7-1.6-7.3 1.37-8.22 2.74-1.14 8.45-4.1 11.65-5.7 3.2-1.6 5.71-1.14 5.71-5.25s2.06-15.52 5.25-9.82c3.2 5.7 9.37 10.27 9.37 4.11v-8.22h4.57v-24.88s-11.88-18.03-6.17-21.22c.46-.23.69-.46 1.14-.69a439.83 439.83 0 0 0-196.9-103.63c-1.14 1.37-1.83 2.74-1.83 3.43 0 1.6-1.6 10.27-1.6 10.27s5.26 3.2 1.6 4.56c-3.65 1.6-9.36 2.51-10.96 5.25-1.6 2.51-13.02 10.27-13.02 10.27s-2.06-2.05-8.23-3.2c-6.16-1.13-3.65 1.15-6.62 5.72-3.2 4.56-6.62 15.06-7.3 17.57-.47 2.51-6.63 8.22-5.72 11.41 1.14 3.2 7.77 10.28 10.28 9.82 2.51-.46 6.17-1.14 10.28-1.6 4.11-.46 8.22 5.25 9.82 1.6 1.6-3.65 0-3.65 8.23-3.65 8.22 0 14.38-1.6 19.18 6.16 4.57 7.76 15.08 12.33 9.83 15.06-5.26 2.52-3.2 4.57-8.91 2.52-5.72-2.06-10.97-3.2-10.97-3.2l-8.9 3.2s-7.32.45-7.77 2.05c-.46 1.6-5.71 4.56-5.71 4.56l-5.72 2.06s-7.3 10.27-7.3 11.87c0 1.6-1.6 6.16-1.6 6.16l-5.71 1.14-7.77 5.25-9.37 1.6-13.02 10.96h-16.67s-8.22-4.57-11.42-2.51c-3.2 2.05-7.31 10.95-7.31 13 0 2.06 4.11 6.63 5.25 8.22 1.14 1.6 2.06 8.22 2.06 8.22s-3.2 5.25-4.57 5.25c-1.6 0-7.77 2.51-7.77 2.51s-6.17 3.65-7.54 6.62c-1.37 3.2-2.28 6.16-7.53 7.76-5.26 1.6-1.15-2.05-5.26 1.6-4.1 3.65-15.07 3.65-21.7 4.1-6.62.46-27.4 2.52-34.26 4.57-6.63 2.06-13.02 10.96-22.16 9.82-9.36-1.14-2.51-3.66-9.82-4.11-7.31-.46-8.91 2.05-13.93-.46-5.26-2.5-6.17-4.1-9.37-6.62-3.2-2.5-3.2-5.25-10.28-5.25-7.3 0-11.88-6.16-11.88-6.16s-3.65-6.62-18.73-6.62-17.13 1.14-23.75-1.6c-6.63-2.5-13.94-5.25-20.1-5.7-6.17-.46-23.76-.46-23.76-.46s-2.06-7.3-4.57-11.87c-2.51-4.56 8.9-13.47-4.57-20.09-13.48-6.62-18.73-17.57-18.73-17.57s-15.99-6.85-21.93-9.36C50.93 205.66 0 317.27 0 440.99c0 15.3.69 30.36 2.28 45.2l11.88-6.17 10.74 4.1Z"/>
  <path stroke="#E1ECED" stroke-linecap="round" stroke-linejoin="round" stroke-miterlimit="10" stroke-width="3" d="m190.28 492.35 8.45 13 5.48-6.61s8.91 6.84 8.91 6.62c0-.46 2.74 6.62 2.74 6.62v6.84h8.22s7.54 4.11 7.54 8.22c0 4.1 8.23 18.03 10.28 22.83 2.06 4.79 6.17 10.95 6.17 10.95l7.54-5.48 6.85.69v-9.59l4.8-13.7s7.54-.9 8.22-5.93c.69-5.02.69-11.18 2.74-12.55 2.06-1.37 9.6-8.68 9.6-8.68h5.48s-4.8 5.94 0 10.73c4.8 4.8 8.22 6.17 8.22 6.17l7.54-4.11s-2.74 10.95 0 13c2.74 2.06-4.11 8.22-10.96 6.17-6.86-2.05-11.66-2.74-13.03-2.05-1.37.68-7.53 4.79-7.53 4.79s6.16 5.48 3.42 6.85c-2.74 1.37.69 5.47 4.12 5.47 3.42 0 6.16-6.84 8.9-1.37 2.75 5.48-1.37 12.33-1.37 14.38 0 2.06 2.06 13.01 2.06 13.01s-1.37 6.85-1.37 13.7 2.74 4.8 6.85 6.85c4.11 2.05 9.6 6.16 9.6 6.16l7.76 4.11h8.23s1.37 5.48 0 7.53c-1.38 2.06-8.91 5.48-8.91 5.48l-3.43 7.53" opacity=".75"/>
  <path stroke="#E1ECED" stroke-linecap="round" stroke-linejoin="round" stroke-miterlimit="10" stroke-width="3" d="m294.44 595.75 17.59-6.63s9.6 5.48 11.65 6.63c2.06 1.14 5.48-2.06 7.54-3.2 2.05-1.14 9.6-6.62 9.6-6.62s-2.75-10.27 3.42-7.53c6.16 2.74 12.33 8.67 12.33 8.67s2.74 1.83 4.8 0c2.06-1.83 6.17-10.96 10.28-9.13 4.11 1.83 8.9 1.14 10.96-.23 2.06-1.37 11.65-4.8 11.65-4.8h8.23s.68-16.2 2.74-11.17c2.05 5.02 7.53 5.02 7.53 5.02s3.43-7.08 5.49-5.02c2.05 2.28 10.28 0 10.28 0s4.1 6.39 4.1 9.13c0 2.73-3.42 11.64-3.42 11.64l-4.11 9.58 7.54-3.42 3.42 10.27s2.06-3.42 4.12-3.42c2.05 0 4.8 3.42 4.8 3.42s2.05 9.59 0 11.64c-2.06 2.05-12.34 9.59-12.34 9.59l-1.37 15.98-8.23 6.84-2.74 8.9s-4.8-2.05-7.54 4.11c-2.74 6.17-8.22 6.17-8.22 6.17l-5.48 4.79M203.3 184.89v17.34l4.57 6.17-4.57 6.16 4.57 10.96 6.85 8.9s2.74 2.05 4.8 0c2.05-2.06 13.02-5.48 16.67-4.11 3.43 1.37 5.48-.91 5.48 5.02s-8.22 14.15-8.22 16.43c0 2.06 8.22 8.22 8.22 8.22l6.17 3.43 4.11 12.32 10.97 4.11s2.74-6.85 9.6-8.9c6.84-2.06 9.36 1.37 12.56 1.37 3.2 0 14.39-8.22 17.13-4.8 2.74 3.43 6.16 8.22 2.74 12.33-3.43 4.1-10.74 10.5-10.74 10.5v9.36s1.83 10.27 3.89 9.59c2.05-.69 13.01 3.42 20.78 3.42 7.54 0 13.7-4.8 15.08-8.22 1.37-3.42 6.85-21.45 6.85-21.45s8.9-12.33 10.96-4.11c2.06 8.21 2.75 10.27 0 14.38-2.74 4.1 10.28 17.34 15.08 15.98 4.8-1.38 16.68 5.47 17.36 0 .69-5.48 4.8-10.96 4.8-10.96l11.65-15.07 15.99-9.58h7.54s6.16 0 10.96-4.11c4.8-4.11 8.22-13.7 8.22-13.7s11.65.69 15.08 0c3.43-.68 6.85 0 6.85 0v-8.67l8.91-2.97-3.42-16.66s10.96-19.4 13.01-16.66c2.06 2.74 4.8 8.9 4.8 8.9l15.08-5.48s8.22-4.1 10.96-2.05 5.48-10.96 5.48-10.96l14.4-3.42 4.8 8.9 2.73 7.53-3.42 2.74 6.85 4.8s8.22 6.16 11.65 2.05c3.43-4.11-8.22-22.14 0-22.14s13.02 10.95 13.02 10.95 30.38-23.5 47.74-28.53l6.85-10.73-6.16-6.84s1.37-16.67-3.43-16.67h-9.6l-8.22-4.79-2.74-10.27v-4.8l-8.22-6.16.68-6.84h16.45l.68-3.43 2.06-12.33s9.6-8.9 2.74-7.53c-6.85 1.37-9.6-4.1-9.6-4.1l-5.47-18.72s13.7 2.05 18.04-4.8c4.11-6.84 9.6-8.9 9.6-8.9l3.42-14.38" opacity=".75"/>
  <path stroke="#E1ECED" stroke-linecap="round" stroke-linejoin="round" stroke-miterlimit="10" stroke-width="3" d="M743.52 147.68h-6.85l-8.9-7.53-4.8 3.88-4.8-3.88s-4.11.68-5.48 7.53c-1.37 6.85-10.28 6.85-10.28 6.85l-5.48-21.46s2.05 12.33-5.49 10.73c-7.54-1.6-8.9-5.7-8.9-5.7v-5.03h-6.17s-1.37-3.88-4.8-5.93c-3.43-2.06-4.8 3.42-10.28 2.74-5.48-.69-12.33-8.22-12.33-8.22l-16.45 3.42-8.45-7.53-4.11-10.27h-12.57m15.99 63.68 8.23-3.88s10.27 6.16 10.96 8.9c.69 2.74 10.97 8.22 10.97 13.02 0 4.79-6.86 6.16 0 11.64 6.85 5.47 11.64 6.84 11.64 6.84v10.96M446.8 601.68s7.31-5.48 7.31-8.22 2.06-9.59 6.17-6.85c4.1 2.74 9.6 7.3 9.6 7.3s-3.44-11.4 0-12.09c3.42-.68 8.21-.68 14.38 0 6.17.69-.68.69 6.17.69s11.65-1.14 11.65-1.14v10.27s-10.97 6.16-4.8 6.84c6.17.69 11.65.69 15.76-1.37 4.12-2.05 5.49-4.1 8.23-2.05s6.85 0 6.85 0l12.33-3.42s.69-8.9 4.8 0c4.11 8.9 10.97 27.39 10.97 27.39" opacity=".75"/>
  <path stroke="#E1ECED" stroke-linecap="round" stroke-linejoin="round" stroke-miterlimit="10" stroke-width="3" d="m490.89 582.28 2.74-17.35v-10.96l-1.37-3.42-1.37-10.96s-8.91-7.53-8.91-9.58c0-2.06 5.94-10.96 5.94-10.96l5.94-13.47s-.69-6.62-5.94-6.62h-5.26l-.68-13h-6.86l-6.16 6.61v-8.67h-10.97s-10.28-1.37-20.78-4.8c-10.28-3.42-21.02-6.16-19.42 0 1.6 6.17-.23 8.9-.23 8.9s-1.83-2.05-8-2.05c-6.16 0-10.96 4.8-11.64 13.01-.69 8.22 1.37 20.78 0 25.57-1.37 4.8-.23 10.27-.23 10.27l-8.91 6.16v2.74l7.54.69 4.11 3.42-3.43 8.22 1.37 16.66" opacity=".75"/>
  <path stroke="#E1ECED" stroke-linecap="round" stroke-linejoin="round" stroke-miterlimit="10" stroke-width="3" d="M398.14 518.14h-9.36l-11.65-8.22s4.8-9.59 0-9.59h-9.6s-4.1-4.79-6.85 0c-2.74 4.8-6.16 5.25-6.16 5.25l-6.17 2.74v4.57l-7.54-.69-10.28-3.88s-2.97 1.83-2.74 5.25c0 3.43 6.4 9.59 6.4 9.59l-2.75 5.7h-13.7l-6.85 5.26m26.72-28.76s-7.54-1.83-7.54-7.3c0-5.49-10.27-4.12-8.22-9.6 2.06-5.47 4.57-4.1 5.48-8.21.69-4.11-2.28-8.9 2.29-8.9s5.94 8.44 8 3.88c2.05-4.57 9.59-3.88 9.59-3.88s4.56 2.96 6.85 3.88c2.06.9 7.08-3.88 7.08-3.88v-9.6s10.28-1.36 9.6-4.1c-.7-2.74 6.39-8.22 6.39-8.22l3.43-6.16v-13.7h-9.83s-15.99-5.47-16.67-8.21c-.69-2.74-15.08-2.74-19.19-4.8-4.11-2.05-12.33.69-15.99 0-3.43-.68-11.65 5.25-13.02-.68-1.37-6.16 2.06-8.9 0-13.01-2.05-4.1-5.48-6.16-8.22-7.53s-12.34-4.8-12.34-4.8.46-9.58-2.97-10.27c-3.42-.68-5.48-6.16-8.22 0-2.74 6.17-6.85 10.27-6.85 10.27s4.8 4.11 0 6.17a97.6 97.6 0 0 0-8.45 4.1l-6.86-.68" opacity=".75"/>
  <path stroke="#E1ECED" stroke-linecap="round" stroke-linejoin="round" stroke-miterlimit="10" stroke-width="3" d="M318.88 313.4s6.85 5.02 8.23 10.5c1.37 5.47-.69 10.27 0 12.32.68 2.05.22 5.48.45 10.27.23 4.8 7.77 10.96 10.5 11.64 2.75.69 8.92 6.85 8.92 6.85s-4.8 7.3-4.8 11.64c0 4.34 3.43 4.34 4.8 5.02 1.37.69 0 4.8 0 5.48 0 .69 3.2.69.68 4.8-2.74 4.1-3.42 9.58-3.42 9.58s-10.74-4.1-10.51 0c.23 4.1 0 10.96 0 10.96" opacity=".75"/>
  <path stroke="#E1ECED" stroke-linecap="round" stroke-linejoin="round" stroke-miterlimit="10" stroke-width="3" d="M345.15 362.93s-3.43-8.22 3.88-8.9c7.31-.7 8-8.22 8-8.22l-8-9.6s.23-6.84 0-8.9c-.22-2.05 4.34-6.84 5.26-6.84h7.08l6.17-10.27m158.98 285.32v-13.24l6.4-8.9 4.1-12.79 3.43-5.02v-4.8s.69-4.78 3.43-6.15 6.17-9.6 6.17-10.28c0-.68-7.54-10.95 0-12.55 7.54-1.37 13.7-.68 15.99-2.74 2.05-2.05 5.48-8.9 8.9-8.9 3.43 0 6.17-2.05 8.23 6.16 2.06 8.22 7.54 12.56 7.54 12.56l4.11-6.4s5.48-4.1 6.17 0c.68 4.11 5.25 6.4 5.25 6.4l10.5-.92" opacity=".75"/>
  <path stroke="#E1ECED" stroke-linecap="round" stroke-linejoin="round" stroke-miterlimit="10" stroke-width="3" d="M574.95 509.92v-11.87l-10.28-8.9s2.74-4.8 0-6.16c-2.74-1.37-2.97-2.74-7.77-3.43-4.8-.68-10.28-6.62-12.33-4.33l-2.06 2.28-4.11-2.74-4.8.46s-10.28 3.65-15.08 5.02c-4.8 1.37-16.44 6.16-16.44 6.16l-11.2 11.64m-96.62 0s-6.16-3.88-5.48-5.7c.69-1.83-3.43-8-3.43-8l-4.8-2.73v-7.08s2.75-6.85 8.23-6.85 8.22 1.37 12.34 0c4.1-1.37 12.33-9.58 12.33-9.58l-7.54-10.96v-8.9l-8.9-2.74-16.68-6.16m-19.19-109.11 3.43 3.65 12.33 8.22s.69 4.8 3.43 7.53c2.74 2.74 3.42 4.8 3.42 8.22 0 3.42.69 9.59 0 10.96-.68 1.37-6.85 4.1-6.85 4.1s-9.6-.68-9.6 2.74c0 3.43.7 6.17-3.42 6.17-4.11 0-9.82-3.43-9.82-3.43l-6.85-3.42m81.54-91.53s4.8 13.47 0 17.35c-4.8 3.88-11.87 7.3-11.19 9.58.92 2.06 7.54 5.48 6.63 9.59-.92 4.1-2.97 10.27-2.97 10.27s-3.66 4.8-3.66 8.22c.23 3.42-.23 16.66 0 17.57.23 1.15 2.51 8.68 0 12.79-2.51 4.1-8.68 20.77-3.88 20.77s2.74-.23 14.39-2.97c11.65-2.51 19.19-5.25 18.96-8.22-.23-2.74 2.51-3.42 8.68-5.47 6.17-2.06 13.7-4.11 16.67-9.6 2.75-5.47 4.8-16.88 4.8-16.88s-4.8-6.4-3.43-10.05c1.38-3.42 2.06-8.21 3.43-13.23 1.37-4.8 5.48-6.17 0-12.33s-5.48-15.06-5.48-15.06 6.85-4.8 8.22-6.17c1.37-1.37 4.8-3.42 5.48-8.9.69-5.48-6.85-10.27-6.85-10.27s2.06 8.9 2.74-4.11c.69-13.01-2.74-13.01-2.74-13.01l-3.43 1.37m68.53 52.27-3.2 3.2s-4.8 2.05-7.53 4.1c-2.75 2.06-18.74 8.9-18.74 8.9l-4.1 10.5-4.8 12.33s-4.11 2.74 0 4.8c4.1 2.05 7.54 5.24 7.54 5.24s2.05 1.83-.69 3.2c-2.74 1.37-1.6 0-8.68 6.85s-11.88 2.74-7.08 6.85c4.8 4.1 6.85.68 10.28 6.16 3.42 5.48 12.33 7.53 12.33 7.53s2.51-8.9 7.54-8.9 9.82 3.42 12.56 4.1c2.75.7 3.43 8.68 6.86 4.57 3.42-3.88 9.36-7.3 10.96-4.56a15.88 15.88 0 0 0 4.34 4.56l5.48-8.21 5.94-4.34" opacity=".75"/>
  <path stroke="#E1ECED" stroke-linecap="round" stroke-linejoin="round" stroke-miterlimit="10" stroke-width="3" d="m623.37 436.88-6.4 11.41s-4.79 3.43-6.85 3.43c-2.05 0-10.27-7.54-10.27-7.54s-2.75-5.48-4.8 0c-2.06 5.48-5.48 15.75-5.48 15.75s4.1 3.43 0 3.43c-4.12 0-10.97-1.37-10.28 2.74l.68 4.1-4.8 7.54-9.13 6.84m-165.61-48.16v-11.41s10.96-4.1 11.42-4.8c.46-.68 0-4.1 0-4.1l-5.71-3.43-5.71-5.02s3.2-.23 5.71 0 7.08-2.28 11.42 0 14.62 5.02 14.62 5.02l-3.43-10.27-4.1-8.21-7.09-14.38m14.62 32.86s7.54 9.6 8.9 9.6c1.38 0 5.5 8.2 16 6.84a118.74 118.74 0 0 0 18.73-4.11l4.11 4.1s3.66 6.17 5.48 7.31c2.06.92 6.4 1.83 9.14 4.57s15.76 6.85 15.76 6.85 5.48-1.37 7.54 0c2.06 1.37 11.88 4.1 8.68 6.84-3.2 2.74-10.74 2.29-7.3 6.4 3.42 4.1 7.07 8.21 7.3 10.27.23 2.05 0 6.39 0 6.39" opacity=".75"/>
  <path stroke="#E1ECED" stroke-linecap="round" stroke-linejoin="round" stroke-miterlimit="10" stroke-width="3" d="M526.52 367.72s4.8 10.27 7.08 11.64c2.29 1.37 13.93 5.48 13.93 5.48l9.6 4.8s-.91 6.15 0 9.58c.91 3.42 8 13.7 8.9 13 .92-.68 6.63 0 6.63 0s5.94-10.04 6.63-4.56c.68 5.25 0 7.3-4.12 8-4.1.68 1.83.68-3.2 5.47-5.02 4.8-8.22.69-5.93 7.53 2.28 6.85 4.34 7.3 6.62 7.76 2.51.46 1.14.69 2.51 4.11 1.38 3.43 5.49 2.74 7.54 4.11 2.06 1.37 12.34-.69 12.34-.69m-67.85-72.12s-4.56 3.88-4.56 4.56c0 .92 3.65-2.5 4.57 2.97.9 5.48 1.82 8.9-.69 10.95l-2.51 2.06-7.54-5.48s-4.11 3.43-4.11 5.48c0 2.05 4.11 8.9 0 9.59-4.11.68-5.48 5.7-5.48 5.7s-11.65-.23-7.54 4.57c4.1 4.8 14.16 8.21 14.16 8.21s8.68.69 8.68 3.43 3.43 12.1 0 12.55c-3.43.46-7.77-5.93-8.68 0-.91 5.94-2.97 10.73-2.97 10.73m22.39-195.85s.23-1.59 0-4.1 2.97-7.3 2.97-7.3.91-2.06-2.97-2.06c-3.89 0-6.4-3.2-6.4-3.2s-8.68-2.05-11.42 0c-2.51 2.06-8.9 7.77-8.9 7.77v8.67s4.1 4.1 0 4.56c-4.12.46-9.6 3.66-8.23 5.25 1.37 1.6-2.29 4.11 4.57 5.71 6.62 1.6 12.33 4.57 18.73 2.51 6.16-2.05 9.36-5.7 9.36-5.7l2.29-12.1Z" opacity=".75"/>
  <path stroke="#E1ECED" stroke-linecap="round" stroke-linejoin="round" stroke-miterlimit="10" stroke-width="3" d="M546.16 270.25v-7.3h-3.2l-3.2-6.85s-1.13-8.67-4.1-6.62c-2.97 2.06-8 .23-9.37 2.74-1.6 2.51 2.06 10.5 0 13.24-2.05 2.97 1.14 4.56-.45 10.27-1.6 5.7-5.72 2.06-1.6 5.7 4.1 3.66 13.93 3.2 13.93 3.2m-363.2 220.73h12.11v-14.84s4.11 4.1 6.17 0c2.05-4.1 5.48-26.94 5.48-26.94s-5.48-18.03-5.48-20.77c0-2.74 5.48-4.79 5.48-4.79l-7.54-9.59-4.34-13.7-4.11-3.42H172l-3.42 6.85-9.6 4.11h-1.37c-1.37 0-6.85-4.1-6.85-4.1l-8.22 4.1s-4.11-1.37-8.23-8.22c-4.1-6.84-7.53-8.21-10.96-10.95-3.43-2.74-8.22 0-8.22 0l-16.68-5.48s-10.96-6.85-10.96-10.96c0-4.1-13.02 0-13.02 0s-6.17-10.27-8.23-14.38c-2.05-4.1-11.65 2.74-15.99 0-4.1-2.74-4.8-10.95-4.8-10.95l-4.79-10.27 4.8-8.9-4.8-3.43v-8.9s4.11-6.85 5.48-8.9c1.37-2.06 4.11-10.28 4.11-10.28" opacity=".75"/>
  <path stroke="#E1ECED" stroke-linecap="round" stroke-linejoin="round" stroke-miterlimit="10" stroke-width="3" d="m178.86 411.31-3.43-7.53 3.43-10.95s.45-13.7 3.88-13.7c3.66 0 15.99 3.43 15.99 3.43l4.8 12.78c2.74 7.3 7.53 17.57 11.65 16.2 4.1-1.37 7.53-6.85 7.53-6.85l8.23 7.08 6.16 4.8 6.86-8.45 7.54-3.2v-9.58l-7.54-6.17-4.11-9.58s6.85-4.11 11.65 0c4.8 4.1 13.02 2.5 10.96-1.83-2.06-4.33.23-7.76.23-7.76l3.2-4.1 4.1-8.22 6.86-4.8v-8.67l7.77-2.74s-2.97-12.78-7.08-17.8c-4.12-5.03-8.91-16.67-8.91-16.67l-.69-3.42h-6.17s-13.01-4.8-15.98-8.22c-2.75-3.42-9.6-12.32-9.6-12.32l-6.4 7.76-16.21-23.74-15.08 2.74-7.54-6.85h-8.45v4.1l-3.88 8.91-6.17 6.85-8.9-.69-8.92-5.48-6.16-2.05-5.49.69v-4.8l-4.8-4.1-8.22.68v-4.11h-6.16l-10.97-6.85" opacity=".75"/>
  <path stroke="#02a105" stroke-dasharray="10 10" stroke-width="3" d="M541.5 537.5C485.5 396.5 387 463 301 431c-72.5-26.98-10.5-153.5-205-153.5"/>
  <path stroke="#042136" stroke-dasharray="10 10" stroke-width="3" d="M581 327c-150.1 109.38-353.96 108.1-502.67-3.15l-9.83-7.35"/>
  <path fill="#fff" stroke="#02a105" stroke-miterlimit="10" stroke-width="2" d="M610.35 263.4a11.42 11.42 0 1 0 .01-22.83 11.42 11.42 0 0 0 0 22.84Z"/>
  <path fill="#02a105" d="M610.35 258.38a6.4 6.4 0 1 0 0-12.78 6.4 6.4 0 0 0 0 12.78Z"/>
  <path fill="#fff" stroke="#02a105" stroke-miterlimit="10" stroke-width="2" d="M532.92 273.45a11.42 11.42 0 1 0 0-22.84 11.42 11.42 0 0 0 0 22.84Z"/>
  <path fill="#02a105" d="M532.92 268.43a6.4 6.4 0 1 0 0-12.79 6.4 6.4 0 0 0 0 12.79Z"/>
  <path fill="#fff" stroke="#042136" stroke-miterlimit="10" stroke-width="2" d="M587.28 337.82a11.42 11.42 0 1 0 0-22.84 11.42 11.42 0 0 0 0 22.84Z"/>
  <path fill="#042136" d="M587.28 332.8a6.4 6.4 0 1 0 0-12.79 6.4 6.4 0 0 0 0 12.79Z"/>
  <path fill="#fff" stroke="#02a105" stroke-miterlimit="10" stroke-width="2" d="M628.63 448.3a11.42 11.42 0 1 0 0-22.84 11.42 11.42 0 0 0 0 22.83Z"/>
  <path fill="#02a105" d="M628.63 443.27a6.4 6.4 0 1 0 0-12.79 6.4 6.4 0 0 0 0 12.79Z"/>
  <path stroke="#02a105" stroke-miterlimit="10" stroke-width="2" d="M577 585.93a11.42 11.42 0 1 0 .01-22.84 11.42 11.42 0 0 0 0 22.84Z"/>
  <path fill="#02a105" d="M577 580.9a6.4 6.4 0 1 0 0-12.78 6.4 6.4 0 0 0 0 12.79Z"/>
  <path fill="#fff" stroke="#02a105" stroke-miterlimit="10" stroke-width="2" d="M487 651.67a11.42 11.42 0 1 0 .01-22.84 11.42 11.42 0 0 0 0 22.84Z"/>
  <path fill="#02a105" d="M487 646.64a6.4 6.4 0 1 0 0-12.78 6.4 6.4 0 0 0 0 12.78Z"/>
  <path fill="#444" d="M636.75 246.27h-3.6v-11.64h3.76c1.13 0 2.1.23 2.9.7.8.46 1.41 1.13 1.84 2 .43.86.64 1.9.64 3.1 0 1.2-.21 2.25-.64 3.13a4.61 4.61 0 0 1-1.89 2c-.83.47-1.83.7-3.01.7Zm-2.18-1.25h2.09c.96 0 1.76-.19 2.39-.56a3.5 3.5 0 0 0 1.42-1.59c.3-.68.46-1.5.46-2.44s-.15-1.75-.46-2.43c-.3-.68-.76-1.2-1.38-1.57a4.34 4.34 0 0 0-2.27-.55h-2.25v9.14Zm12.47 1.45a3.5 3.5 0 0 1-1.5-.31 2.53 2.53 0 0 1-1.47-2.37c0-.5.1-.9.3-1.22.19-.31.45-.56.78-.73.33-.18.7-.31 1.1-.4.4-.1.8-.16 1.2-.22l1.3-.15c.33-.04.57-.1.72-.19.16-.09.23-.24.23-.45v-.05c0-.56-.15-1-.46-1.3-.3-.32-.76-.47-1.38-.47a2.39 2.39 0 0 0-2.27 1.32l-1.27-.46a3.1 3.1 0 0 1 2.16-1.86 5.2 5.2 0 0 1 2.3-.08c.37.06.72.2 1.07.4.34.2.63.51.85.93.23.41.34.96.34 1.66v5.75h-1.34v-1.19h-.07a2.55 2.55 0 0 1-1.3 1.16 3.1 3.1 0 0 1-1.29.23Zm.2-1.2c.54 0 .99-.1 1.35-.31a2.13 2.13 0 0 0 1.11-1.85v-1.23c-.05.07-.18.13-.37.19-.2.05-.41.1-.66.14a33.79 33.79 0 0 1-1.28.17c-.35.05-.68.12-.98.22-.3.1-.54.25-.73.45-.18.2-.27.47-.27.8 0 .47.17.83.51 1.06.35.24.8.36 1.33.36Zm7.6-10.64v11.64h-1.35v-11.64h1.34Zm2.45 11.64v-8.73h1.34v8.73h-1.34Zm.68-10.19a.95.95 0 0 1-.68-.26.86.86 0 0 1-.27-.64.9.9 0 0 1 .27-.65.95.95 0 0 1 .68-.26c.26 0 .49.09.67.26.19.18.28.4.28.65s-.09.46-.28.64a.93.93 0 0 1-.67.27Zm5.68 10.4a3.5 3.5 0 0 1-1.5-.32 2.62 2.62 0 0 1-1.08-.92 2.6 2.6 0 0 1-.4-1.45c0-.5.1-.9.3-1.22.2-.31.46-.56.8-.73.32-.18.69-.31 1.08-.4.4-.1.8-.16 1.21-.22l1.3-.15a2 2 0 0 0 .72-.19c.15-.09.23-.24.23-.45v-.05c0-.56-.15-1-.46-1.3-.3-.32-.76-.47-1.38-.47-.64 0-1.14.14-1.5.42a2.5 2.5 0 0 0-.77.9l-1.27-.46a3.06 3.06 0 0 1 2.16-1.86 5.2 5.2 0 0 1 2.3-.08c.37.06.72.2 1.07.4.34.2.63.51.85.93.23.41.34.96.34 1.66v5.75h-1.34v-1.19h-.06a2.6 2.6 0 0 1-1.3 1.16c-.36.16-.79.23-1.3.23Zm.2-1.21c.54 0 .99-.1 1.35-.31a2.14 2.14 0 0 0 1.11-1.85v-1.23c-.05.07-.18.13-.37.19-.2.05-.41.1-.66.14a33.86 33.86 0 0 1-1.28.17 5.1 5.1 0 0 0-.98.22c-.3.1-.54.25-.73.45-.18.2-.27.47-.27.8 0 .47.17.83.51 1.06.35.24.8.36 1.33.36Zm7.6-4.25v5.25h-1.35v-8.73h1.3v1.36h.11c.2-.44.51-.8.93-1.06.42-.28.96-.41 1.62-.41.59 0 1.1.12 1.55.36.44.24.78.6 1.03 1.1.25.48.37 1.09.37 1.83v5.55h-1.34v-5.46c0-.68-.18-1.22-.53-1.6a1.9 1.9 0 0 0-1.47-.58c-.43 0-.81.1-1.15.28a2 2 0 0 0-.79.81c-.2.36-.29.79-.29 1.3ZM533.72 282.2v-1.25h8.73v1.25h-3.66v10.38h-1.4V282.2h-3.67Zm10.72 10.38v-8.72h1.34v8.72h-1.34Zm.69-10.18a.95.95 0 0 1-.68-.27.86.86 0 0 1-.28-.64c0-.25.1-.46.28-.64a.95.95 0 0 1 .68-.27c.26 0 .48.1.67.27.19.18.28.4.28.64 0 .25-.1.47-.28.64a.94.94 0 0 1-.67.27Zm5.68 10.39c-.55 0-1.06-.1-1.5-.31a2.63 2.63 0 0 1-1.08-.92c-.26-.4-.4-.89-.4-1.45 0-.5.1-.91.3-1.22.2-.31.46-.56.79-.74.33-.18.7-.31 1.09-.4.4-.09.8-.16 1.2-.21l1.3-.16a2 2 0 0 0 .73-.18c.15-.1.23-.24.23-.46v-.04c0-.56-.15-1-.46-1.31-.3-.31-.76-.47-1.38-.47a2.39 2.39 0 0 0-2.27 1.32l-1.28-.45c.23-.53.53-.95.91-1.24.38-.3.8-.5 1.25-.63a5.16 5.16 0 0 1 2.3-.08c.38.07.73.2 1.07.4.35.21.63.52.86.93.23.42.34.97.34 1.66v5.75h-1.34v-1.18h-.07a2.63 2.63 0 0 1-1.3 1.16c-.35.15-.78.23-1.3.23Zm.2-1.2c.53 0 .98-.11 1.35-.32a2.12 2.12 0 0 0 1.1-1.85v-1.22c-.05.06-.17.13-.37.18-.19.06-.4.1-.66.15a27.7 27.7 0 0 1-1.28.17 5.2 5.2 0 0 0-.98.22c-.3.1-.54.25-.72.45-.19.2-.28.46-.28.8 0 .47.18.82.52 1.06.35.23.79.35 1.32.35Zm7.59-4.26v5.25h-1.34v-8.72h1.3v1.36h.1c.21-.44.52-.8.94-1.07.41-.27.95-.4 1.61-.4.6 0 1.1.11 1.55.36.45.23.79.6 1.04 1.09.24.48.37 1.1.37 1.84v5.54h-1.34v-5.45c0-.69-.18-1.22-.54-1.6a1.9 1.9 0 0 0-1.46-.58c-.43 0-.82.09-1.15.28a2 2 0 0 0-.8.8c-.19.36-.28.8-.28 1.3Zm8.02-3.47h1.34v9.36c0 .54-.1 1-.28 1.4a2 2 0 0 1-.83.91c-.37.22-.83.33-1.4.33h-.27v-1.25h.25c.41 0 .71-.13.9-.37.2-.24.29-.58.29-1.02v-9.37Zm.65-1.46a.95.95 0 0 1-.67-.27.86.86 0 0 1-.28-.64c0-.25.1-.46.28-.64a.95.95 0 0 1 .67-.27c.27 0 .49.1.68.27.18.18.28.4.28.64 0 .25-.1.47-.28.64a.93.93 0 0 1-.68.27Zm3.14 10.18v-8.72h1.34v8.72h-1.34Zm.69-10.18a.95.95 0 0 1-.68-.27.86.86 0 0 1-.28-.64c0-.25.1-.46.28-.64a.95.95 0 0 1 .68-.27c.26 0 .48.1.66.27a.86.86 0 0 1 .01 1.28.93.93 0 0 1-.67.27Zm4.45 4.93v5.25h-1.34v-8.72h1.3v1.36h.1c.21-.44.52-.8.94-1.07.42-.27.96-.4 1.61-.4.6 0 1.11.11 1.56.36.44.23.78.6 1.03 1.09a4 4 0 0 1 .37 1.84v5.54h-1.34v-5.45c0-.69-.18-1.22-.54-1.6a1.9 1.9 0 0 0-1.46-.58c-.43 0-.81.09-1.15.28-.33.18-.6.45-.79.8-.2.36-.29.8-.29 1.3Zm41.05 41.77h1.54l1.3 1.71.34.46 1.93 2.56h-1.55l-1.27-1.7-.31-.43-1.98-2.6Zm5.59-2.17c0 1.22-.22 2.28-.67 3.18a5 5 0 0 1-1.82 2.07c-.77.48-1.66.72-2.65.72-1 0-1.87-.24-2.65-.72a4.99 4.99 0 0 1-1.82-2.07 7.09 7.09 0 0 1-.67-3.18c0-1.23.23-2.3.67-3.19a4.88 4.88 0 0 1 4.47-2.8 4.88 4.88 0 0 1 4.47 2.8c.45.9.67 1.96.67 3.19Zm-1.37 0c0-1.01-.16-1.86-.5-2.56a3.51 3.51 0 0 0-3.27-2.1 3.54 3.54 0 0 0-3.27 2.1c-.33.7-.5 1.55-.5 2.56 0 1 .17 1.85.5 2.55a3.48 3.48 0 0 0 3.27 2.1 3.52 3.52 0 0 0 3.27-2.1c.34-.7.5-1.55.5-2.55Zm3.56 5.81v-8.72h1.34v8.72h-1.34Zm.68-10.18a.96.96 0 0 1-.68-.26.86.86 0 0 1-.28-.65c0-.25.1-.46.28-.64a.96.96 0 0 1 .68-.27c.26 0 .48.1.67.27.19.18.28.4.28.64a.93.93 0 0 1-.95.9Zm4.45 4.93v5.25h-1.34v-8.72h1.3v1.36h.11c.2-.44.52-.8.93-1.07.42-.27.96-.4 1.62-.4.59 0 1.1.11 1.55.36.44.24.79.6 1.03 1.09a4 4 0 0 1 .37 1.84v5.54h-1.34v-5.45c0-.69-.18-1.22-.53-1.6a1.9 1.9 0 0 0-1.47-.58c-.43 0-.81.09-1.15.28-.33.18-.6.45-.79.8-.19.36-.29.8-.29 1.3Zm11.54 8.7c-.64 0-1.2-.07-1.67-.24a3.57 3.57 0 0 1-1.9-1.5l1.07-.75c.13.16.28.34.47.54.18.21.43.4.76.54.32.16.75.24 1.27.24.7 0 1.3-.17 1.75-.51.46-.35.69-.88.69-1.6v-1.78h-.12l-.42.6c-.18.22-.43.43-.77.61-.33.18-.78.27-1.35.27a3.5 3.5 0 0 1-3.22-1.95 5.1 5.1 0 0 1-.49-2.33c0-.89.16-1.67.47-2.33a3.46 3.46 0 0 1 3.26-2.1c.57 0 1.02.1 1.35.29.34.18.6.4.77.63l.43.58h.13v-1.38h1.3v8.97c0 .75-.17 1.36-.51 1.83-.34.48-.8.82-1.37 1.04-.57.23-1.2.34-1.9.34Zm-.04-4.79c.54 0 1-.12 1.36-.37.37-.24.66-.6.85-1.06.2-.46.29-1.01.29-1.66 0-.63-.1-1.18-.28-1.66a2.5 2.5 0 0 0-.85-1.13 2.2 2.2 0 0 0-1.37-.41 2.28 2.28 0 0 0-2.27 1.59 4.5 4.5 0 0 0-.28 1.61c0 .6.1 1.14.29 1.61.2.46.48.83.85 1.1.38.25.85.38 1.4.38Zm9.57 1.53a3.41 3.41 0 0 1-3.24-2.12 5.67 5.67 0 0 1-.47-2.4c0-.92.16-1.72.47-2.4a3.46 3.46 0 0 1 3.26-2.11c.57 0 1.02.1 1.35.29.33.18.58.4.76.63l.41.58h.12v-4.3h1.34v11.64h-1.3v-1.34h-.16l-.42.6c-.18.24-.44.46-.78.65-.33.18-.78.28-1.34.28Zm.18-1.2c.54 0 1-.15 1.36-.43.37-.28.66-.68.85-1.18.2-.5.29-1.08.29-1.74 0-.65-.1-1.22-.28-1.71-.2-.5-.48-.88-.85-1.15a2.24 2.24 0 0 0-1.37-.41 2.2 2.2 0 0 0-1.42.44c-.38.28-.66.68-.85 1.17-.18.5-.28 1.05-.28 1.66 0 .62.1 1.19.29 1.7.2.5.48.9.85 1.2.38.3.85.44 1.4.44Zm9.03 1.22c-.55 0-1.06-.1-1.5-.31a2.56 2.56 0 0 1-1.08-.92c-.27-.4-.4-.89-.4-1.45 0-.5.1-.9.3-1.22.2-.31.46-.56.79-.74.33-.18.69-.3 1.09-.4.4-.09.8-.16 1.2-.21l1.3-.15a2 2 0 0 0 .72-.2c.16-.08.24-.23.24-.45v-.04c0-.56-.16-1-.46-1.3-.3-.32-.77-.48-1.38-.48-.64 0-1.15.15-1.51.43a2.5 2.5 0 0 0-.77.9l-1.27-.46a3.07 3.07 0 0 1 2.16-1.87 5.16 5.16 0 0 1 2.3-.07c.37.06.73.2 1.07.4.34.2.63.51.86.92.22.42.34.97.34 1.66v5.75h-1.34v-1.18h-.07a2.62 2.62 0 0 1-1.3 1.16c-.35.15-.78.23-1.3.23Zm.2-1.2c.53 0 .98-.11 1.34-.32a2.12 2.12 0 0 0 1.12-1.85v-1.22c-.06.07-.19.13-.38.19-.19.05-.4.1-.66.14a28.39 28.39 0 0 1-1.28.17c-.35.04-.68.12-.98.22-.3.1-.54.25-.73.45-.18.2-.27.46-.27.8 0 .47.17.82.52 1.06.35.24.79.35 1.32.35Zm9.8 1.18a3.8 3.8 0 0 1-2.08-.57c-.6-.37-1.06-.9-1.39-1.57a5.33 5.33 0 0 1-.5-2.36c0-.91.17-1.7.5-2.38.33-.68.8-1.21 1.39-1.59a3.8 3.8 0 0 1 2.07-.56 3.64 3.64 0 0 1 3.45 2.15c.34.67.5 1.47.5 2.38 0 .9-.16 1.69-.5 2.36a3.7 3.7 0 0 1-3.45 2.14Zm0-1.2a2.3 2.3 0 0 0 1.47-.47c.38-.3.67-.7.86-1.2.18-.5.27-1.05.27-1.63 0-.59-.09-1.13-.27-1.63-.19-.5-.48-.92-.86-1.23a2.29 2.29 0 0 0-1.48-.46c-.6 0-1.09.15-1.48.46-.38.31-.67.72-.85 1.23a4.7 4.7 0 0 0-.28 1.63c0 .58.09 1.12.28 1.62.18.5.47.9.85 1.21.39.3.88.46 1.48.46Zm-12.05 102.82a1.79 1.79 0 0 0-.83-1.34 3.18 3.18 0 0 0-1.78-.47c-.52 0-.97.08-1.36.25-.38.16-.68.39-.9.68a1.65 1.65 0 0 0-.1 1.8c.16.22.35.4.59.55.23.14.48.26.74.36.25.09.5.16.7.22l1.19.32c.3.08.64.19 1.01.33.38.14.73.33 1.08.57a2.65 2.65 0 0 1 1.19 2.3c0 .63-.17 1.2-.5 1.7-.33.51-.8.92-1.43 1.22-.63.3-1.39.44-2.28.44-.84 0-1.56-.13-2.17-.4a3.2 3.2 0 0 1-2.02-2.8h1.46c.04.44.19.8.44 1.1.26.27.6.49 1 .63a4 4 0 0 0 1.29.2c.54 0 1.02-.08 1.45-.26a2.5 2.5 0 0 0 1.01-.74c.25-.32.38-.69.38-1.11 0-.39-.1-.7-.32-.95-.22-.24-.5-.43-.86-.59a9.03 9.03 0 0 0-1.14-.4l-1.43-.4a5.32 5.32 0 0 1-2.16-1.12 2.46 2.46 0 0 1-.8-1.9c0-.66.18-1.23.53-1.71a3.6 3.6 0 0 1 1.43-1.14c.6-.27 1.28-.4 2.02-.4.75 0 1.42.13 2 .4a3.4 3.4 0 0 1 1.39 1.09c.34.46.52.99.54 1.57h-1.36Zm5 3.48v5.25h-1.34v-11.64h1.34v4.28h.11c.2-.45.51-.81.92-1.08.41-.27.96-.4 1.65-.4.6 0 1.12.12 1.56.36.45.23.8.6 1.04 1.08.25.49.38 1.1.38 1.86v5.54h-1.34v-5.45c0-.7-.18-1.23-.54-1.61a1.93 1.93 0 0 0-1.49-.58c-.44 0-.83.1-1.18.28-.34.19-.62.46-.82.81-.2.36-.3.8-.3 1.3Zm10.68 5.46c-.55 0-1.06-.11-1.5-.32a2.54 2.54 0 0 1-1.08-.91c-.27-.4-.4-.89-.4-1.46 0-.5.1-.9.3-1.21.2-.32.46-.56.79-.74.33-.18.69-.31 1.09-.4.4-.09.8-.16 1.2-.21.54-.07.97-.13 1.3-.16a2 2 0 0 0 .73-.19c.15-.08.23-.24.23-.45v-.05c0-.56-.16-1-.46-1.3-.3-.31-.77-.47-1.38-.47-.64 0-1.14.14-1.5.42a2.5 2.5 0 0 0-.78.9l-1.27-.45a3.06 3.06 0 0 1 2.16-1.87 5.2 5.2 0 0 1 2.3-.08c.38.07.73.2 1.07.4.34.2.63.52.86.93.22.41.34.97.34 1.66v5.75h-1.34v-1.18H676a2.6 2.6 0 0 1-1.3 1.16c-.35.15-.78.23-1.3.23Zm.2-1.21c.53 0 .98-.1 1.34-.31a2.14 2.14 0 0 0 1.12-1.85v-1.23c-.06.07-.18.13-.38.2-.19.04-.4.1-.66.13a33.86 33.86 0 0 1-1.28.17c-.35.05-.67.12-.98.23-.3.1-.54.24-.73.44-.18.2-.27.47-.27.81 0 .47.17.82.52 1.06.35.23.79.35 1.32.35Zm7.59-4.25v5.25h-1.34v-8.73h1.3v1.37h.1c.21-.45.52-.8.94-1.07.41-.27.95-.41 1.61-.41.6 0 1.1.12 1.55.36.45.24.79.6 1.04 1.1.24.48.37 1.1.37 1.84v5.54h-1.35v-5.45c0-.69-.17-1.22-.53-1.6a1.9 1.9 0 0 0-1.47-.59c-.42 0-.8.1-1.14.28a2 2 0 0 0-.8.81c-.19.36-.28.8-.28 1.3Zm11.54 8.7a4.9 4.9 0 0 1-1.67-.25 3.54 3.54 0 0 1-1.9-1.5l1.07-.75c.12.16.27.35.46.55.18.2.44.39.76.54a3 3 0 0 0 1.28.23c.7 0 1.28-.17 1.74-.5.46-.35.69-.88.69-1.61v-1.77h-.11c-.1.16-.24.35-.42.59a2.4 2.4 0 0 1-.78.62c-.33.18-.78.26-1.35.26a3.51 3.51 0 0 1-3.22-1.95 5.09 5.09 0 0 1-.48-2.32c0-.9.15-1.67.47-2.33a3.47 3.47 0 0 1 3.26-2.1c.56 0 1.01.1 1.35.28.33.19.59.4.77.64.18.23.32.43.42.58h.13v-1.39h1.3v8.98c0 .75-.17 1.36-.51 1.83a3 3 0 0 1-1.36 1.04c-.57.22-1.2.34-1.9.34Zm-.05-4.8c.54 0 1-.11 1.37-.36.37-.25.65-.6.84-1.06.2-.46.3-1.02.3-1.66 0-.63-.1-1.19-.3-1.67a2.5 2.5 0 0 0-.83-1.13c-.37-.27-.83-.4-1.38-.4a2.28 2.28 0 0 0-2.26 1.59 4.47 4.47 0 0 0-.28 1.6c0 .61.1 1.15.28 1.62.2.46.48.82.85 1.09.38.26.85.39 1.41.39Zm7.62-3.9v5.25h-1.35v-11.64h1.35v4.28h.11c.2-.45.51-.81.92-1.08.41-.27.96-.4 1.65-.4.6 0 1.11.12 1.56.36.45.23.8.6 1.04 1.08.25.49.38 1.1.38 1.86v5.54h-1.35v-5.45c0-.7-.18-1.23-.53-1.61a1.93 1.93 0 0 0-1.49-.58c-.44 0-.83.1-1.18.28-.34.19-.62.46-.82.81-.2.36-.3.8-.3 1.3Zm10.68 5.46c-.56 0-1.06-.11-1.5-.32a2.54 2.54 0 0 1-1.08-.91c-.27-.4-.4-.89-.4-1.46a2.05 2.05 0 0 1 1.08-1.95c.33-.18.7-.31 1.1-.4.4-.09.8-.16 1.2-.21.54-.07.97-.13 1.3-.16a2 2 0 0 0 .72-.19c.16-.08.24-.24.24-.45v-.05c0-.56-.16-1-.46-1.3-.3-.31-.77-.47-1.38-.47a2.4 2.4 0 0 0-1.51.42 2.5 2.5 0 0 0-.77.9l-1.27-.45a3.06 3.06 0 0 1 2.16-1.87 5.2 5.2 0 0 1 2.3-.08c.37.07.73.2 1.07.4.34.2.63.52.86.93.22.41.34.97.34 1.66v5.75h-1.34v-1.18h-.07a2.6 2.6 0 0 1-1.3 1.16c-.36.15-.79.23-1.3.23Zm.2-1.21c.53 0 .98-.1 1.34-.31a2.14 2.14 0 0 0 1.12-1.85v-1.23a.99.99 0 0 1-.38.2c-.19.04-.4.1-.66.13a33.86 33.86 0 0 1-1.28.17 5.1 5.1 0 0 0-.98.23c-.3.1-.54.24-.73.44-.18.2-.27.47-.27.81 0 .47.17.82.52 1.06.35.23.79.35 1.32.35Zm6.24 1v-8.73h1.34v8.73h-1.34Zm.69-10.18a.95.95 0 0 1-.68-.27.86.86 0 0 1-.28-.64c0-.25.1-.46.28-.64a.95.95 0 0 1 .68-.27c.26 0 .48.09.67.27.19.18.28.39.28.64s-.1.46-.28.64a.93.93 0 0 1-.67.27ZM602.61 575.13l3 4.85h.1l3-4.85h1.65l-3.66 5.82 3.66 5.82h-1.66l-3-4.75h-.09l-3 4.75h-1.66l3.75-5.82-3.75-5.82h1.66Zm9.4 11.64v-8.73h1.35v8.73H612Zm.69-10.18a.95.95 0 0 1-.68-.27.86.86 0 0 1-.28-.64c0-.25.1-.46.28-.64a.95.95 0 0 1 .68-.27c.26 0 .48.09.67.27.18.18.28.39.28.64s-.1.46-.28.64a.93.93 0 0 1-.67.27Zm5.68 10.39c-.55 0-1.06-.1-1.5-.32-.46-.2-.82-.51-1.08-.91-.27-.4-.4-.89-.4-1.46 0-.5.1-.9.3-1.21.2-.32.46-.56.79-.74.33-.18.69-.31 1.09-.4.4-.09.8-.16 1.2-.21l1.3-.16a2 2 0 0 0 .72-.19c.16-.08.24-.23.24-.45v-.04c0-.57-.16-1-.46-1.31-.3-.31-.77-.47-1.38-.47-.64 0-1.15.14-1.5.42a2.5 2.5 0 0 0-.78.9l-1.27-.45c.23-.53.53-.95.91-1.24.38-.3.8-.51 1.25-.63a5.2 5.2 0 0 1 2.3-.08c.38.07.73.2 1.07.4.35.21.63.52.86.93.23.41.34.97.34 1.66v5.75h-1.34v-1.18h-.07a2.6 2.6 0 0 1-1.3 1.16c-.35.15-.78.23-1.3.23Zm.2-1.2c.53 0 .98-.11 1.34-.32a2.14 2.14 0 0 0 1.12-1.85v-1.23c-.06.07-.18.13-.38.2-.19.04-.4.1-.66.13a28.39 28.39 0 0 1-1.28.17 5.1 5.1 0 0 0-.98.23c-.3.1-.54.24-.73.44-.18.2-.27.47-.27.81 0 .47.17.82.52 1.06.35.23.79.35 1.32.35Zm6.25 1v-8.74h1.3v1.37h.1c.19-.47.48-.83.89-1.09.4-.26.89-.39 1.46-.39a2.41 2.41 0 0 1 2.33 1.48h.1a2.6 2.6 0 0 1 1-1.08c.45-.26.99-.4 1.61-.4.78 0 1.42.24 1.92.73s.74 1.24.74 2.27v5.84h-1.34v-5.84c0-.64-.18-1.1-.53-1.38a1.96 1.96 0 0 0-1.24-.41c-.62 0-1.1.18-1.43.55a2 2 0 0 0-.5 1.4v5.68h-1.37v-5.98c0-.5-.16-.9-.48-1.2a1.88 1.88 0 0 0-2.22-.18 2.2 2.2 0 0 0-1 1.91v5.45h-1.34Zm17.56.17a3.74 3.74 0 0 1-3.58-2.13 5.34 5.34 0 0 1-.49-2.34c0-.9.17-1.69.5-2.37a3.69 3.69 0 0 1 3.44-2.18c.45 0 .9.08 1.34.23a3.35 3.35 0 0 1 2.08 2.08c.22.55.33 1.24.33 2.05v.57h-6.73v-1.16h5.36c0-.49-.1-.93-.3-1.32a2.22 2.22 0 0 0-2.09-1.25c-.53 0-1 .14-1.38.4-.39.26-.69.6-.9 1.02a3 3 0 0 0-.3 1.36v.77c0 .66.1 1.22.34 1.68a2.48 2.48 0 0 0 2.38 1.39c.35 0 .67-.05.96-.15.28-.1.53-.25.74-.45.2-.2.37-.46.48-.76l1.3.36a2.99 2.99 0 0 1-1.89 1.93c-.47.18-1 .27-1.59.27Zm7-5.43v5.25h-1.35v-8.73h1.3v1.37h.11c.2-.45.52-.8.94-1.07.41-.27.95-.41 1.6-.41.6 0 1.12.12 1.56.36.44.24.79.6 1.04 1.1.24.48.36 1.1.36 1.84v5.54h-1.34v-5.45c0-.69-.18-1.22-.53-1.6a1.9 1.9 0 0 0-1.47-.59c-.43 0-.8.1-1.14.28a2 2 0 0 0-.8.82c-.19.35-.28.78-.28 1.3Zm-141.46 86.92V656.8h1.4v5.18h6.21v-5.18h1.4v11.64h-1.4v-5.2h-6.2v5.2h-1.41Zm15.2.18a3.8 3.8 0 0 1-2.07-.57 3.8 3.8 0 0 1-1.39-1.57 5.32 5.32 0 0 1-.49-2.36c0-.91.16-1.7.5-2.38a3.8 3.8 0 0 1 1.38-1.58 3.8 3.8 0 0 1 2.07-.56 3.71 3.71 0 0 1 3.46 2.14c.33.67.5 1.47.5 2.38 0 .9-.17 1.69-.5 2.36a3.74 3.74 0 0 1-3.46 2.14Zm0-1.2c.6 0 1.1-.16 1.48-.47.39-.3.67-.7.86-1.2a4.8 4.8 0 0 0 0-3.26c-.19-.5-.47-.91-.86-1.23a2.28 2.28 0 0 0-1.48-.46c-.6 0-1.09.16-1.47.47-.39.3-.68.71-.86 1.22a4.75 4.75 0 0 0 0 3.25c.18.5.47.9.86 1.21.38.31.88.46 1.47.46Zm7.35-4.23v5.25h-1.34v-8.73h1.3v1.36h.1c.2-.44.52-.8.94-1.07.41-.27.95-.4 1.61-.4.6 0 1.1.12 1.55.36.44.24.79.6 1.03 1.09.25.48.38 1.1.38 1.84v5.55h-1.35v-5.46c0-.68-.17-1.22-.53-1.6a1.9 1.9 0 0 0-1.47-.58c-.42 0-.8.1-1.14.28a2 2 0 0 0-.8.81c-.19.36-.28.79-.28 1.3Zm11.54 8.7a4.9 4.9 0 0 1-1.67-.25 3.53 3.53 0 0 1-1.9-1.5l1.07-.75c.12.16.27.34.46.55.18.2.44.38.76.54a3 3 0 0 0 1.28.23c.7 0 1.28-.17 1.74-.51.46-.34.69-.88.69-1.6v-1.78h-.11c-.1.16-.24.36-.43.6-.17.22-.43.43-.77.61-.33.18-.78.27-1.35.27a3.7 3.7 0 0 1-1.9-.5c-.55-.33-1-.82-1.32-1.45a5.09 5.09 0 0 1-.48-2.32c0-.9.15-1.68.47-2.34a3.47 3.47 0 0 1 3.26-2.1 2.56 2.56 0 0 1 2.12.92c.18.24.32.43.42.59h.13v-1.4h1.3v8.99a3 3 0 0 1-.51 1.82c-.34.48-.8.83-1.37 1.04-.56.23-1.2.34-1.9.34Zm-.05-4.8c.54 0 1-.12 1.37-.36.37-.25.65-.6.84-1.07.2-.46.3-1.01.3-1.66 0-.63-.1-1.18-.3-1.66a2.5 2.5 0 0 0-.83-1.13 2.28 2.28 0 0 0-1.38-.41c-.57 0-1.04.14-1.42.43a2.7 2.7 0 0 0-.84 1.16 4.5 4.5 0 0 0-.28 1.61c0 .61.1 1.15.28 1.61.2.46.48.83.85 1.1.38.25.85.38 1.41.38Zm7.52-1.84-.02-1.65h.27l3.82-3.9h1.66l-4.07 4.12h-.11l-1.54 1.43Zm-1.25 3.19V656.8h1.35v11.64h-1.35Zm5.55 0-3.4-4.32.95-.93 4.15 5.25h-1.7Zm6.34.18a3.8 3.8 0 0 1-2.07-.57 3.8 3.8 0 0 1-1.39-1.57 5.32 5.32 0 0 1-.49-2.36c0-.91.16-1.7.5-2.38a3.8 3.8 0 0 1 1.38-1.58 3.8 3.8 0 0 1 2.07-.56 3.71 3.71 0 0 1 3.46 2.14c.33.67.5 1.47.5 2.38 0 .9-.17 1.69-.5 2.36a3.74 3.74 0 0 1-3.46 2.14Zm0-1.2c.6 0 1.1-.16 1.48-.47.39-.3.67-.7.86-1.2a4.8 4.8 0 0 0 0-3.26c-.19-.5-.47-.91-.86-1.23a2.28 2.28 0 0 0-1.48-.46c-.6 0-1.09.16-1.47.47-.39.3-.68.71-.86 1.22a4.75 4.75 0 0 0 0 3.25c.18.5.47.9.86 1.21.38.31.88.46 1.47.46Zm7.35-4.23v5.25h-1.34v-8.73h1.3v1.36h.1c.2-.44.52-.8.94-1.07.41-.27.95-.4 1.61-.4.6 0 1.1.12 1.55.36.44.24.79.6 1.03 1.09.25.48.38 1.1.38 1.84v5.55h-1.35v-5.46c0-.68-.17-1.22-.53-1.6a1.9 1.9 0 0 0-1.47-.58c-.42 0-.8.1-1.14.28a2 2 0 0 0-.8.81c-.19.36-.28.79-.28 1.3Zm11.54 8.7a4.9 4.9 0 0 1-1.67-.25 3.53 3.53 0 0 1-1.9-1.5l1.07-.75c.12.16.27.34.46.55.18.2.44.38.76.54a3 3 0 0 0 1.28.23c.7 0 1.28-.17 1.74-.51.46-.34.69-.88.69-1.6v-1.78h-.11c-.1.16-.24.36-.43.6-.17.22-.43.43-.77.61-.33.18-.78.27-1.35.27a3.7 3.7 0 0 1-1.9-.5c-.55-.33-1-.82-1.32-1.45a5.09 5.09 0 0 1-.48-2.32c0-.9.15-1.68.47-2.34a3.47 3.47 0 0 1 3.26-2.1 2.56 2.56 0 0 1 2.12.92c.18.24.32.43.42.59h.13v-1.4h1.3v8.99a3 3 0 0 1-.51 1.82c-.34.48-.8.83-1.37 1.04-.56.23-1.2.34-1.9.34Zm-.05-4.8c.54 0 1-.12 1.37-.36.37-.25.65-.6.84-1.07.2-.46.3-1.01.3-1.66 0-.63-.1-1.18-.3-1.66a2.5 2.5 0 0 0-.83-1.13 2.28 2.28 0 0 0-1.38-.41c-.57 0-1.04.14-1.42.43a2.7 2.7 0 0 0-.84 1.16 4.5 4.5 0 0 0-.28 1.61c0 .61.1 1.15.28 1.61.2.46.48.83.85 1.1.38.25.85.38 1.41.38Z"/>
  <defs>
    <radialGradient id="a" cx="0" cy="0" r="1" gradientTransform="matrix(272 337 -337 272 443 441)" gradientUnits="userSpaceOnUse">
      <stop stop-color="#EFF6F6"/>
      <stop offset="1" stop-color="#EFF6F6"/>
    </radialGradient>
    <radialGradient id="b" cx="0" cy="0" r="1" gradientTransform="matrix(126 296 -566 241 320 45)" gradientUnits="userSpaceOnUse">
      <stop stop-color="#F2F6F7"/>
      <stop offset="1" stop-color="#BAD8D8"/>
    </radialGradient>
    <radialGradient id="c" cx="0" cy="0" r="1" gradientTransform="matrix(207 314 -471 310 456 498)" gradientUnits="userSpaceOnUse">
      <stop stop-color="#9CC0C4" stop-opacity=".99"/>
      <stop offset="1" stop-color="#E1ECED" stop-opacity=".46"/>
    </radialGradient>
  </defs>
</svg>
