<svg width="885" height="881" viewBox="0 0 885 881" fill="none" xmlns="http://www.w3.org/2000/svg">
<mask id="path-1-inside-1_12_391" fill="white">
<path d="M24.9 484.13L35.86 491.89H42.03L47.28 501.7L48.88 507.87L52.99 517.23L67.39 520.88C67.39 520.88 84.06 522.48 85.43 522.02C87.03 521.56 92.74 509.01 104.16 509.01C115.58 509.01 120.84 503.76 122.89 502.85C124.95 501.7 133.86 497.6 144.14 504.9C154.42 512.2 153.96 514.26 157.61 512.2C161.27 510.15 162.18 504.44 163.78 501.93C165.38 499.43 168.35 497.83 168.35 497.83L170.41 503.99L174.97 505.59C174.97 505.59 173.37 511.75 177.49 517.45C181.59 523.16 183.65 524.75 183.65 526.35C183.65 527.95 186.17 548.04 180.45 555.8C174.75 563.56 161.73 572.46 161.73 572.46L156.47 583.42L156.01 587.52V592.78L151.45 598.03L162.87 599.63L174.75 596.43L173.15 600.99L174.75 609.21L178.4 618.11L186.17 620.17L189.82 622.22L183.65 627.92V634.09C183.65 637.29 180 642.31 180 642.31L195.53 645.51C195.53 645.51 190.96 652.12 199.19 655.78C207.41 659.43 214.26 656.23 218.38 656.92C222.48 657.37 222.48 667.87 222.48 667.87H233.91L235.05 656.92L232.54 646.65C232.54 646.65 232.54 640.94 236.64 640.94C240.76 640.94 248.98 638.43 248.98 638.43C248.98 638.43 252.64 637.29 254.69 639.57C256.75 641.62 264.06 643.22 266.12 641.62C268.17 640.02 269.77 639.12 273.88 639.12C277.99 639.12 284.16 639.12 285.3 638.66C286.22 638.2 290.56 638.2 291.93 637.06C293.53 635.92 291.93 630.9 302.89 628.84C313.86 626.79 310.66 630.44 317.29 633.41C323.91 636.61 333.96 635.01 334.87 636.61C336.01 638.2 333.27 645.96 333.27 648.47C333.27 650.98 338.53 657.37 338.53 657.37C338.53 657.37 340.13 668.33 350.86 666.27C361.83 664.22 360.23 669.47 364.8 669.47C369.36 669.47 376.67 669.01 376.67 669.01L379.19 666.51C379.19 666.51 383.75 666.51 385.35 670.16C386.95 673.81 390.61 671.76 395.18 671.76C399.74 671.76 404.54 669.24 401.34 677C398.14 684.76 400.89 702.34 413.22 699.83C425.56 697.32 415.73 695.72 415.73 695.72V687.96C415.73 687.96 410.25 671.98 429.44 671.3C448.86 670.61 458.45 669.24 461.19 665.82C463.93 662.39 463.25 661.02 471.47 658.97C479.69 656.92 479.01 639.57 484.49 642.31C489.97 645.05 489.29 656.01 494.77 652.58C500.25 649.16 502.31 640.25 506.42 641.85C510.53 643.45 518.75 642.54 523.09 641.62C527.21 640.72 531.32 640.02 536.11 637.29C540.91 634.55 547.08 623.59 549.82 622.22C552.56 620.85 556.67 622.22 560.78 614C564.9 605.79 567.64 602.36 567.64 602.36C567.64 602.36 562.15 592.78 567.64 592.78C573.12 592.78 577.24 597.58 579.29 592.78C581.34 587.98 581.34 585.93 584.77 581.14C588.2 576.34 589.57 573.6 592.31 573.6C595.05 573.6 607.38 570.86 602.59 566.76C597.79 562.65 597.79 553.75 603.73 549.41C609.43 545.3 608.07 542.56 609.43 537.08C610.81 531.6 615.61 529.55 615.61 529.55C615.61 529.55 616.98 517.23 623.14 513.57C629.31 510.15 630 504.67 630 504.67C630 504.67 629.31 500.57 630 498.51C630.68 496.45 627.94 490.29 630 488.24C632.05 486.18 636.16 483.44 636.16 483.44V475.91L640.96 473.17C640.96 473.17 642.33 463.58 640.96 461.53C639.59 459.48 633.42 454 630.68 466.33C630.68 466.33 619.03 461.53 612.64 464.95C612.64 464.95 608.75 464.5 611.72 460.85C614.92 457.19 616.98 454.68 619.95 453.08C623.15 451.48 625.65 453.08 625.65 449.43C625.65 445.78 627.25 441.67 624.52 440.53C622 439.39 615.61 434.83 613.55 432.31C611.5 429.81 614.69 426.61 618.12 428.21L625.42 431.41C625.42 431.41 630 432.09 625.89 427.98C621.77 423.64 618.58 422.28 617.66 420.68C616.52 419.08 617.21 411.78 613.55 411.78H606.25C606.25 411.78 606.7 406.07 606.25 404.47C605.78 402.87 599.62 399.22 599.62 399.22C599.62 399.22 597.1 395.11 597.1 391.46C597.1 387.81 589.8 379.59 583.17 373.88C576.54 368.18 570.84 366.12 570.84 366.12C570.84 366.12 566.72 360.42 571.98 358.36C577.23 356.3 579.74 349 581.8 347.4C583.86 345.8 587.97 339.19 591.17 338.05C594.37 336.9 591.62 336.45 595.73 332.34C599.85 328.23 601.44 323.44 605.1 323.44C608.75 323.44 611.27 318.19 614 318.19C616.52 318.19 619.72 321.84 622.23 315.68C623.699 312.157 624.772 308.481 625.43 304.72H616.52C616.52 304.72 611.95 304.26 609.9 304.72C607.84 305.18 598.93 304.49 598.93 304.49C598.93 304.49 593.23 296.5 589.11 298.1C585 299.7 580.89 303.8 579.29 307C577.69 310.2 577.23 316.36 569.92 315.22C562.62 314.08 558.96 313.16 560.1 309.97C561.24 306.77 562.61 305.87 562.61 304.27C562.61 302.67 560.1 303.12 560.1 301.07C560.1 299.01 564.67 299.01 558.96 297.87C553.25 296.5 552.33 295.13 549.59 297.87C547.08 300.61 542.29 300.61 541.83 298.56C541.37 296.5 539.77 294.9 538.63 291.94C537.49 288.74 540.68 293.99 537.49 288.74C534.29 283.49 530.17 267.51 540.69 272.76C550.96 278.01 549.59 271.16 558.73 271.86C568.09 272.31 564.43 267.29 564.43 265.69C564.43 264.09 564.9 259.07 566.5 257.93C568.1 256.79 575.4 250.17 576.77 249.03C578.37 247.88 582.03 244.92 583.4 241.73C585 238.53 585 228.71 588.65 228.71C592.31 228.71 600.07 224.15 602.13 228.71C604.18 233.28 609.9 236.01 606.7 240.58C602.838 246.309 599.179 252.173 595.73 258.16C593.68 261.81 598.25 263.41 598.93 265.46C599.39 267.51 594.82 265.46 594.36 270.71C593.91 275.96 596.87 280.07 599.62 277.33C602.12 274.82 620.86 251.99 627.48 250.4C634.11 248.8 641.42 248.8 649.64 237.38C657.87 225.98 670.89 218.21 671.8 215.7C672.94 213.19 676.37 196.53 681.16 200.18C685.73 203.83 695.56 204.28 698.3 203.83C700.8 203.37 707.66 200.63 703.55 194.93C699.44 189.23 701.95 187.63 704.92 186.71C707.66 185.57 713.37 182.61 716.57 181.01C719.77 179.41 722.28 179.87 722.28 175.76C722.28 171.65 724.34 160.24 727.53 165.94C730.73 171.64 736.9 176.21 736.9 170.05V161.83H741.47V136.95C741.47 136.95 729.59 118.92 735.3 115.73C735.76 115.5 735.99 115.27 736.44 115.04C680.773 64.1917 612.97 28.5065 539.54 11.4102C538.4 12.7802 537.71 14.1502 537.71 14.8402C537.71 16.4402 536.11 25.1102 536.11 25.1102C536.11 25.1102 541.37 28.3102 537.71 29.6702C534.06 31.2702 528.35 32.1802 526.75 34.9202C525.15 37.4302 513.73 45.1902 513.73 45.1902C513.73 45.1902 511.67 43.1402 505.5 41.9902C499.34 40.8602 501.85 43.1402 498.88 47.7102C495.68 52.2702 492.26 62.7702 491.58 65.2802C491.11 67.7902 484.95 73.5002 485.86 76.6902C487 79.8902 493.63 86.9702 496.14 86.5102C498.65 86.0502 502.31 85.3702 506.42 84.9102C510.53 84.4502 514.64 90.1602 516.24 86.5102C517.84 82.8602 516.24 82.8602 524.47 82.8602C532.69 82.8602 538.85 81.2602 543.65 89.0202C548.22 96.7802 558.73 101.35 553.48 104.08C548.22 106.6 550.28 108.65 544.57 106.6C538.85 104.54 533.6 103.4 533.6 103.4L524.7 106.6C524.7 106.6 517.38 107.05 516.93 108.65C516.47 110.25 511.22 113.21 511.22 113.21L505.5 115.27C505.5 115.27 498.2 125.54 498.2 127.14C498.2 128.74 496.6 133.3 496.6 133.3L490.89 134.44L483.12 139.69L473.75 141.29L460.73 152.25H444.06C444.06 152.25 435.84 147.68 432.64 149.74C429.44 151.79 425.33 160.69 425.33 162.74C425.33 164.8 429.44 169.37 430.58 170.96C431.72 172.56 432.64 179.18 432.64 179.18C432.64 179.18 429.44 184.43 428.07 184.43C426.47 184.43 420.3 186.94 420.3 186.94C420.3 186.94 414.13 190.59 412.76 193.56C411.39 196.76 410.48 199.72 405.23 201.32C399.97 202.92 404.08 199.27 399.97 202.92C395.87 206.57 384.9 206.57 378.27 207.02C371.65 207.48 350.87 209.54 344.01 211.59C337.38 213.65 330.99 222.55 321.85 221.41C312.49 220.27 319.34 217.75 312.03 217.3C304.72 216.84 303.12 219.35 298.1 216.84C292.84 214.34 291.93 212.74 288.73 210.22C285.53 207.72 285.53 204.97 278.45 204.97C271.15 204.97 266.57 198.81 266.57 198.81C266.57 198.81 262.92 192.19 247.84 192.19C232.76 192.19 230.71 193.33 224.09 190.59C217.46 188.09 210.15 185.34 203.99 184.89C197.82 184.43 180.23 184.43 180.23 184.43C180.23 184.43 178.17 177.13 175.66 172.56C173.15 168 184.56 159.09 171.09 152.47C157.61 145.85 152.36 134.9 152.36 134.9C152.36 134.9 136.37 128.05 130.43 125.54C50.93 205.66 0 317.27 0 440.99C0 456.29 0.69 471.35 2.28 486.19L14.16 480.02L24.9 484.12V484.13Z"/>
</mask>
<path d="M24.9 484.13L35.86 491.89H42.03L47.28 501.7L48.88 507.87L52.99 517.23L67.39 520.88C67.39 520.88 84.06 522.48 85.43 522.02C87.03 521.56 92.74 509.01 104.16 509.01C115.58 509.01 120.84 503.76 122.89 502.85C124.95 501.7 133.86 497.6 144.14 504.9C154.42 512.2 153.96 514.26 157.61 512.2C161.27 510.15 162.18 504.44 163.78 501.93C165.38 499.43 168.35 497.83 168.35 497.83L170.41 503.99L174.97 505.59C174.97 505.59 173.37 511.75 177.49 517.45C181.59 523.16 183.65 524.75 183.65 526.35C183.65 527.95 186.17 548.04 180.45 555.8C174.75 563.56 161.73 572.46 161.73 572.46L156.47 583.42L156.01 587.52V592.78L151.45 598.03L162.87 599.63L174.75 596.43L173.15 600.99L174.75 609.21L178.4 618.11L186.17 620.17L189.82 622.22L183.65 627.92V634.09C183.65 637.29 180 642.31 180 642.31L195.53 645.51C195.53 645.51 190.96 652.12 199.19 655.78C207.41 659.43 214.26 656.23 218.38 656.92C222.48 657.37 222.48 667.87 222.48 667.87H233.91L235.05 656.92L232.54 646.65C232.54 646.65 232.54 640.94 236.64 640.94C240.76 640.94 248.98 638.43 248.98 638.43C248.98 638.43 252.64 637.29 254.69 639.57C256.75 641.62 264.06 643.22 266.12 641.62C268.17 640.02 269.77 639.12 273.88 639.12C277.99 639.12 284.16 639.12 285.3 638.66C286.22 638.2 290.56 638.2 291.93 637.06C293.53 635.92 291.93 630.9 302.89 628.84C313.86 626.79 310.66 630.44 317.29 633.41C323.91 636.61 333.96 635.01 334.87 636.61C336.01 638.2 333.27 645.96 333.27 648.47C333.27 650.98 338.53 657.37 338.53 657.37C338.53 657.37 340.13 668.33 350.86 666.27C361.83 664.22 360.23 669.47 364.8 669.47C369.36 669.47 376.67 669.01 376.67 669.01L379.19 666.51C379.19 666.51 383.75 666.51 385.35 670.16C386.95 673.81 390.61 671.76 395.18 671.76C399.74 671.76 404.54 669.24 401.34 677C398.14 684.76 400.89 702.34 413.22 699.83C425.56 697.32 415.73 695.72 415.73 695.72V687.96C415.73 687.96 410.25 671.98 429.44 671.3C448.86 670.61 458.45 669.24 461.19 665.82C463.93 662.39 463.25 661.02 471.47 658.97C479.69 656.92 479.01 639.57 484.49 642.31C489.97 645.05 489.29 656.01 494.77 652.58C500.25 649.16 502.31 640.25 506.42 641.85C510.53 643.45 518.75 642.54 523.09 641.62C527.21 640.72 531.32 640.02 536.11 637.29C540.91 634.55 547.08 623.59 549.82 622.22C552.56 620.85 556.67 622.22 560.78 614C564.9 605.79 567.64 602.36 567.64 602.36C567.64 602.36 562.15 592.78 567.64 592.78C573.12 592.78 577.24 597.58 579.29 592.78C581.34 587.98 581.34 585.93 584.77 581.14C588.2 576.34 589.57 573.6 592.31 573.6C595.05 573.6 607.38 570.86 602.59 566.76C597.79 562.65 597.79 553.75 603.73 549.41C609.43 545.3 608.07 542.56 609.43 537.08C610.81 531.6 615.61 529.55 615.61 529.55C615.61 529.55 616.98 517.23 623.14 513.57C629.31 510.15 630 504.67 630 504.67C630 504.67 629.31 500.57 630 498.51C630.68 496.45 627.94 490.29 630 488.24C632.05 486.18 636.16 483.44 636.16 483.44V475.91L640.96 473.17C640.96 473.17 642.33 463.58 640.96 461.53C639.59 459.48 633.42 454 630.68 466.33C630.68 466.33 619.03 461.53 612.64 464.95C612.64 464.95 608.75 464.5 611.72 460.85C614.92 457.19 616.98 454.68 619.95 453.08C623.15 451.48 625.65 453.08 625.65 449.43C625.65 445.78 627.25 441.67 624.52 440.53C622 439.39 615.61 434.83 613.55 432.31C611.5 429.81 614.69 426.61 618.12 428.21L625.42 431.41C625.42 431.41 630 432.09 625.89 427.98C621.77 423.64 618.58 422.28 617.66 420.68C616.52 419.08 617.21 411.78 613.55 411.78H606.25C606.25 411.78 606.7 406.07 606.25 404.47C605.78 402.87 599.62 399.22 599.62 399.22C599.62 399.22 597.1 395.11 597.1 391.46C597.1 387.81 589.8 379.59 583.17 373.88C576.54 368.18 570.84 366.12 570.84 366.12C570.84 366.12 566.72 360.42 571.98 358.36C577.23 356.3 579.74 349 581.8 347.4C583.86 345.8 587.97 339.19 591.17 338.05C594.37 336.9 591.62 336.45 595.73 332.34C599.85 328.23 601.44 323.44 605.1 323.44C608.75 323.44 611.27 318.19 614 318.19C616.52 318.19 619.72 321.84 622.23 315.68C623.699 312.157 624.772 308.481 625.43 304.72H616.52C616.52 304.72 611.95 304.26 609.9 304.72C607.84 305.18 598.93 304.49 598.93 304.49C598.93 304.49 593.23 296.5 589.11 298.1C585 299.7 580.89 303.8 579.29 307C577.69 310.2 577.23 316.36 569.92 315.22C562.62 314.08 558.96 313.16 560.1 309.97C561.24 306.77 562.61 305.87 562.61 304.27C562.61 302.67 560.1 303.12 560.1 301.07C560.1 299.01 564.67 299.01 558.96 297.87C553.25 296.5 552.33 295.13 549.59 297.87C547.08 300.61 542.29 300.61 541.83 298.56C541.37 296.5 539.77 294.9 538.63 291.94C537.49 288.74 540.68 293.99 537.49 288.74C534.29 283.49 530.17 267.51 540.69 272.76C550.96 278.01 549.59 271.16 558.73 271.86C568.09 272.31 564.43 267.29 564.43 265.69C564.43 264.09 564.9 259.07 566.5 257.93C568.1 256.79 575.4 250.17 576.77 249.03C578.37 247.88 582.03 244.92 583.4 241.73C585 238.53 585 228.71 588.65 228.71C592.31 228.71 600.07 224.15 602.13 228.71C604.18 233.28 609.9 236.01 606.7 240.58C602.838 246.309 599.179 252.173 595.73 258.16C593.68 261.81 598.25 263.41 598.93 265.46C599.39 267.51 594.82 265.46 594.36 270.71C593.91 275.96 596.87 280.07 599.62 277.33C602.12 274.82 620.86 251.99 627.48 250.4C634.11 248.8 641.42 248.8 649.64 237.38C657.87 225.98 670.89 218.21 671.8 215.7C672.94 213.19 676.37 196.53 681.16 200.18C685.73 203.83 695.56 204.28 698.3 203.83C700.8 203.37 707.66 200.63 703.55 194.93C699.44 189.23 701.95 187.63 704.92 186.71C707.66 185.57 713.37 182.61 716.57 181.01C719.77 179.41 722.28 179.87 722.28 175.76C722.28 171.65 724.34 160.24 727.53 165.94C730.73 171.64 736.9 176.21 736.9 170.05V161.83H741.47V136.95C741.47 136.95 729.59 118.92 735.3 115.73C735.76 115.5 735.99 115.27 736.44 115.04C680.773 64.1917 612.97 28.5065 539.54 11.4102C538.4 12.7802 537.71 14.1502 537.71 14.8402C537.71 16.4402 536.11 25.1102 536.11 25.1102C536.11 25.1102 541.37 28.3102 537.71 29.6702C534.06 31.2702 528.35 32.1802 526.75 34.9202C525.15 37.4302 513.73 45.1902 513.73 45.1902C513.73 45.1902 511.67 43.1402 505.5 41.9902C499.34 40.8602 501.85 43.1402 498.88 47.7102C495.68 52.2702 492.26 62.7702 491.58 65.2802C491.11 67.7902 484.95 73.5002 485.86 76.6902C487 79.8902 493.63 86.9702 496.14 86.5102C498.65 86.0502 502.31 85.3702 506.42 84.9102C510.53 84.4502 514.64 90.1602 516.24 86.5102C517.84 82.8602 516.24 82.8602 524.47 82.8602C532.69 82.8602 538.85 81.2602 543.65 89.0202C548.22 96.7802 558.73 101.35 553.48 104.08C548.22 106.6 550.28 108.65 544.57 106.6C538.85 104.54 533.6 103.4 533.6 103.4L524.7 106.6C524.7 106.6 517.38 107.05 516.93 108.65C516.47 110.25 511.22 113.21 511.22 113.21L505.5 115.27C505.5 115.27 498.2 125.54 498.2 127.14C498.2 128.74 496.6 133.3 496.6 133.3L490.89 134.44L483.12 139.69L473.75 141.29L460.73 152.25H444.06C444.06 152.25 435.84 147.68 432.64 149.74C429.44 151.79 425.33 160.69 425.33 162.74C425.33 164.8 429.44 169.37 430.58 170.96C431.72 172.56 432.64 179.18 432.64 179.18C432.64 179.18 429.44 184.43 428.07 184.43C426.47 184.43 420.3 186.94 420.3 186.94C420.3 186.94 414.13 190.59 412.76 193.56C411.39 196.76 410.48 199.72 405.23 201.32C399.97 202.92 404.08 199.27 399.97 202.92C395.87 206.57 384.9 206.57 378.27 207.02C371.65 207.48 350.87 209.54 344.01 211.59C337.38 213.65 330.99 222.55 321.85 221.41C312.49 220.27 319.34 217.75 312.03 217.3C304.72 216.84 303.12 219.35 298.1 216.84C292.84 214.34 291.93 212.74 288.73 210.22C285.53 207.72 285.53 204.97 278.45 204.97C271.15 204.97 266.57 198.81 266.57 198.81C266.57 198.81 262.92 192.19 247.84 192.19C232.76 192.19 230.71 193.33 224.09 190.59C217.46 188.09 210.15 185.34 203.99 184.89C197.82 184.43 180.23 184.43 180.23 184.43C180.23 184.43 178.17 177.13 175.66 172.56C173.15 168 184.56 159.09 171.09 152.47C157.61 145.85 152.36 134.9 152.36 134.9C152.36 134.9 136.37 128.05 130.43 125.54C50.93 205.66 0 317.27 0 440.99C0 456.29 0.69 471.35 2.28 486.19L14.16 480.02L24.9 484.12V484.13Z" fill="white" stroke="#02A105" stroke-width="8" mask="url(#path-1-inside-1_12_391)"/>
<path opacity="0.75" d="M190.28 492.35L198.73 505.35L204.21 498.74C204.21 498.74 213.12 505.58 213.12 505.36C213.12 504.9 215.86 511.98 215.86 511.98V518.82H224.08C224.08 518.82 231.62 522.93 231.62 527.04C231.62 531.14 239.85 545.07 241.9 549.87C243.96 554.66 248.07 560.82 248.07 560.82L255.61 555.34L262.46 556.03V546.44L267.26 532.74C267.26 532.74 274.8 531.84 275.48 526.81C276.17 521.79 276.17 515.63 278.22 514.26C280.28 512.89 287.82 505.58 287.82 505.58H293.3C293.3 505.58 288.5 511.52 293.3 516.31C298.1 521.11 301.52 522.48 301.52 522.48L309.06 518.37C309.06 518.37 306.32 529.32 309.06 531.37C311.8 533.43 304.95 539.59 298.1 537.54C291.24 535.49 286.44 534.8 285.07 535.49C283.7 536.17 277.54 540.28 277.54 540.28C277.54 540.28 283.7 545.76 280.96 547.13C278.22 548.5 281.65 552.6 285.08 552.6C288.5 552.6 291.24 545.76 293.98 551.23C296.73 556.71 292.61 563.56 292.61 565.61C292.61 567.67 294.67 578.62 294.67 578.62C294.67 578.62 293.3 585.47 293.3 592.32C293.3 599.17 296.04 597.12 300.15 599.17C304.26 601.22 309.75 605.33 309.75 605.33L317.51 609.44H325.74C325.74 609.44 327.11 614.92 325.74 616.97C324.36 619.03 316.83 622.45 316.83 622.45L313.4 629.98" stroke="#E1ECED" stroke-width="3" stroke-miterlimit="10" stroke-linecap="round" stroke-linejoin="round"/>
<path opacity="0.75" d="M294.44 595.75L312.03 589.12C312.03 589.12 321.63 594.6 323.68 595.75C325.74 596.89 329.16 593.69 331.22 592.55C333.27 591.41 340.82 585.93 340.82 585.93C340.82 585.93 338.07 575.66 344.24 578.4C350.4 581.14 356.57 587.07 356.57 587.07C356.57 587.07 359.31 588.9 361.37 587.07C363.43 585.24 367.54 576.11 371.65 577.94C375.76 579.77 380.55 579.08 382.61 577.71C384.67 576.34 394.26 572.91 394.26 572.91H402.49C402.49 572.91 403.17 556.71 405.23 561.74C407.28 566.76 412.76 566.76 412.76 566.76C412.76 566.76 416.19 559.68 418.25 561.74C420.3 564.02 428.53 561.74 428.53 561.74C428.53 561.74 432.63 568.13 432.63 570.87C432.63 573.6 429.21 582.51 429.21 582.51L425.1 592.09L432.64 588.67L436.06 598.94C436.06 598.94 438.12 595.52 440.18 595.52C442.23 595.52 444.98 598.94 444.98 598.94C444.98 598.94 447.03 608.53 444.98 610.58C442.92 612.63 432.64 620.17 432.64 620.17L431.27 636.15L423.04 642.99L420.3 651.89C420.3 651.89 415.5 649.84 412.76 656C410.02 662.17 404.54 662.17 404.54 662.17L399.06 666.96M203.3 184.89V202.23L207.87 208.4L203.3 214.56L207.87 225.52L214.72 234.42C214.72 234.42 217.46 236.47 219.52 234.42C221.57 232.36 232.54 228.94 236.19 230.31C239.62 231.68 241.67 229.4 241.67 235.33C241.67 241.26 233.45 249.48 233.45 251.76C233.45 253.82 241.67 259.98 241.67 259.98L247.84 263.41L251.95 275.73L262.92 279.84C262.92 279.84 265.66 272.99 272.52 270.94C279.36 268.88 281.88 272.31 285.08 272.31C288.28 272.31 299.47 264.09 302.21 267.51C304.95 270.94 308.37 275.73 304.95 279.84C301.52 283.94 294.21 290.34 294.21 290.34V299.7C294.21 299.7 296.04 309.97 298.1 309.29C300.15 308.6 311.11 312.71 318.88 312.71C326.42 312.71 332.58 307.91 333.96 304.49C335.33 301.07 340.81 283.04 340.81 283.04C340.81 283.04 349.71 270.71 351.77 278.93C353.83 287.14 354.52 289.2 351.77 293.31C349.03 297.41 362.05 310.65 366.85 309.29C371.65 307.91 383.53 314.76 384.21 309.29C384.9 303.81 389.01 298.33 389.01 298.33L400.66 283.26L416.65 273.68H424.19C424.19 273.68 430.35 273.68 435.15 269.57C439.95 265.46 443.37 255.87 443.37 255.87C443.37 255.87 455.02 256.56 458.45 255.87C461.88 255.19 465.3 255.87 465.3 255.87V247.2L474.21 244.23L470.79 227.57C470.79 227.57 481.75 208.17 483.8 210.91C485.86 213.65 488.6 219.81 488.6 219.81L503.68 214.33C503.68 214.33 511.9 210.23 514.64 212.28C517.38 214.33 520.12 201.32 520.12 201.32L534.52 197.9L539.32 206.8L542.05 214.33L538.63 217.07L545.48 221.87C545.48 221.87 553.7 228.03 557.13 223.92C560.56 219.81 548.91 201.78 557.13 201.78C565.35 201.78 570.15 212.73 570.15 212.73C570.15 212.73 600.53 189.23 617.89 184.2L624.74 173.47L618.58 166.63C618.58 166.63 619.95 149.96 615.15 149.96H605.55L597.33 145.17L594.59 134.9V130.1L586.37 123.94L587.05 117.1H603.5L604.18 113.67L606.24 101.34C606.24 101.34 615.84 92.4402 608.98 93.8102C602.13 95.1802 599.38 89.7102 599.38 89.7102L593.91 70.9902C593.91 70.9902 607.61 73.0402 611.95 66.1902C616.06 59.3502 621.55 57.2902 621.55 57.2902L624.97 42.9102" stroke="#E1ECED" stroke-width="3" stroke-miterlimit="10" stroke-linecap="round" stroke-linejoin="round"/>
<path opacity="0.75" d="M743.52 147.68H736.67L727.77 140.15L722.97 144.03L718.17 140.15C718.17 140.15 714.06 140.83 712.69 147.68C711.32 154.53 702.41 154.53 702.41 154.53L696.93 133.07C696.93 133.07 698.98 145.4 691.44 143.8C683.9 142.2 682.54 138.1 682.54 138.1V133.07H676.37C676.37 133.07 675 129.19 671.57 127.14C668.14 125.08 666.77 130.56 661.29 129.88C655.81 129.19 648.96 121.66 648.96 121.66L632.51 125.08L624.06 117.55L619.95 107.28H607.38M623.37 170.96L631.6 167.08C631.6 167.08 641.87 173.24 642.56 175.98C643.25 178.72 653.53 184.2 653.53 189C653.53 193.79 646.67 195.16 653.53 200.64C660.38 206.11 665.17 207.48 665.17 207.48V218.44M446.8 601.68C446.8 601.68 454.11 596.2 454.11 593.46C454.11 590.72 456.17 583.87 460.28 586.61C464.38 589.35 469.88 593.91 469.88 593.91C469.88 593.91 466.44 582.51 469.88 581.82C473.3 581.14 478.09 581.14 484.26 581.82C490.43 582.51 483.58 582.51 490.43 582.51C497.28 582.51 502.08 581.37 502.08 581.37V591.64C502.08 591.64 491.11 597.8 497.28 598.48C503.45 599.17 508.93 599.17 513.04 597.11C517.16 595.06 518.53 593.01 521.27 595.06C524.01 597.11 528.12 595.06 528.12 595.06L540.45 591.64C540.45 591.64 541.14 582.74 545.25 591.64C549.36 600.54 556.22 619.03 556.22 619.03" stroke="#E1ECED" stroke-width="3" stroke-miterlimit="10" stroke-linecap="round" stroke-linejoin="round"/>
<path opacity="0.75" d="M490.89 582.28L493.63 564.93V553.97L492.26 550.55L490.89 539.59C490.89 539.59 481.98 532.06 481.98 530.01C481.98 527.95 487.92 519.05 487.92 519.05L493.86 505.58C493.86 505.58 493.17 498.96 487.92 498.96H482.66L481.98 485.96H475.12L468.96 492.57V483.9H457.99C457.99 483.9 447.71 482.53 437.21 479.1C426.93 475.68 416.19 472.94 417.79 479.1C419.39 485.27 417.56 488 417.56 488C417.56 488 415.73 485.95 409.56 485.95C403.4 485.95 398.6 490.75 397.92 498.96C397.23 507.18 399.29 519.74 397.92 524.53C396.55 529.33 397.69 534.8 397.69 534.8L388.78 540.96V543.7L396.32 544.39L400.43 547.81L397 556.03L398.37 572.69" stroke="#E1ECED" stroke-width="3" stroke-miterlimit="10" stroke-linecap="round" stroke-linejoin="round"/>
<path opacity="0.75" d="M398.14 518.14H388.78L377.13 509.92C377.13 509.92 381.93 500.33 377.13 500.33H367.53C367.53 500.33 363.43 495.54 360.68 500.33C357.94 505.13 354.52 505.58 354.52 505.58L348.35 508.32V512.89L340.81 512.2L330.53 508.32C330.53 508.32 327.56 510.15 327.79 513.57C327.79 517 334.19 523.16 334.19 523.16L331.44 528.86H317.74L310.89 534.12M337.61 505.36C337.61 505.36 330.07 503.53 330.07 498.06C330.07 492.57 319.8 493.94 321.85 488.46C323.91 482.99 326.42 484.36 327.33 480.25C328.02 476.14 325.05 471.35 329.62 471.35C334.19 471.35 335.56 479.79 337.62 475.23C339.67 470.66 347.21 471.35 347.21 471.35C347.21 471.35 351.77 474.31 354.06 475.23C356.12 476.13 361.14 471.35 361.14 471.35V461.75C361.14 461.75 371.42 460.39 370.74 457.65C370.04 454.91 377.13 449.43 377.13 449.43L380.56 443.27V429.57H370.73C370.73 429.57 354.74 424.1 354.06 421.36C353.37 418.62 338.98 418.62 334.87 416.56C330.76 414.51 322.54 417.25 318.88 416.56C315.45 415.88 307.23 421.81 305.86 415.88C304.49 409.72 307.92 406.98 305.86 402.87C303.81 398.77 300.38 396.71 297.64 395.34C294.9 393.97 285.3 390.54 285.3 390.54C285.3 390.54 285.76 380.96 282.33 380.27C278.91 379.59 276.85 374.11 274.11 380.27C271.37 386.44 267.26 390.54 267.26 390.54C267.26 390.54 272.06 394.65 267.26 396.71C264.379 397.94 261.559 399.309 258.81 400.81L251.95 400.13" stroke="#E1ECED" stroke-width="3" stroke-miterlimit="10" stroke-linecap="round" stroke-linejoin="round"/>
<path opacity="0.75" d="M318.88 313.4C318.88 313.4 325.73 318.42 327.11 323.9C328.48 329.37 326.42 334.17 327.11 336.22C327.79 338.27 327.33 341.7 327.56 346.49C327.79 351.29 335.33 357.45 338.06 358.13C340.81 358.82 346.98 364.98 346.98 364.98C346.98 364.98 342.18 372.28 342.18 376.62C342.18 380.96 345.61 380.96 346.98 381.64C348.35 382.33 346.98 386.44 346.98 387.12C346.98 387.81 350.18 387.81 347.66 391.92C344.92 396.02 344.24 401.5 344.24 401.5C344.24 401.5 333.5 397.4 333.73 401.5C333.96 405.6 333.73 412.46 333.73 412.46" stroke="#E1ECED" stroke-width="3" stroke-miterlimit="10" stroke-linecap="round" stroke-linejoin="round"/>
<path opacity="0.75" d="M345.15 362.93C345.15 362.93 341.72 354.71 349.03 354.03C356.34 353.33 357.03 345.81 357.03 345.81L349.03 336.21C349.03 336.21 349.26 329.37 349.03 327.31C348.81 325.26 353.37 320.47 354.29 320.47H361.37L367.54 310.2M526.52 595.52V582.28L532.92 573.38L537.02 560.59L540.45 555.57V550.77C540.45 550.77 541.14 545.99 543.88 544.62C546.62 543.25 550.05 535.02 550.05 534.34C550.05 533.66 542.51 523.39 550.05 521.79C557.59 520.42 563.75 521.11 566.04 519.05C568.09 517 571.52 510.15 574.94 510.15C578.37 510.15 581.11 508.1 583.17 516.31C585.23 524.53 590.71 528.87 590.71 528.87L594.82 522.47C594.82 522.47 600.3 518.37 600.99 522.47C601.67 526.58 606.24 528.87 606.24 528.87L616.74 527.95" stroke="#E1ECED" stroke-width="3" stroke-miterlimit="10" stroke-linecap="round" stroke-linejoin="round"/>
<path opacity="0.75" d="M574.95 509.92V498.05L564.67 489.15C564.67 489.15 567.41 484.35 564.67 482.99C561.93 481.62 561.7 480.25 556.9 479.56C552.1 478.88 546.62 472.94 544.57 475.23L542.51 477.51L538.4 474.77L533.6 475.23C533.6 475.23 523.32 478.88 518.52 480.25C513.72 481.62 502.08 486.41 502.08 486.41L490.88 498.05M394.26 498.05C394.26 498.05 388.1 494.17 388.78 492.35C389.47 490.52 385.35 484.35 385.35 484.35L380.55 481.62V474.54C380.55 474.54 383.3 467.69 388.78 467.69C394.26 467.69 397 469.06 401.12 467.69C405.22 466.32 413.45 458.11 413.45 458.11L405.91 447.15V438.25L397.01 435.51L380.33 429.35M361.14 320.24L364.57 323.89L376.9 332.11C376.9 332.11 377.59 336.91 380.33 339.64C383.07 342.38 383.75 344.44 383.75 347.86C383.75 351.28 384.44 357.45 383.75 358.82C383.07 360.19 376.9 362.92 376.9 362.92C376.9 362.92 367.3 362.24 367.3 365.66C367.3 369.09 368 371.83 363.88 371.83C359.77 371.83 354.06 368.4 354.06 368.4L347.21 364.98M428.75 273.45C428.75 273.45 433.55 286.92 428.75 290.8C423.95 294.68 416.88 298.1 417.56 300.38C418.48 302.44 425.1 305.86 424.19 309.97C423.27 314.07 421.22 320.24 421.22 320.24C421.22 320.24 417.56 325.04 417.56 328.46C417.79 331.88 417.33 345.12 417.56 346.03C417.79 347.18 420.07 354.71 417.56 358.82C415.05 362.92 408.88 379.59 413.68 379.59C418.48 379.59 416.42 379.36 428.07 376.62C439.72 374.11 447.26 371.37 447.03 368.4C446.8 365.66 449.54 364.98 455.71 362.93C461.88 360.87 469.41 358.82 472.38 353.33C475.13 347.86 477.18 336.45 477.18 336.45C477.18 336.45 472.38 330.05 473.75 326.4C475.13 322.98 475.81 318.19 477.18 313.17C478.55 308.37 482.66 307 477.18 300.84C471.7 294.68 471.7 285.78 471.7 285.78C471.7 285.78 478.55 280.98 479.92 279.61C481.29 278.24 484.72 276.19 485.4 270.71C486.09 265.23 478.55 260.44 478.55 260.44C478.55 260.44 480.61 269.34 481.29 256.33C481.98 243.32 478.55 243.32 478.55 243.32L475.12 244.69M543.65 296.96L540.45 300.16C540.45 300.16 535.65 302.21 532.92 304.26C530.17 306.32 514.18 313.16 514.18 313.16L510.08 323.66L505.28 335.99C505.28 335.99 501.17 338.73 505.28 340.79C509.38 342.84 512.82 346.03 512.82 346.03C512.82 346.03 514.87 347.86 512.13 349.23C509.39 350.6 510.53 349.23 503.45 356.08C496.37 362.93 491.57 358.82 496.37 362.93C501.17 367.03 503.22 363.61 506.65 369.09C510.07 374.57 518.98 376.62 518.98 376.62C518.98 376.62 521.49 367.72 526.52 367.72C531.55 367.72 536.34 371.14 539.08 371.82C541.83 372.52 542.51 380.5 545.94 376.39C549.36 372.51 555.3 369.09 556.9 371.83C558.028 373.624 559.503 375.175 561.24 376.39L566.72 368.18L572.66 363.84" stroke="#E1ECED" stroke-width="3" stroke-miterlimit="10" stroke-linecap="round" stroke-linejoin="round"/>
<path opacity="0.75" d="M623.37 436.88L616.97 448.29C616.97 448.29 612.18 451.72 610.12 451.72C608.07 451.72 599.85 444.18 599.85 444.18C599.85 444.18 597.1 438.7 595.05 444.18C592.99 449.66 589.57 459.93 589.57 459.93C589.57 459.93 593.67 463.36 589.57 463.36C585.45 463.36 578.6 461.99 579.29 466.1L579.97 470.2L575.17 477.74L566.04 484.58M400.43 436.42V425.01C400.43 425.01 411.39 420.91 411.85 420.21C412.31 419.53 411.85 416.11 411.85 416.11L406.14 412.68L400.43 407.66C400.43 407.66 403.63 407.43 406.14 407.66C408.65 407.89 413.22 405.38 417.56 407.66C421.9 409.94 432.18 412.68 432.18 412.68M432.18 412.68L428.75 402.41L424.65 394.2L417.56 379.82M432.18 412.68C432.18 412.68 439.72 422.28 441.08 422.28C442.46 422.28 446.58 430.48 457.08 429.12C463.424 428.257 469.688 426.883 475.81 425.01L479.92 429.11C479.92 429.11 483.58 435.28 485.4 436.42C487.46 437.34 491.8 438.25 494.54 440.99C497.28 443.73 510.3 447.84 510.3 447.84C510.3 447.84 515.78 446.47 517.84 447.84C519.9 449.21 529.72 451.94 526.52 454.68C523.32 457.42 515.78 456.97 519.22 461.08C522.64 465.18 526.29 469.29 526.52 471.35C526.75 473.4 526.52 477.74 526.52 477.74" stroke="#E1ECED" stroke-width="3" stroke-miterlimit="10" stroke-linecap="round" stroke-linejoin="round"/>
<path opacity="0.75" d="M526.52 367.72C526.52 367.72 531.32 377.99 533.6 379.36C535.89 380.73 547.53 384.84 547.53 384.84L557.13 389.64C557.13 389.64 556.22 395.79 557.13 399.22C558.04 402.64 565.13 412.92 566.03 412.22C566.95 411.54 572.66 412.22 572.66 412.22C572.66 412.22 578.6 402.18 579.29 407.66C579.97 412.91 579.29 414.96 575.17 415.66C571.07 416.34 577 416.34 571.97 421.13C566.95 425.93 563.75 421.82 566.04 428.66C568.32 435.51 570.38 435.96 572.66 436.42C575.17 436.88 573.8 437.11 575.17 440.53C576.55 443.96 580.66 443.27 582.71 444.64C584.77 446.01 595.05 443.95 595.05 443.95M527.2 371.83C527.2 371.83 522.64 375.71 522.64 376.39C522.64 377.31 526.29 373.89 527.21 379.36C528.11 384.84 529.03 388.26 526.52 390.31L524.01 392.37L516.47 386.89C516.47 386.89 512.36 390.32 512.36 392.37C512.36 394.42 516.47 401.27 512.36 401.96C508.25 402.64 506.88 407.66 506.88 407.66C506.88 407.66 495.23 407.43 499.34 412.23C503.44 417.03 513.5 420.44 513.5 420.44C513.5 420.44 522.18 421.13 522.18 423.87C522.18 426.61 525.61 435.97 522.18 436.42C518.75 436.88 514.41 430.49 513.5 436.42C512.59 442.36 510.53 447.15 510.53 447.15M532.92 251.3C532.92 251.3 533.15 249.71 532.92 247.2C532.69 244.69 535.89 239.9 535.89 239.9C535.89 239.9 536.8 237.84 532.92 237.84C529.03 237.84 526.52 234.64 526.52 234.64C526.52 234.64 517.84 232.59 515.1 234.64C512.59 236.7 506.2 242.41 506.2 242.41V251.08C506.2 251.08 510.3 255.18 506.2 255.64C502.08 256.1 496.6 259.3 497.97 260.89C499.34 262.49 495.68 265 502.54 266.6C509.16 268.2 514.87 271.17 521.27 269.11C527.43 267.06 530.63 263.41 530.63 263.41L532.92 251.31V251.3Z" stroke="#E1ECED" stroke-width="3" stroke-miterlimit="10" stroke-linecap="round" stroke-linejoin="round"/>
<path opacity="0.75" d="M546.16 270.25V262.95H542.96L539.76 256.1C539.76 256.1 538.63 247.43 535.66 249.48C532.69 251.54 527.66 249.71 526.29 252.22C524.69 254.73 528.35 262.72 526.29 265.46C524.24 268.43 527.43 270.02 525.84 275.73C524.24 281.43 520.12 277.79 524.24 281.43C528.34 285.09 538.17 284.63 538.17 284.63M174.97 505.36H187.08V490.52C187.08 490.52 191.19 494.62 193.25 490.52C195.3 486.42 198.73 463.58 198.73 463.58C198.73 463.58 193.25 445.55 193.25 442.81C193.25 440.07 198.73 438.02 198.73 438.02L191.19 428.43L186.85 414.73L182.74 411.31H172L168.58 418.16L158.98 422.27H157.61C156.24 422.27 150.76 418.17 150.76 418.17L142.54 422.27C142.54 422.27 138.43 420.9 134.31 414.05C130.21 407.21 126.78 405.84 123.35 403.1C119.92 400.36 115.13 403.1 115.13 403.1L98.4502 397.62C98.4502 397.62 87.4902 390.77 87.4902 386.66C87.4902 382.56 74.4702 386.66 74.4702 386.66C74.4702 386.66 68.3002 376.39 66.2402 372.28C64.1902 368.18 54.5902 375.02 50.2502 372.28C46.1502 369.54 45.4502 361.33 45.4502 361.33L40.6602 351.06L45.4602 342.16L40.6602 338.73V329.83C40.6602 329.83 44.7702 322.98 46.1402 320.93C47.5102 318.87 50.2502 310.65 50.2502 310.65" stroke="#E1ECED" stroke-width="3" stroke-miterlimit="10" stroke-linecap="round" stroke-linejoin="round"/>
<path opacity="0.75" d="M178.86 411.31L175.43 403.78L178.86 392.83C178.86 392.83 179.31 379.13 182.74 379.13C186.4 379.13 198.73 382.56 198.73 382.56L203.53 395.34C206.27 402.64 211.06 412.91 215.18 411.54C219.28 410.17 222.71 404.69 222.71 404.69L230.94 411.77L237.1 416.57L243.96 408.12L251.5 404.92V395.34L243.96 389.17L239.85 379.59C239.85 379.59 246.7 375.48 251.5 379.59C256.3 383.69 264.52 382.09 262.46 377.76C260.4 373.43 262.69 370 262.69 370L265.89 365.9L269.99 357.68L276.85 352.88V344.21L284.62 341.47C284.62 341.47 281.65 328.69 277.54 323.67C273.42 318.64 268.63 307 268.63 307L267.94 303.58H261.77C261.77 303.58 248.76 298.78 245.79 295.36C243.04 291.94 236.19 283.04 236.19 283.04L229.79 290.8L213.58 267.06L198.5 269.8L190.96 262.95H182.51V267.05L178.63 275.96L172.46 282.81L163.56 282.12L154.64 276.64L148.48 274.59L142.99 275.28V270.48L138.19 266.38L129.97 267.06V262.95H123.81L112.84 256.1" stroke="#E1ECED" stroke-width="3" stroke-miterlimit="10" stroke-linecap="round" stroke-linejoin="round"/>
<path d="M114 241C176.804 380.461 242.998 356.487 333 385.5C408.874 409.962 382.501 492.846 583.524 485.847" stroke="#02A105" stroke-width="3" stroke-dasharray="10 10"/>
<path d="M113 238C162.193 440.258 209.805 407.396 276.068 451.38C331.93 488.465 314.778 607.091 461 602" stroke="#02A105" stroke-width="3" stroke-dasharray="10 10"/>
<path d="M93 220C81.5 220 80 218.955 72.5 221C66.5 222.636 63 224 55 230" stroke="#02A105" stroke-width="3" stroke-dasharray="10 10"/>
<path d="M494 272.789C348.5 351.5 147 380.5 20 312.544" stroke="#042136" stroke-width="3" stroke-dasharray="10 10"/>
<path d="M509.28 273.82C510.78 273.82 512.265 273.525 513.65 272.951C515.036 272.377 516.295 271.536 517.355 270.475C518.415 269.415 519.257 268.156 519.831 266.77C520.404 265.385 520.7 263.9 520.7 262.4C520.7 260.9 520.404 259.415 519.831 258.03C519.257 256.644 518.415 255.385 517.355 254.325C516.295 253.264 515.036 252.423 513.65 251.849C512.265 251.275 510.78 250.98 509.28 250.98C506.251 250.98 503.346 252.183 501.205 254.325C499.063 256.466 497.86 259.371 497.86 262.4C497.86 265.429 499.063 268.333 501.205 270.475C503.346 272.617 506.251 273.82 509.28 273.82Z" fill="white" stroke="#042136" stroke-width="2" stroke-miterlimit="10"/>
<path d="M509.28 268.8C510.141 268.834 511 268.694 511.806 268.388C512.611 268.082 513.347 267.616 513.968 267.019C514.589 266.422 515.084 265.705 515.421 264.912C515.759 264.119 515.933 263.267 515.933 262.405C515.933 261.543 515.759 260.69 515.421 259.897C515.084 259.105 514.589 258.388 513.968 257.791C513.347 257.194 512.611 256.728 511.806 256.422C511 256.116 510.141 255.976 509.28 256.01C507.628 256.075 506.065 256.778 504.919 257.97C503.773 259.162 503.133 260.751 503.133 262.405C503.133 264.058 503.773 265.648 504.919 266.84C506.065 268.032 507.628 268.735 509.28 268.8Z" fill="#042136"/>
<path d="M482.775 622C486.813 622 490.685 620.42 493.541 617.607C496.396 614.794 498 610.978 498 607C498 603.022 496.396 599.206 493.541 596.393C490.685 593.58 486.813 592 482.775 592C478.817 592.115 475.06 593.746 472.301 596.545C469.543 599.344 468 603.092 468 606.993C468 610.895 469.543 614.643 472.301 617.442C475.06 620.241 478.817 621.871 482.775 621.987V622Z" fill="white" stroke="#02A105" stroke-width="2" stroke-miterlimit="10"/>
<path d="M482.605 616.992C483.95 617.045 485.293 616.826 486.551 616.348C487.81 615.87 488.959 615.143 489.93 614.209C490.901 613.276 491.673 612.157 492.2 610.918C492.728 609.679 493 608.346 493 607C493 605.654 492.728 604.321 492.2 603.082C491.673 601.843 490.901 600.724 489.93 599.791C488.959 598.857 487.81 598.13 486.551 597.652C485.293 597.174 483.95 596.955 482.605 597.008C480.023 597.11 477.581 598.207 475.791 600.07C474 601.933 473 604.416 473 607C473 609.584 474 612.067 475.791 613.93C477.581 615.793 480.023 616.89 482.605 616.992Z" fill="#02A105"/>
<path d="M601.99 499C603.96 499.001 605.912 498.614 607.732 497.861C609.553 497.108 611.207 496.004 612.601 494.611C613.995 493.219 615.101 491.566 615.855 489.746C616.61 487.927 616.999 485.976 617 484.007C617.001 482.037 616.614 480.086 615.86 478.266C615.107 476.446 614.003 474.791 612.61 473.398C611.218 472.004 609.564 470.899 607.744 470.144C605.924 469.39 603.974 469.001 602.003 469C598.024 469 594.208 470.58 591.394 473.393C588.581 476.206 587 480.022 587 484C587 487.978 588.581 491.794 591.394 494.607C594.208 497.42 598.024 499 602.003 499H601.99Z" stroke="#02A105" stroke-width="2" stroke-miterlimit="10"/>
<path d="M601.527 493.984C602.874 494.06 604.222 493.859 605.489 493.391C606.756 492.924 607.916 492.201 608.896 491.266C609.876 490.331 610.657 489.205 611.191 487.956C611.725 486.706 612 485.36 612 484C612 482.64 611.725 481.294 611.191 480.044C610.657 478.795 609.876 477.669 608.896 476.734C607.916 475.799 606.756 475.076 605.489 474.609C604.222 474.141 602.874 473.94 601.527 474.016C598.966 474.118 596.544 475.215 594.768 477.078C592.992 478.941 592 481.424 592 484.008C592 486.592 592.992 489.075 594.768 490.938C596.544 492.8 598.966 493.898 601.527 494V493.984Z" fill="#02A105"/>
<path d="M94.9902 241C98.9693 241.002 102.786 239.423 105.601 236.611C108.416 233.799 109.998 229.985 110 226.007C110.002 222.028 108.423 218.212 105.61 215.398C102.798 212.584 98.9824 211.002 95.0033 211C91.0242 211 87.208 212.58 84.3944 215.393C81.5807 218.206 80 222.022 80 226C80 229.978 81.5807 233.794 84.3944 236.607C87.208 239.42 91.0242 241 95.0033 241H94.9902Z" fill="white" stroke="#02A105" stroke-width="2" stroke-miterlimit="10"/>
<path d="M94.4412 235.984C95.7993 236.06 97.1587 235.859 98.4362 235.391C99.7136 234.924 100.882 234.201 101.871 233.266C102.859 232.331 103.646 231.205 104.184 229.956C104.722 228.706 105 227.36 105 226C105 224.64 104.722 223.294 104.184 222.044C103.646 220.795 102.859 219.669 101.871 218.734C100.882 217.799 99.7136 217.076 98.4362 216.609C97.1587 216.141 95.7993 215.94 94.4412 216.016C91.8898 216.158 89.4898 217.273 87.734 219.129C85.9783 220.986 85 223.445 85 226C85 228.555 85.9783 231.014 87.734 232.871C89.4898 234.727 91.8898 235.842 94.4412 235.984Z" fill="#02A105"/>
<path d="M564.82 504.4L560.66 512.54V518H558.26V512.58L554.06 504.4H556.62L559.56 510.2L562.34 504.4H564.82ZM568.819 505.94H566.399V503.56H568.819V505.94ZM568.759 518H566.459V507.86H568.759V518ZM584.548 507.86L581.948 518H579.448L577.768 510.38L575.988 518H573.488L570.888 507.86H573.248L574.228 511.88L574.908 515.54L576.628 507.86H578.948L580.728 515.62L581.368 511.9L582.328 507.86H584.548ZM592.714 518V516.66C592.1 517.193 591.527 517.587 590.994 517.84C590.46 518.08 589.92 518.2 589.374 518.2C588.467 518.2 587.767 517.893 587.274 517.28C586.78 516.653 586.534 515.78 586.534 514.66V507.86H588.834V514.38C588.834 515.5 589.247 516.06 590.074 516.06C590.407 516.06 590.767 515.98 591.154 515.82C591.554 515.66 592.034 515.353 592.594 514.9V507.86H594.894V518H592.714Z" fill="#1E1E1E"/>
<path d="M382.88 638.12C382.547 638.32 381.993 638.553 381.22 638.82C380.46 639.073 379.567 639.2 378.54 639.2C377.38 639.2 376.407 638.96 375.62 638.48C374.847 638 374.26 637.34 373.86 636.5C373.46 635.66 373.26 634.7 373.26 633.62V630.76C373.26 629.653 373.46 628.687 373.86 627.86C374.26 627.02 374.853 626.367 375.64 625.9C376.44 625.433 377.44 625.2 378.64 625.2C379.227 625.2 379.833 625.267 380.46 625.4C381.087 625.52 381.773 625.747 382.52 626.08L381.78 628.18C381.127 627.927 380.56 627.747 380.08 627.64C379.613 627.52 379.147 627.46 378.68 627.46C377.64 627.46 376.887 627.76 376.42 628.36C375.953 628.947 375.72 629.747 375.72 630.76V633.62C375.72 634.58 375.953 635.367 376.42 635.98C376.9 636.593 377.647 636.9 378.66 636.9C378.967 636.9 379.3 636.873 379.66 636.82C380.02 636.767 380.367 636.693 380.7 636.6V633.62H378.5V631.52H382.88V638.12ZM391.671 639V637.66C391.057 638.193 390.484 638.587 389.951 638.84C389.417 639.08 388.877 639.2 388.331 639.2C387.424 639.2 386.724 638.893 386.231 638.28C385.737 637.653 385.491 636.78 385.491 635.66V628.86H387.791V635.38C387.791 636.5 388.204 637.06 389.031 637.06C389.364 637.06 389.724 636.98 390.111 636.82C390.511 636.66 390.991 636.353 391.551 635.9V628.86H393.851V639H391.671ZM404.698 639.1C404.018 639.1 403.471 638.96 403.058 638.68C402.658 638.4 402.364 638.053 402.178 637.64C401.604 638.173 401.051 638.567 400.518 638.82C399.984 639.073 399.411 639.2 398.798 639.2C397.904 639.2 397.244 638.913 396.818 638.34C396.404 637.767 396.198 637.04 396.198 636.16C396.198 635.573 396.304 635.06 396.518 634.62C396.744 634.167 397.111 633.813 397.618 633.56C398.124 633.307 398.818 633.18 399.698 633.18C400.044 633.18 400.404 633.207 400.778 633.26C401.151 633.3 401.524 633.353 401.898 633.42V632.24C401.898 631.68 401.744 631.3 401.438 631.1C401.131 630.887 400.718 630.78 400.198 630.78C399.798 630.78 399.358 630.833 398.878 630.94C398.411 631.047 397.904 631.213 397.358 631.44L396.698 629.48C398.044 628.933 399.264 628.66 400.358 628.66C401.344 628.66 402.104 628.827 402.638 629.16C403.184 629.493 403.564 629.933 403.778 630.48C403.991 631.027 404.098 631.613 404.098 632.24V636.14C404.098 636.34 404.151 636.533 404.258 636.72C404.378 636.893 404.604 636.98 404.938 636.98H405.158V639.1H404.698ZM398.418 636.12C398.418 636.48 398.498 636.767 398.658 636.98C398.818 637.18 399.051 637.28 399.358 637.28C399.664 637.28 400.011 637.2 400.398 637.04C400.784 636.88 401.284 636.507 401.898 635.92V635.06C401.204 634.94 400.524 634.88 399.858 634.88C399.338 634.88 398.964 634.987 398.738 635.2C398.524 635.413 398.418 635.72 398.418 636.12ZM412.114 630.8C411.781 630.8 411.401 630.88 410.974 631.04C410.548 631.2 410.041 631.513 409.454 631.98V639H407.154V628.86H409.334V630.22C409.961 629.673 410.554 629.28 411.114 629.04C411.674 628.787 412.241 628.66 412.814 628.66C413.788 628.66 414.528 628.973 415.034 629.6C415.541 630.213 415.794 631.08 415.794 632.2V639H413.494V632.48C413.494 631.36 413.034 630.8 412.114 630.8ZM427.254 640.02C427.254 641.1 426.827 641.94 425.974 642.54C425.134 643.153 423.961 643.46 422.454 643.46C421.747 643.46 421.001 643.38 420.214 643.22C419.427 643.06 418.701 642.793 418.034 642.42L418.694 640.6C419.334 640.92 419.967 641.147 420.594 641.28C421.221 641.427 421.834 641.5 422.434 641.5C423.274 641.5 423.914 641.387 424.354 641.16C424.794 640.933 425.014 640.633 425.014 640.26C425.014 639.687 424.674 639.4 423.994 639.4H421.594C420.941 639.4 420.414 639.293 420.014 639.08C419.614 638.867 419.321 638.593 419.134 638.26C418.947 637.913 418.854 637.553 418.854 637.18C418.854 636.793 418.934 636.433 419.094 636.1C419.267 635.753 419.501 635.433 419.794 635.14C419.314 634.847 418.927 634.453 418.634 633.96C418.354 633.467 418.214 632.873 418.214 632.18C418.214 631.393 418.381 630.74 418.714 630.22C419.047 629.7 419.501 629.313 420.074 629.06C420.661 628.793 421.307 628.66 422.014 628.66H422.354C422.621 628.66 422.881 628.68 423.134 628.72C423.387 628.747 423.627 628.793 423.854 628.86H427.474V630.82L425.474 630.5C425.674 630.713 425.827 630.98 425.934 631.3C426.054 631.607 426.114 631.987 426.114 632.44C426.114 633.12 425.941 633.707 425.594 634.2C425.261 634.68 424.807 635.053 424.234 635.32C423.674 635.573 423.047 635.7 422.354 635.7H422.014C421.747 635.7 421.494 635.68 421.254 635.64C421.107 635.8 421.001 635.967 420.934 636.14C420.867 636.3 420.834 636.453 420.834 636.6C420.834 637.067 421.134 637.3 421.734 637.3H424.174C425.094 637.3 425.834 637.54 426.394 638.02C426.967 638.487 427.254 639.153 427.254 640.02ZM422.354 633.82C422.767 633.82 423.127 633.68 423.434 633.4C423.754 633.12 423.914 632.713 423.914 632.18C423.914 631.647 423.754 631.24 423.434 630.96C423.127 630.68 422.767 630.54 422.354 630.54H422.014C421.587 630.54 421.214 630.68 420.894 630.96C420.587 631.24 420.434 631.647 420.434 632.18C420.434 632.713 420.587 633.12 420.894 633.4C421.214 633.68 421.587 633.82 422.014 633.82H422.354ZM435.819 637V639H428.579V637.2L432.859 630.86H428.779V628.86H435.619V630.66L431.339 637H435.819ZM443.052 630.8C442.718 630.8 442.338 630.88 441.912 631.04C441.485 631.2 440.978 631.513 440.392 631.98V639H438.092V624.2H440.392V630.12C441.005 629.6 441.578 629.227 442.112 629C442.645 628.773 443.192 628.66 443.752 628.66C444.725 628.66 445.465 628.973 445.972 629.6C446.478 630.213 446.732 631.08 446.732 632.2V639H444.432V632.48C444.432 631.36 443.972 630.8 443.052 630.8ZM458.071 633.32V634.52C458.071 635.933 457.685 637.067 456.911 637.92C456.138 638.773 455.045 639.2 453.631 639.2C452.218 639.2 451.125 638.773 450.351 637.92C449.578 637.067 449.191 635.933 449.191 634.52V633.32C449.191 631.907 449.571 630.78 450.331 629.94C451.105 629.087 452.205 628.66 453.631 628.66C455.058 628.66 456.151 629.087 456.911 629.94C457.685 630.78 458.071 631.907 458.071 633.32ZM455.711 633.32C455.711 632.507 455.531 631.873 455.171 631.42C454.811 630.953 454.298 630.72 453.631 630.72C452.965 630.72 452.451 630.953 452.091 631.42C451.731 631.873 451.551 632.507 451.551 633.32V634.52C451.551 635.333 451.731 635.973 452.091 636.44C452.451 636.907 452.965 637.14 453.631 637.14C454.298 637.14 454.811 636.907 455.171 636.44C455.531 635.973 455.711 635.333 455.711 634.52V633.32ZM466.69 639V637.66C466.077 638.193 465.504 638.587 464.97 638.84C464.437 639.08 463.897 639.2 463.35 639.2C462.444 639.2 461.744 638.893 461.25 638.28C460.757 637.653 460.51 636.78 460.51 635.66V628.86H462.81V635.38C462.81 636.5 463.224 637.06 464.05 637.06C464.384 637.06 464.744 636.98 465.13 636.82C465.53 636.66 466.01 636.353 466.57 635.9V628.86H468.87V639H466.69Z" fill="#1E1E1E"/>
<path d="M43.56 255.4H46.02V264.12C46.02 265 46.2133 265.693 46.6 266.2C46.9867 266.693 47.6067 266.94 48.46 266.94C49.3133 266.94 49.9333 266.693 50.32 266.2C50.7067 265.693 50.9 265 50.9 264.12V255.4H53.36V264.12C53.36 265.653 52.9533 266.887 52.14 267.82C51.3267 268.74 50.1 269.2 48.46 269.2C46.8067 269.2 45.5733 268.74 44.76 267.82C43.96 266.887 43.56 265.653 43.56 264.12V255.4ZM62.2297 260.96C61.603 260.96 61.003 261.06 60.4297 261.26C59.8697 261.447 59.3297 261.753 58.8097 262.18V269H56.5097V258.86H58.6897V260.42C59.3697 259.78 59.9764 259.327 60.5097 259.06C61.043 258.793 61.6164 258.66 62.2297 258.66V260.96ZM70.2841 269V267.66C69.6707 268.193 69.0974 268.587 68.5641 268.84C68.0307 269.08 67.4907 269.2 66.9441 269.2C66.0374 269.2 65.3374 268.893 64.8441 268.28C64.3507 267.653 64.1041 266.78 64.1041 265.66V258.86H66.4041V265.38C66.4041 266.5 66.8174 267.06 67.6441 267.06C67.9774 267.06 68.3374 266.98 68.7241 266.82C69.1241 266.66 69.6041 266.353 70.1641 265.9V258.86H72.4641V269H70.2841ZM77.9308 261.98V269H75.6308V258.86H77.8108V260.2C78.4374 259.653 79.0174 259.26 79.5508 259.02C80.0841 258.78 80.6308 258.66 81.1908 258.66C82.4308 258.66 83.2774 259.207 83.7308 260.3C84.3974 259.713 85.0174 259.293 85.5908 259.04C86.1641 258.787 86.7441 258.66 87.3308 258.66C88.2641 258.66 88.9774 258.973 89.4708 259.6C89.9641 260.213 90.2108 261.08 90.2108 262.2V269H87.9108V262.48C87.9108 261.36 87.4841 260.8 86.6308 260.8C86.2974 260.8 85.9308 260.88 85.5308 261.04C85.1308 261.2 84.6441 261.513 84.0708 261.98V269H81.7708V262.48C81.7708 261.36 81.3441 260.8 80.4908 260.8C80.1574 260.8 79.7908 260.88 79.3908 261.04C78.9908 261.2 78.5041 261.513 77.9308 261.98ZM101.368 259.86V273.26H99.068V267.66C98.4546 268.273 97.928 268.687 97.488 268.9C97.048 269.1 96.5946 269.2 96.128 269.2C95.0613 269.2 94.228 268.787 93.628 267.96C93.0413 267.133 92.748 265.973 92.748 264.48V263.4C92.748 261.947 93.108 260.793 93.828 259.94C94.5613 259.087 95.6146 258.66 96.988 258.66C98.428 258.66 99.888 259.06 101.368 259.86ZM95.108 264.48C95.108 265.373 95.248 266.027 95.528 266.44C95.8213 266.853 96.228 267.06 96.748 267.06C97.068 267.06 97.4013 266.967 97.748 266.78C98.108 266.593 98.548 266.227 99.068 265.68V261.14C98.708 260.993 98.3746 260.887 98.068 260.82C97.7746 260.753 97.4813 260.72 97.188 260.72C96.4546 260.72 95.9213 260.96 95.588 261.44C95.268 261.92 95.108 262.573 95.108 263.4V264.48ZM106.819 256.94H104.399V254.56H106.819V256.94ZM106.759 269H104.459V258.86H106.759V269Z" fill="#1E1E1E"/>
<path d="M488.504 298V287.12H492.088C493.229 287.12 494.083 287.408 494.648 287.984C495.224 288.56 495.512 289.328 495.512 290.288V291.136C495.512 292.096 495.224 292.869 494.648 293.456C494.083 294.032 493.229 294.32 492.088 294.32H490.424V298H488.504ZM492.088 288.96H490.424V292.48H492.088C492.557 292.48 492.915 292.363 493.16 292.128C493.416 291.893 493.544 291.563 493.544 291.136V290.288C493.544 289.872 493.416 289.547 493.16 289.312C492.915 289.077 492.557 288.96 492.088 288.96ZM503.455 297.536C502.901 297.76 502.378 297.92 501.887 298.016C501.397 298.112 500.933 298.16 500.495 298.16C499.29 298.16 498.378 297.819 497.759 297.136C497.141 296.453 496.831 295.547 496.831 294.416V293.456C496.831 292.699 496.97 292.043 497.247 291.488C497.525 290.933 497.919 290.501 498.431 290.192C498.943 289.883 499.546 289.728 500.239 289.728C500.805 289.728 501.333 289.845 501.823 290.08C502.325 290.304 502.73 290.661 503.039 291.152C503.359 291.632 503.519 292.251 503.519 293.008C503.519 293.232 503.503 293.472 503.471 293.728C503.439 293.973 503.386 294.235 503.311 294.512H498.607C498.629 295.173 498.794 295.669 499.103 296C499.413 296.331 499.909 296.496 500.591 296.496C500.954 296.496 501.327 296.453 501.711 296.368C502.106 296.283 502.511 296.155 502.927 295.984L503.455 297.536ZM500.239 291.28C499.749 291.28 499.365 291.44 499.087 291.76C498.821 292.069 498.666 292.517 498.623 293.104H501.695C501.706 293.051 501.711 293.003 501.711 292.96C501.711 292.907 501.711 292.859 501.711 292.816C501.711 292.304 501.567 291.92 501.279 291.664C500.991 291.408 500.645 291.28 500.239 291.28ZM510.487 298L508.487 294.624C508.167 294.944 507.831 295.264 507.479 295.584V298H505.639V286.16H507.479V293.552C508.087 292.933 508.61 292.341 509.047 291.776C509.495 291.2 509.906 290.571 510.279 289.888H512.391C512.039 290.528 511.655 291.136 511.239 291.712C510.823 292.288 510.364 292.869 509.863 293.456L512.711 298H510.487ZM516.043 288.352H514.107V286.448H516.043V288.352ZM515.995 298H514.155V289.888H515.995V298ZM522.498 291.44C522.231 291.44 521.927 291.504 521.586 291.632C521.244 291.76 520.839 292.011 520.37 292.384V298H518.53V289.888H520.274V290.976C520.775 290.539 521.25 290.224 521.698 290.032C522.146 289.829 522.599 289.728 523.058 289.728C523.836 289.728 524.428 289.979 524.834 290.48C525.239 290.971 525.442 291.664 525.442 292.56V298H523.602V292.784C523.602 291.888 523.234 291.44 522.498 291.44Z" fill="#1E1E1E"/>
</svg>
