<svg width="885" height="881" viewBox="0 0 885 881" fill="none" xmlns="http://www.w3.org/2000/svg">
<mask id="path-1-inside-1_12_421" fill="white">
<path d="M24.9 484.13L35.86 491.89H42.03L47.28 501.7L48.88 507.87L52.99 517.23L67.39 520.88C67.39 520.88 84.06 522.48 85.43 522.02C87.03 521.56 92.74 509.01 104.16 509.01C115.58 509.01 120.84 503.76 122.89 502.85C124.95 501.7 133.86 497.6 144.14 504.9C154.42 512.2 153.96 514.26 157.61 512.2C161.27 510.15 162.18 504.44 163.78 501.93C165.38 499.43 168.35 497.83 168.35 497.83L170.41 503.99L174.97 505.59C174.97 505.59 173.37 511.75 177.49 517.45C181.59 523.16 183.65 524.75 183.65 526.35C183.65 527.95 186.17 548.04 180.45 555.8C174.75 563.56 161.73 572.46 161.73 572.46L156.47 583.42L156.01 587.52V592.78L151.45 598.03L162.87 599.63L174.75 596.43L173.15 600.99L174.75 609.21L178.4 618.11L186.17 620.17L189.82 622.22L183.65 627.92V634.09C183.65 637.29 180 642.31 180 642.31L195.53 645.51C195.53 645.51 190.96 652.12 199.19 655.78C207.41 659.43 214.26 656.23 218.38 656.92C222.48 657.37 222.48 667.87 222.48 667.87H233.91L235.05 656.92L232.54 646.65C232.54 646.65 232.54 640.94 236.64 640.94C240.76 640.94 248.98 638.43 248.98 638.43C248.98 638.43 252.64 637.29 254.69 639.57C256.75 641.62 264.06 643.22 266.12 641.62C268.17 640.02 269.77 639.12 273.88 639.12C277.99 639.12 284.16 639.12 285.3 638.66C286.22 638.2 290.56 638.2 291.93 637.06C293.53 635.92 291.93 630.9 302.89 628.84C313.86 626.79 310.66 630.44 317.29 633.41C323.91 636.61 333.96 635.01 334.87 636.61C336.01 638.2 333.27 645.96 333.27 648.47C333.27 650.98 338.53 657.37 338.53 657.37C338.53 657.37 340.13 668.33 350.86 666.27C361.83 664.22 360.23 669.47 364.8 669.47C369.36 669.47 376.67 669.01 376.67 669.01L379.19 666.51C379.19 666.51 383.75 666.51 385.35 670.16C386.95 673.81 390.61 671.76 395.18 671.76C399.74 671.76 404.54 669.24 401.34 677C398.14 684.76 400.89 702.34 413.22 699.83C425.56 697.32 415.73 695.72 415.73 695.72V687.96C415.73 687.96 410.25 671.98 429.44 671.3C448.86 670.61 458.45 669.24 461.19 665.82C463.93 662.39 463.25 661.02 471.47 658.97C479.69 656.92 479.01 639.57 484.49 642.31C489.97 645.05 489.29 656.01 494.77 652.58C500.25 649.16 502.31 640.25 506.42 641.85C510.53 643.45 518.75 642.54 523.09 641.62C527.21 640.72 531.32 640.02 536.11 637.29C540.91 634.55 547.08 623.59 549.82 622.22C552.56 620.85 556.67 622.22 560.78 614C564.9 605.79 567.64 602.36 567.64 602.36C567.64 602.36 562.15 592.78 567.64 592.78C573.12 592.78 577.24 597.58 579.29 592.78C581.34 587.98 581.34 585.93 584.77 581.14C588.2 576.34 589.57 573.6 592.31 573.6C595.05 573.6 607.38 570.86 602.59 566.76C597.79 562.65 597.79 553.75 603.73 549.41C609.43 545.3 608.07 542.56 609.43 537.08C610.81 531.6 615.61 529.55 615.61 529.55C615.61 529.55 616.98 517.23 623.14 513.57C629.31 510.15 630 504.67 630 504.67C630 504.67 629.31 500.57 630 498.51C630.68 496.45 627.94 490.29 630 488.24C632.05 486.18 636.16 483.44 636.16 483.44V475.91L640.96 473.17C640.96 473.17 642.33 463.58 640.96 461.53C639.59 459.48 633.42 454 630.68 466.33C630.68 466.33 619.03 461.53 612.64 464.95C612.64 464.95 608.75 464.5 611.72 460.85C614.92 457.19 616.98 454.68 619.95 453.08C623.15 451.48 625.65 453.08 625.65 449.43C625.65 445.78 627.25 441.67 624.52 440.53C622 439.39 615.61 434.83 613.55 432.31C611.5 429.81 614.69 426.61 618.12 428.21L625.42 431.41C625.42 431.41 630 432.09 625.89 427.98C621.77 423.64 618.58 422.28 617.66 420.68C616.52 419.08 617.21 411.78 613.55 411.78H606.25C606.25 411.78 606.7 406.07 606.25 404.47C605.78 402.87 599.62 399.22 599.62 399.22C599.62 399.22 597.1 395.11 597.1 391.46C597.1 387.81 589.8 379.59 583.17 373.88C576.54 368.18 570.84 366.12 570.84 366.12C570.84 366.12 566.72 360.42 571.98 358.36C577.23 356.3 579.74 349 581.8 347.4C583.86 345.8 587.97 339.19 591.17 338.05C594.37 336.9 591.62 336.45 595.73 332.34C599.85 328.23 601.44 323.44 605.1 323.44C608.75 323.44 611.27 318.19 614 318.19C616.52 318.19 619.72 321.84 622.23 315.68C623.699 312.157 624.772 308.481 625.43 304.72H616.52C616.52 304.72 611.95 304.26 609.9 304.72C607.84 305.18 598.93 304.49 598.93 304.49C598.93 304.49 593.23 296.5 589.11 298.1C585 299.7 580.89 303.8 579.29 307C577.69 310.2 577.23 316.36 569.92 315.22C562.62 314.08 558.96 313.16 560.1 309.97C561.24 306.77 562.61 305.87 562.61 304.27C562.61 302.67 560.1 303.12 560.1 301.07C560.1 299.01 564.67 299.01 558.96 297.87C553.25 296.5 552.33 295.13 549.59 297.87C547.08 300.61 542.29 300.61 541.83 298.56C541.37 296.5 539.77 294.9 538.63 291.94C537.49 288.74 540.68 293.99 537.49 288.74C534.29 283.49 530.17 267.51 540.69 272.76C550.96 278.01 549.59 271.16 558.73 271.86C568.09 272.31 564.43 267.29 564.43 265.69C564.43 264.09 564.9 259.07 566.5 257.93C568.1 256.79 575.4 250.17 576.77 249.03C578.37 247.88 582.03 244.92 583.4 241.73C585 238.53 585 228.71 588.65 228.71C592.31 228.71 600.07 224.15 602.13 228.71C604.18 233.28 609.9 236.01 606.7 240.58C602.838 246.309 599.179 252.173 595.73 258.16C593.68 261.81 598.25 263.41 598.93 265.46C599.39 267.51 594.82 265.46 594.36 270.71C593.91 275.96 596.87 280.07 599.62 277.33C602.12 274.82 620.86 251.99 627.48 250.4C634.11 248.8 641.42 248.8 649.64 237.38C657.87 225.98 670.89 218.21 671.8 215.7C672.94 213.19 676.37 196.53 681.16 200.18C685.73 203.83 695.56 204.28 698.3 203.83C700.8 203.37 707.66 200.63 703.55 194.93C699.44 189.23 701.95 187.63 704.92 186.71C707.66 185.57 713.37 182.61 716.57 181.01C719.77 179.41 722.28 179.87 722.28 175.76C722.28 171.65 724.34 160.24 727.53 165.94C730.73 171.64 736.9 176.21 736.9 170.05V161.83H741.47V136.95C741.47 136.95 729.59 118.92 735.3 115.73C735.76 115.5 735.99 115.27 736.44 115.04C680.773 64.1917 612.97 28.5065 539.54 11.4102C538.4 12.7802 537.71 14.1502 537.71 14.8402C537.71 16.4402 536.11 25.1102 536.11 25.1102C536.11 25.1102 541.37 28.3102 537.71 29.6702C534.06 31.2702 528.35 32.1802 526.75 34.9202C525.15 37.4302 513.73 45.1902 513.73 45.1902C513.73 45.1902 511.67 43.1402 505.5 41.9902C499.34 40.8602 501.85 43.1402 498.88 47.7102C495.68 52.2702 492.26 62.7702 491.58 65.2802C491.11 67.7902 484.95 73.5002 485.86 76.6902C487 79.8902 493.63 86.9702 496.14 86.5102C498.65 86.0502 502.31 85.3702 506.42 84.9102C510.53 84.4502 514.64 90.1602 516.24 86.5102C517.84 82.8602 516.24 82.8602 524.47 82.8602C532.69 82.8602 538.85 81.2602 543.65 89.0202C548.22 96.7802 558.73 101.35 553.48 104.08C548.22 106.6 550.28 108.65 544.57 106.6C538.85 104.54 533.6 103.4 533.6 103.4L524.7 106.6C524.7 106.6 517.38 107.05 516.93 108.65C516.47 110.25 511.22 113.21 511.22 113.21L505.5 115.27C505.5 115.27 498.2 125.54 498.2 127.14C498.2 128.74 496.6 133.3 496.6 133.3L490.89 134.44L483.12 139.69L473.75 141.29L460.73 152.25H444.06C444.06 152.25 435.84 147.68 432.64 149.74C429.44 151.79 425.33 160.69 425.33 162.74C425.33 164.8 429.44 169.37 430.58 170.96C431.72 172.56 432.64 179.18 432.64 179.18C432.64 179.18 429.44 184.43 428.07 184.43C426.47 184.43 420.3 186.94 420.3 186.94C420.3 186.94 414.13 190.59 412.76 193.56C411.39 196.76 410.48 199.72 405.23 201.32C399.97 202.92 404.08 199.27 399.97 202.92C395.87 206.57 384.9 206.57 378.27 207.02C371.65 207.48 350.87 209.54 344.01 211.59C337.38 213.65 330.99 222.55 321.85 221.41C312.49 220.27 319.34 217.75 312.03 217.3C304.72 216.84 303.12 219.35 298.1 216.84C292.84 214.34 291.93 212.74 288.73 210.22C285.53 207.72 285.53 204.97 278.45 204.97C271.15 204.97 266.57 198.81 266.57 198.81C266.57 198.81 262.92 192.19 247.84 192.19C232.76 192.19 230.71 193.33 224.09 190.59C217.46 188.09 210.15 185.34 203.99 184.89C197.82 184.43 180.23 184.43 180.23 184.43C180.23 184.43 178.17 177.13 175.66 172.56C173.15 168 184.56 159.09 171.09 152.47C157.61 145.85 152.36 134.9 152.36 134.9C152.36 134.9 136.37 128.05 130.43 125.54C50.93 205.66 0 317.27 0 440.99C0 456.29 0.69 471.35 2.28 486.19L14.16 480.02L24.9 484.12V484.13Z"/>
</mask>
<path d="M24.9 484.13L35.86 491.89H42.03L47.28 501.7L48.88 507.87L52.99 517.23L67.39 520.88C67.39 520.88 84.06 522.48 85.43 522.02C87.03 521.56 92.74 509.01 104.16 509.01C115.58 509.01 120.84 503.76 122.89 502.85C124.95 501.7 133.86 497.6 144.14 504.9C154.42 512.2 153.96 514.26 157.61 512.2C161.27 510.15 162.18 504.44 163.78 501.93C165.38 499.43 168.35 497.83 168.35 497.83L170.41 503.99L174.97 505.59C174.97 505.59 173.37 511.75 177.49 517.45C181.59 523.16 183.65 524.75 183.65 526.35C183.65 527.95 186.17 548.04 180.45 555.8C174.75 563.56 161.73 572.46 161.73 572.46L156.47 583.42L156.01 587.52V592.78L151.45 598.03L162.87 599.63L174.75 596.43L173.15 600.99L174.75 609.21L178.4 618.11L186.17 620.17L189.82 622.22L183.65 627.92V634.09C183.65 637.29 180 642.31 180 642.31L195.53 645.51C195.53 645.51 190.96 652.12 199.19 655.78C207.41 659.43 214.26 656.23 218.38 656.92C222.48 657.37 222.48 667.87 222.48 667.87H233.91L235.05 656.92L232.54 646.65C232.54 646.65 232.54 640.94 236.64 640.94C240.76 640.94 248.98 638.43 248.98 638.43C248.98 638.43 252.64 637.29 254.69 639.57C256.75 641.62 264.06 643.22 266.12 641.62C268.17 640.02 269.77 639.12 273.88 639.12C277.99 639.12 284.16 639.12 285.3 638.66C286.22 638.2 290.56 638.2 291.93 637.06C293.53 635.92 291.93 630.9 302.89 628.84C313.86 626.79 310.66 630.44 317.29 633.41C323.91 636.61 333.96 635.01 334.87 636.61C336.01 638.2 333.27 645.96 333.27 648.47C333.27 650.98 338.53 657.37 338.53 657.37C338.53 657.37 340.13 668.33 350.86 666.27C361.83 664.22 360.23 669.47 364.8 669.47C369.36 669.47 376.67 669.01 376.67 669.01L379.19 666.51C379.19 666.51 383.75 666.51 385.35 670.16C386.95 673.81 390.61 671.76 395.18 671.76C399.74 671.76 404.54 669.24 401.34 677C398.14 684.76 400.89 702.34 413.22 699.83C425.56 697.32 415.73 695.72 415.73 695.72V687.96C415.73 687.96 410.25 671.98 429.44 671.3C448.86 670.61 458.45 669.24 461.19 665.82C463.93 662.39 463.25 661.02 471.47 658.97C479.69 656.92 479.01 639.57 484.49 642.31C489.97 645.05 489.29 656.01 494.77 652.58C500.25 649.16 502.31 640.25 506.42 641.85C510.53 643.45 518.75 642.54 523.09 641.62C527.21 640.72 531.32 640.02 536.11 637.29C540.91 634.55 547.08 623.59 549.82 622.22C552.56 620.85 556.67 622.22 560.78 614C564.9 605.79 567.64 602.36 567.64 602.36C567.64 602.36 562.15 592.78 567.64 592.78C573.12 592.78 577.24 597.58 579.29 592.78C581.34 587.98 581.34 585.93 584.77 581.14C588.2 576.34 589.57 573.6 592.31 573.6C595.05 573.6 607.38 570.86 602.59 566.76C597.79 562.65 597.79 553.75 603.73 549.41C609.43 545.3 608.07 542.56 609.43 537.08C610.81 531.6 615.61 529.55 615.61 529.55C615.61 529.55 616.98 517.23 623.14 513.57C629.31 510.15 630 504.67 630 504.67C630 504.67 629.31 500.57 630 498.51C630.68 496.45 627.94 490.29 630 488.24C632.05 486.18 636.16 483.44 636.16 483.44V475.91L640.96 473.17C640.96 473.17 642.33 463.58 640.96 461.53C639.59 459.48 633.42 454 630.68 466.33C630.68 466.33 619.03 461.53 612.64 464.95C612.64 464.95 608.75 464.5 611.72 460.85C614.92 457.19 616.98 454.68 619.95 453.08C623.15 451.48 625.65 453.08 625.65 449.43C625.65 445.78 627.25 441.67 624.52 440.53C622 439.39 615.61 434.83 613.55 432.31C611.5 429.81 614.69 426.61 618.12 428.21L625.42 431.41C625.42 431.41 630 432.09 625.89 427.98C621.77 423.64 618.58 422.28 617.66 420.68C616.52 419.08 617.21 411.78 613.55 411.78H606.25C606.25 411.78 606.7 406.07 606.25 404.47C605.78 402.87 599.62 399.22 599.62 399.22C599.62 399.22 597.1 395.11 597.1 391.46C597.1 387.81 589.8 379.59 583.17 373.88C576.54 368.18 570.84 366.12 570.84 366.12C570.84 366.12 566.72 360.42 571.98 358.36C577.23 356.3 579.74 349 581.8 347.4C583.86 345.8 587.97 339.19 591.17 338.05C594.37 336.9 591.62 336.45 595.73 332.34C599.85 328.23 601.44 323.44 605.1 323.44C608.75 323.44 611.27 318.19 614 318.19C616.52 318.19 619.72 321.84 622.23 315.68C623.699 312.157 624.772 308.481 625.43 304.72H616.52C616.52 304.72 611.95 304.26 609.9 304.72C607.84 305.18 598.93 304.49 598.93 304.49C598.93 304.49 593.23 296.5 589.11 298.1C585 299.7 580.89 303.8 579.29 307C577.69 310.2 577.23 316.36 569.92 315.22C562.62 314.08 558.96 313.16 560.1 309.97C561.24 306.77 562.61 305.87 562.61 304.27C562.61 302.67 560.1 303.12 560.1 301.07C560.1 299.01 564.67 299.01 558.96 297.87C553.25 296.5 552.33 295.13 549.59 297.87C547.08 300.61 542.29 300.61 541.83 298.56C541.37 296.5 539.77 294.9 538.63 291.94C537.49 288.74 540.68 293.99 537.49 288.74C534.29 283.49 530.17 267.51 540.69 272.76C550.96 278.01 549.59 271.16 558.73 271.86C568.09 272.31 564.43 267.29 564.43 265.69C564.43 264.09 564.9 259.07 566.5 257.93C568.1 256.79 575.4 250.17 576.77 249.03C578.37 247.88 582.03 244.92 583.4 241.73C585 238.53 585 228.71 588.65 228.71C592.31 228.71 600.07 224.15 602.13 228.71C604.18 233.28 609.9 236.01 606.7 240.58C602.838 246.309 599.179 252.173 595.73 258.16C593.68 261.81 598.25 263.41 598.93 265.46C599.39 267.51 594.82 265.46 594.36 270.71C593.91 275.96 596.87 280.07 599.62 277.33C602.12 274.82 620.86 251.99 627.48 250.4C634.11 248.8 641.42 248.8 649.64 237.38C657.87 225.98 670.89 218.21 671.8 215.7C672.94 213.19 676.37 196.53 681.16 200.18C685.73 203.83 695.56 204.28 698.3 203.83C700.8 203.37 707.66 200.63 703.55 194.93C699.44 189.23 701.95 187.63 704.92 186.71C707.66 185.57 713.37 182.61 716.57 181.01C719.77 179.41 722.28 179.87 722.28 175.76C722.28 171.65 724.34 160.24 727.53 165.94C730.73 171.64 736.9 176.21 736.9 170.05V161.83H741.47V136.95C741.47 136.95 729.59 118.92 735.3 115.73C735.76 115.5 735.99 115.27 736.44 115.04C680.773 64.1917 612.97 28.5065 539.54 11.4102C538.4 12.7802 537.71 14.1502 537.71 14.8402C537.71 16.4402 536.11 25.1102 536.11 25.1102C536.11 25.1102 541.37 28.3102 537.71 29.6702C534.06 31.2702 528.35 32.1802 526.75 34.9202C525.15 37.4302 513.73 45.1902 513.73 45.1902C513.73 45.1902 511.67 43.1402 505.5 41.9902C499.34 40.8602 501.85 43.1402 498.88 47.7102C495.68 52.2702 492.26 62.7702 491.58 65.2802C491.11 67.7902 484.95 73.5002 485.86 76.6902C487 79.8902 493.63 86.9702 496.14 86.5102C498.65 86.0502 502.31 85.3702 506.42 84.9102C510.53 84.4502 514.64 90.1602 516.24 86.5102C517.84 82.8602 516.24 82.8602 524.47 82.8602C532.69 82.8602 538.85 81.2602 543.65 89.0202C548.22 96.7802 558.73 101.35 553.48 104.08C548.22 106.6 550.28 108.65 544.57 106.6C538.85 104.54 533.6 103.4 533.6 103.4L524.7 106.6C524.7 106.6 517.38 107.05 516.93 108.65C516.47 110.25 511.22 113.21 511.22 113.21L505.5 115.27C505.5 115.27 498.2 125.54 498.2 127.14C498.2 128.74 496.6 133.3 496.6 133.3L490.89 134.44L483.12 139.69L473.75 141.29L460.73 152.25H444.06C444.06 152.25 435.84 147.68 432.64 149.74C429.44 151.79 425.33 160.69 425.33 162.74C425.33 164.8 429.44 169.37 430.58 170.96C431.72 172.56 432.64 179.18 432.64 179.18C432.64 179.18 429.44 184.43 428.07 184.43C426.47 184.43 420.3 186.94 420.3 186.94C420.3 186.94 414.13 190.59 412.76 193.56C411.39 196.76 410.48 199.72 405.23 201.32C399.97 202.92 404.08 199.27 399.97 202.92C395.87 206.57 384.9 206.57 378.27 207.02C371.65 207.48 350.87 209.54 344.01 211.59C337.38 213.65 330.99 222.55 321.85 221.41C312.49 220.27 319.34 217.75 312.03 217.3C304.72 216.84 303.12 219.35 298.1 216.84C292.84 214.34 291.93 212.74 288.73 210.22C285.53 207.72 285.53 204.97 278.45 204.97C271.15 204.97 266.57 198.81 266.57 198.81C266.57 198.81 262.92 192.19 247.84 192.19C232.76 192.19 230.71 193.33 224.09 190.59C217.46 188.09 210.15 185.34 203.99 184.89C197.82 184.43 180.23 184.43 180.23 184.43C180.23 184.43 178.17 177.13 175.66 172.56C173.15 168 184.56 159.09 171.09 152.47C157.61 145.85 152.36 134.9 152.36 134.9C152.36 134.9 136.37 128.05 130.43 125.54C50.93 205.66 0 317.27 0 440.99C0 456.29 0.69 471.35 2.28 486.19L14.16 480.02L24.9 484.12V484.13Z" fill="white" stroke="#02A105" stroke-width="8" mask="url(#path-1-inside-1_12_421)"/>
<path opacity="0.75" d="M190.28 492.35L198.73 505.35L204.21 498.74C204.21 498.74 213.12 505.58 213.12 505.36C213.12 504.9 215.86 511.98 215.86 511.98V518.82H224.08C224.08 518.82 231.62 522.93 231.62 527.04C231.62 531.14 239.85 545.07 241.9 549.87C243.96 554.66 248.07 560.82 248.07 560.82L255.61 555.34L262.46 556.03V546.44L267.26 532.74C267.26 532.74 274.8 531.84 275.48 526.81C276.17 521.79 276.17 515.63 278.22 514.26C280.28 512.89 287.82 505.58 287.82 505.58H293.3C293.3 505.58 288.5 511.52 293.3 516.31C298.1 521.11 301.52 522.48 301.52 522.48L309.06 518.37C309.06 518.37 306.32 529.32 309.06 531.37C311.8 533.43 304.95 539.59 298.1 537.54C291.24 535.49 286.44 534.8 285.07 535.49C283.7 536.17 277.54 540.28 277.54 540.28C277.54 540.28 283.7 545.76 280.96 547.13C278.22 548.5 281.65 552.6 285.08 552.6C288.5 552.6 291.24 545.76 293.98 551.23C296.73 556.71 292.61 563.56 292.61 565.61C292.61 567.67 294.67 578.62 294.67 578.62C294.67 578.62 293.3 585.47 293.3 592.32C293.3 599.17 296.04 597.12 300.15 599.17C304.26 601.22 309.75 605.33 309.75 605.33L317.51 609.44H325.74C325.74 609.44 327.11 614.92 325.74 616.97C324.36 619.03 316.83 622.45 316.83 622.45L313.4 629.98" stroke="#E1ECED" stroke-width="3" stroke-miterlimit="10" stroke-linecap="round" stroke-linejoin="round"/>
<path opacity="0.75" d="M294.44 595.75L312.03 589.12C312.03 589.12 321.63 594.6 323.68 595.75C325.74 596.89 329.16 593.69 331.22 592.55C333.27 591.41 340.82 585.93 340.82 585.93C340.82 585.93 338.07 575.66 344.24 578.4C350.4 581.14 356.57 587.07 356.57 587.07C356.57 587.07 359.31 588.9 361.37 587.07C363.43 585.24 367.54 576.11 371.65 577.94C375.76 579.77 380.55 579.08 382.61 577.71C384.67 576.34 394.26 572.91 394.26 572.91H402.49C402.49 572.91 403.17 556.71 405.23 561.74C407.28 566.76 412.76 566.76 412.76 566.76C412.76 566.76 416.19 559.68 418.25 561.74C420.3 564.02 428.53 561.74 428.53 561.74C428.53 561.74 432.63 568.13 432.63 570.87C432.63 573.6 429.21 582.51 429.21 582.51L425.1 592.09L432.64 588.67L436.06 598.94C436.06 598.94 438.12 595.52 440.18 595.52C442.23 595.52 444.98 598.94 444.98 598.94C444.98 598.94 447.03 608.53 444.98 610.58C442.92 612.63 432.64 620.17 432.64 620.17L431.27 636.15L423.04 642.99L420.3 651.89C420.3 651.89 415.5 649.84 412.76 656C410.02 662.17 404.54 662.17 404.54 662.17L399.06 666.96M203.3 184.89V202.23L207.87 208.4L203.3 214.56L207.87 225.52L214.72 234.42C214.72 234.42 217.46 236.47 219.52 234.42C221.57 232.36 232.54 228.94 236.19 230.31C239.62 231.68 241.67 229.4 241.67 235.33C241.67 241.26 233.45 249.48 233.45 251.76C233.45 253.82 241.67 259.98 241.67 259.98L247.84 263.41L251.95 275.73L262.92 279.84C262.92 279.84 265.66 272.99 272.52 270.94C279.36 268.88 281.88 272.31 285.08 272.31C288.28 272.31 299.47 264.09 302.21 267.51C304.95 270.94 308.37 275.73 304.95 279.84C301.52 283.94 294.21 290.34 294.21 290.34V299.7C294.21 299.7 296.04 309.97 298.1 309.29C300.15 308.6 311.11 312.71 318.88 312.71C326.42 312.71 332.58 307.91 333.96 304.49C335.33 301.07 340.81 283.04 340.81 283.04C340.81 283.04 349.71 270.71 351.77 278.93C353.83 287.14 354.52 289.2 351.77 293.31C349.03 297.41 362.05 310.65 366.85 309.29C371.65 307.91 383.53 314.76 384.21 309.29C384.9 303.81 389.01 298.33 389.01 298.33L400.66 283.26L416.65 273.68H424.19C424.19 273.68 430.35 273.68 435.15 269.57C439.95 265.46 443.37 255.87 443.37 255.87C443.37 255.87 455.02 256.56 458.45 255.87C461.88 255.19 465.3 255.87 465.3 255.87V247.2L474.21 244.23L470.79 227.57C470.79 227.57 481.75 208.17 483.8 210.91C485.86 213.65 488.6 219.81 488.6 219.81L503.68 214.33C503.68 214.33 511.9 210.23 514.64 212.28C517.38 214.33 520.12 201.32 520.12 201.32L534.52 197.9L539.32 206.8L542.05 214.33L538.63 217.07L545.48 221.87C545.48 221.87 553.7 228.03 557.13 223.92C560.56 219.81 548.91 201.78 557.13 201.78C565.35 201.78 570.15 212.73 570.15 212.73C570.15 212.73 600.53 189.23 617.89 184.2L624.74 173.47L618.58 166.63C618.58 166.63 619.95 149.96 615.15 149.96H605.55L597.33 145.17L594.59 134.9V130.1L586.37 123.94L587.05 117.1H603.5L604.18 113.67L606.24 101.34C606.24 101.34 615.84 92.4402 608.98 93.8102C602.13 95.1802 599.38 89.7102 599.38 89.7102L593.91 70.9902C593.91 70.9902 607.61 73.0402 611.95 66.1902C616.06 59.3502 621.55 57.2902 621.55 57.2902L624.97 42.9102" stroke="#E1ECED" stroke-width="3" stroke-miterlimit="10" stroke-linecap="round" stroke-linejoin="round"/>
<path opacity="0.75" d="M743.52 147.68H736.67L727.77 140.15L722.97 144.03L718.17 140.15C718.17 140.15 714.06 140.83 712.69 147.68C711.32 154.53 702.41 154.53 702.41 154.53L696.93 133.07C696.93 133.07 698.98 145.4 691.44 143.8C683.9 142.2 682.54 138.1 682.54 138.1V133.07H676.37C676.37 133.07 675 129.19 671.57 127.14C668.14 125.08 666.77 130.56 661.29 129.88C655.81 129.19 648.96 121.66 648.96 121.66L632.51 125.08L624.06 117.55L619.95 107.28H607.38M623.37 170.96L631.6 167.08C631.6 167.08 641.87 173.24 642.56 175.98C643.25 178.72 653.53 184.2 653.53 189C653.53 193.79 646.67 195.16 653.53 200.64C660.38 206.11 665.17 207.48 665.17 207.48V218.44M446.8 601.68C446.8 601.68 454.11 596.2 454.11 593.46C454.11 590.72 456.17 583.87 460.28 586.61C464.38 589.35 469.88 593.91 469.88 593.91C469.88 593.91 466.44 582.51 469.88 581.82C473.3 581.14 478.09 581.14 484.26 581.82C490.43 582.51 483.58 582.51 490.43 582.51C497.28 582.51 502.08 581.37 502.08 581.37V591.64C502.08 591.64 491.11 597.8 497.28 598.48C503.45 599.17 508.93 599.17 513.04 597.11C517.16 595.06 518.53 593.01 521.27 595.06C524.01 597.11 528.12 595.06 528.12 595.06L540.45 591.64C540.45 591.64 541.14 582.74 545.25 591.64C549.36 600.54 556.22 619.03 556.22 619.03" stroke="#E1ECED" stroke-width="3" stroke-miterlimit="10" stroke-linecap="round" stroke-linejoin="round"/>
<path opacity="0.75" d="M490.89 582.28L493.63 564.93V553.97L492.26 550.55L490.89 539.59C490.89 539.59 481.98 532.06 481.98 530.01C481.98 527.95 487.92 519.05 487.92 519.05L493.86 505.58C493.86 505.58 493.17 498.96 487.92 498.96H482.66L481.98 485.96H475.12L468.96 492.57V483.9H457.99C457.99 483.9 447.71 482.53 437.21 479.1C426.93 475.68 416.19 472.94 417.79 479.1C419.39 485.27 417.56 488 417.56 488C417.56 488 415.73 485.95 409.56 485.95C403.4 485.95 398.6 490.75 397.92 498.96C397.23 507.18 399.29 519.74 397.92 524.53C396.55 529.33 397.69 534.8 397.69 534.8L388.78 540.96V543.7L396.32 544.39L400.43 547.81L397 556.03L398.37 572.69" stroke="#E1ECED" stroke-width="3" stroke-miterlimit="10" stroke-linecap="round" stroke-linejoin="round"/>
<path opacity="0.75" d="M398.14 518.14H388.78L377.13 509.92C377.13 509.92 381.93 500.33 377.13 500.33H367.53C367.53 500.33 363.43 495.54 360.68 500.33C357.94 505.13 354.52 505.58 354.52 505.58L348.35 508.32V512.89L340.81 512.2L330.53 508.32C330.53 508.32 327.56 510.15 327.79 513.57C327.79 517 334.19 523.16 334.19 523.16L331.44 528.86H317.74L310.89 534.12M337.61 505.36C337.61 505.36 330.07 503.53 330.07 498.06C330.07 492.57 319.8 493.94 321.85 488.46C323.91 482.99 326.42 484.36 327.33 480.25C328.02 476.14 325.05 471.35 329.62 471.35C334.19 471.35 335.56 479.79 337.62 475.23C339.67 470.66 347.21 471.35 347.21 471.35C347.21 471.35 351.77 474.31 354.06 475.23C356.12 476.13 361.14 471.35 361.14 471.35V461.75C361.14 461.75 371.42 460.39 370.74 457.65C370.04 454.91 377.13 449.43 377.13 449.43L380.56 443.27V429.57H370.73C370.73 429.57 354.74 424.1 354.06 421.36C353.37 418.62 338.98 418.62 334.87 416.56C330.76 414.51 322.54 417.25 318.88 416.56C315.45 415.88 307.23 421.81 305.86 415.88C304.49 409.72 307.92 406.98 305.86 402.87C303.81 398.77 300.38 396.71 297.64 395.34C294.9 393.97 285.3 390.54 285.3 390.54C285.3 390.54 285.76 380.96 282.33 380.27C278.91 379.59 276.85 374.11 274.11 380.27C271.37 386.44 267.26 390.54 267.26 390.54C267.26 390.54 272.06 394.65 267.26 396.71C264.379 397.94 261.559 399.308 258.81 400.81L251.95 400.13" stroke="#E1ECED" stroke-width="3" stroke-miterlimit="10" stroke-linecap="round" stroke-linejoin="round"/>
<path opacity="0.75" d="M318.88 313.4C318.88 313.4 325.73 318.42 327.11 323.9C328.48 329.37 326.42 334.17 327.11 336.22C327.79 338.27 327.33 341.7 327.56 346.49C327.79 351.29 335.33 357.45 338.06 358.13C340.81 358.82 346.98 364.98 346.98 364.98C346.98 364.98 342.18 372.28 342.18 376.62C342.18 380.96 345.61 380.96 346.98 381.64C348.35 382.33 346.98 386.44 346.98 387.12C346.98 387.81 350.18 387.81 347.66 391.92C344.92 396.02 344.24 401.5 344.24 401.5C344.24 401.5 333.5 397.4 333.73 401.5C333.96 405.6 333.73 412.46 333.73 412.46" stroke="#E1ECED" stroke-width="3" stroke-miterlimit="10" stroke-linecap="round" stroke-linejoin="round"/>
<path opacity="0.75" d="M345.15 362.93C345.15 362.93 341.72 354.71 349.03 354.03C356.34 353.33 357.03 345.81 357.03 345.81L349.03 336.21C349.03 336.21 349.26 329.37 349.03 327.31C348.81 325.26 353.37 320.47 354.29 320.47H361.37L367.54 310.2M526.52 595.52V582.28L532.92 573.38L537.02 560.59L540.45 555.57V550.77C540.45 550.77 541.14 545.99 543.88 544.62C546.62 543.25 550.05 535.02 550.05 534.34C550.05 533.66 542.51 523.39 550.05 521.79C557.59 520.42 563.75 521.11 566.04 519.05C568.09 517 571.52 510.15 574.94 510.15C578.37 510.15 581.11 508.1 583.17 516.31C585.23 524.53 590.71 528.87 590.71 528.87L594.82 522.47C594.82 522.47 600.3 518.37 600.99 522.47C601.67 526.58 606.24 528.87 606.24 528.87L616.74 527.95" stroke="#E1ECED" stroke-width="3" stroke-miterlimit="10" stroke-linecap="round" stroke-linejoin="round"/>
<path opacity="0.75" d="M574.95 509.92V498.05L564.67 489.15C564.67 489.15 567.41 484.35 564.67 482.99C561.93 481.62 561.7 480.25 556.9 479.56C552.1 478.88 546.62 472.94 544.57 475.23L542.51 477.51L538.4 474.77L533.6 475.23C533.6 475.23 523.32 478.88 518.52 480.25C513.72 481.62 502.08 486.41 502.08 486.41L490.88 498.05M394.26 498.05C394.26 498.05 388.1 494.17 388.78 492.35C389.47 490.52 385.35 484.35 385.35 484.35L380.55 481.62V474.54C380.55 474.54 383.3 467.69 388.78 467.69C394.26 467.69 397 469.06 401.12 467.69C405.22 466.32 413.45 458.11 413.45 458.11L405.91 447.15V438.25L397.01 435.51L380.33 429.35M361.14 320.24L364.57 323.89L376.9 332.11C376.9 332.11 377.59 336.91 380.33 339.64C383.07 342.38 383.75 344.44 383.75 347.86C383.75 351.28 384.44 357.45 383.75 358.82C383.07 360.19 376.9 362.92 376.9 362.92C376.9 362.92 367.3 362.24 367.3 365.66C367.3 369.09 368 371.83 363.88 371.83C359.77 371.83 354.06 368.4 354.06 368.4L347.21 364.98M428.75 273.45C428.75 273.45 433.55 286.92 428.75 290.8C423.95 294.68 416.88 298.1 417.56 300.38C418.48 302.44 425.1 305.86 424.19 309.97C423.27 314.07 421.22 320.24 421.22 320.24C421.22 320.24 417.56 325.04 417.56 328.46C417.79 331.88 417.33 345.12 417.56 346.03C417.79 347.18 420.07 354.71 417.56 358.82C415.05 362.92 408.88 379.59 413.68 379.59C418.48 379.59 416.42 379.36 428.07 376.62C439.72 374.11 447.26 371.37 447.03 368.4C446.8 365.66 449.54 364.98 455.71 362.93C461.88 360.87 469.41 358.82 472.38 353.33C475.13 347.86 477.18 336.45 477.18 336.45C477.18 336.45 472.38 330.05 473.75 326.4C475.13 322.98 475.81 318.19 477.18 313.17C478.55 308.37 482.66 307 477.18 300.84C471.7 294.68 471.7 285.78 471.7 285.78C471.7 285.78 478.55 280.98 479.92 279.61C481.29 278.24 484.72 276.19 485.4 270.71C486.09 265.23 478.55 260.44 478.55 260.44C478.55 260.44 480.61 269.34 481.29 256.33C481.98 243.32 478.55 243.32 478.55 243.32L475.12 244.69M543.65 296.96L540.45 300.16C540.45 300.16 535.65 302.21 532.92 304.26C530.17 306.32 514.18 313.16 514.18 313.16L510.08 323.66L505.28 335.99C505.28 335.99 501.17 338.73 505.28 340.79C509.38 342.84 512.82 346.03 512.82 346.03C512.82 346.03 514.87 347.86 512.13 349.23C509.39 350.6 510.53 349.23 503.45 356.08C496.37 362.93 491.57 358.82 496.37 362.93C501.17 367.03 503.22 363.61 506.65 369.09C510.07 374.57 518.98 376.62 518.98 376.62C518.98 376.62 521.49 367.72 526.52 367.72C531.55 367.72 536.34 371.14 539.08 371.82C541.83 372.52 542.51 380.5 545.94 376.39C549.36 372.51 555.3 369.09 556.9 371.83C558.028 373.624 559.503 375.175 561.24 376.39L566.72 368.18L572.66 363.84" stroke="#E1ECED" stroke-width="3" stroke-miterlimit="10" stroke-linecap="round" stroke-linejoin="round"/>
<path opacity="0.75" d="M623.37 436.88L616.97 448.29C616.97 448.29 612.18 451.72 610.12 451.72C608.07 451.72 599.85 444.18 599.85 444.18C599.85 444.18 597.1 438.7 595.05 444.18C592.99 449.66 589.57 459.93 589.57 459.93C589.57 459.93 593.67 463.36 589.57 463.36C585.45 463.36 578.6 461.99 579.29 466.1L579.97 470.2L575.17 477.74L566.04 484.58M400.43 436.42V425.01C400.43 425.01 411.39 420.91 411.85 420.21C412.31 419.53 411.85 416.11 411.85 416.11L406.14 412.68L400.43 407.66C400.43 407.66 403.63 407.43 406.14 407.66C408.65 407.89 413.22 405.38 417.56 407.66C421.9 409.94 432.18 412.68 432.18 412.68M432.18 412.68L428.75 402.41L424.65 394.2L417.56 379.82M432.18 412.68C432.18 412.68 439.72 422.28 441.08 422.28C442.46 422.28 446.58 430.48 457.08 429.12C463.424 428.257 469.688 426.883 475.81 425.01L479.92 429.11C479.92 429.11 483.58 435.28 485.4 436.42C487.46 437.34 491.8 438.25 494.54 440.99C497.28 443.73 510.3 447.84 510.3 447.84C510.3 447.84 515.78 446.47 517.84 447.84C519.9 449.21 529.72 451.94 526.52 454.68C523.32 457.42 515.78 456.97 519.22 461.08C522.64 465.18 526.29 469.29 526.52 471.35C526.75 473.4 526.52 477.74 526.52 477.74" stroke="#E1ECED" stroke-width="3" stroke-miterlimit="10" stroke-linecap="round" stroke-linejoin="round"/>
<path opacity="0.75" d="M526.52 367.72C526.52 367.72 531.32 377.99 533.6 379.36C535.89 380.73 547.53 384.84 547.53 384.84L557.13 389.64C557.13 389.64 556.22 395.79 557.13 399.22C558.04 402.64 565.13 412.92 566.03 412.22C566.95 411.54 572.66 412.22 572.66 412.22C572.66 412.22 578.6 402.18 579.29 407.66C579.97 412.91 579.29 414.96 575.17 415.66C571.07 416.34 577 416.34 571.97 421.13C566.95 425.93 563.75 421.82 566.04 428.66C568.32 435.51 570.38 435.96 572.66 436.42C575.17 436.88 573.8 437.11 575.17 440.53C576.55 443.96 580.66 443.27 582.71 444.64C584.77 446.01 595.05 443.95 595.05 443.95M527.2 371.83C527.2 371.83 522.64 375.71 522.64 376.39C522.64 377.31 526.29 373.89 527.21 379.36C528.11 384.84 529.03 388.26 526.52 390.31L524.01 392.37L516.47 386.89C516.47 386.89 512.36 390.32 512.36 392.37C512.36 394.42 516.47 401.27 512.36 401.96C508.25 402.64 506.88 407.66 506.88 407.66C506.88 407.66 495.23 407.43 499.34 412.23C503.44 417.03 513.5 420.44 513.5 420.44C513.5 420.44 522.18 421.13 522.18 423.87C522.18 426.61 525.61 435.97 522.18 436.42C518.75 436.88 514.41 430.49 513.5 436.42C512.59 442.36 510.53 447.15 510.53 447.15M532.92 251.3C532.92 251.3 533.15 249.71 532.92 247.2C532.69 244.69 535.89 239.9 535.89 239.9C535.89 239.9 536.8 237.84 532.92 237.84C529.03 237.84 526.52 234.64 526.52 234.64C526.52 234.64 517.84 232.59 515.1 234.64C512.59 236.7 506.2 242.41 506.2 242.41V251.08C506.2 251.08 510.3 255.18 506.2 255.64C502.08 256.1 496.6 259.3 497.97 260.89C499.34 262.49 495.68 265 502.54 266.6C509.16 268.2 514.87 271.17 521.27 269.11C527.43 267.06 530.63 263.41 530.63 263.41L532.92 251.31V251.3Z" stroke="#E1ECED" stroke-width="3" stroke-miterlimit="10" stroke-linecap="round" stroke-linejoin="round"/>
<path opacity="0.75" d="M546.16 270.25V262.95H542.96L539.76 256.1C539.76 256.1 538.63 247.43 535.66 249.48C532.69 251.54 527.66 249.71 526.29 252.22C524.69 254.73 528.35 262.72 526.29 265.46C524.24 268.43 527.43 270.02 525.84 275.73C524.24 281.43 520.12 277.79 524.24 281.43C528.34 285.09 538.17 284.63 538.17 284.63M174.97 505.36H187.08V490.52C187.08 490.52 191.19 494.62 193.25 490.52C195.3 486.42 198.73 463.58 198.73 463.58C198.73 463.58 193.25 445.55 193.25 442.81C193.25 440.07 198.73 438.02 198.73 438.02L191.19 428.43L186.85 414.73L182.74 411.31H172L168.58 418.16L158.98 422.27H157.61C156.24 422.27 150.76 418.17 150.76 418.17L142.54 422.27C142.54 422.27 138.43 420.9 134.31 414.05C130.21 407.21 126.78 405.84 123.35 403.1C119.92 400.36 115.13 403.1 115.13 403.1L98.4499 397.62C98.4499 397.62 87.4899 390.77 87.4899 386.66C87.4899 382.56 74.4699 386.66 74.4699 386.66C74.4699 386.66 68.2999 376.39 66.2399 372.28C64.1899 368.18 54.5899 375.02 50.2499 372.28C46.1499 369.54 45.4499 361.33 45.4499 361.33L40.6599 351.06L45.4599 342.16L40.6599 338.73V329.83C40.6599 329.83 44.7699 322.98 46.1399 320.93C47.5099 318.87 50.2499 310.65 50.2499 310.65" stroke="#E1ECED" stroke-width="3" stroke-miterlimit="10" stroke-linecap="round" stroke-linejoin="round"/>
<path opacity="0.75" d="M178.86 411.31L175.43 403.78L178.86 392.83C178.86 392.83 179.31 379.13 182.74 379.13C186.4 379.13 198.73 382.56 198.73 382.56L203.53 395.34C206.27 402.64 211.06 412.91 215.18 411.54C219.28 410.17 222.71 404.69 222.71 404.69L230.94 411.77L237.1 416.57L243.96 408.12L251.5 404.92V395.34L243.96 389.17L239.85 379.59C239.85 379.59 246.7 375.48 251.5 379.59C256.3 383.69 264.52 382.09 262.46 377.76C260.4 373.43 262.69 370 262.69 370L265.89 365.9L269.99 357.68L276.85 352.88V344.21L284.62 341.47C284.62 341.47 281.65 328.69 277.54 323.67C273.42 318.64 268.63 307 268.63 307L267.94 303.58H261.77C261.77 303.58 248.76 298.78 245.79 295.36C243.04 291.94 236.19 283.04 236.19 283.04L229.79 290.8L213.58 267.06L198.5 269.8L190.96 262.95H182.51V267.05L178.63 275.96L172.46 282.81L163.56 282.12L154.64 276.64L148.48 274.59L142.99 275.28V270.48L138.19 266.38L129.97 267.06V262.95H123.81L112.84 256.1" stroke="#E1ECED" stroke-width="3" stroke-miterlimit="10" stroke-linecap="round" stroke-linejoin="round"/>
<path d="M114 241C176.804 380.461 242.998 356.487 333 385.5C408.874 409.962 382.501 492.846 583.524 485.847" stroke="#042136" stroke-width="3" stroke-dasharray="10 10"/>
<path d="M113 238C162.193 440.258 209.805 407.396 276.068 451.38C331.93 488.465 314.778 607.091 461 602" stroke="#042136" stroke-width="3" stroke-dasharray="10 10"/>
<path d="M93 220C81.5 220 80 218.955 72.5 221C66.5 222.636 63 224 55 230" stroke="#042136" stroke-width="3" stroke-dasharray="10 10"/>
<path d="M494 272.789C348.5 351.5 147 380.5 20 312.544" stroke="#02A105" stroke-width="3" stroke-dasharray="10 10"/>
<path d="M513 281C514.97 281 516.92 280.612 518.74 279.858C520.56 279.104 522.214 277.999 523.607 276.607C524.999 275.214 526.104 273.56 526.858 271.74C527.612 269.92 528 267.97 528 266C528 264.03 527.612 262.08 526.858 260.26C526.104 258.44 524.999 256.786 523.607 255.393C522.214 254 520.56 252.896 518.74 252.142C516.92 251.388 514.97 251 513 251C509.022 251 505.206 252.58 502.393 255.393C499.58 258.206 498 262.022 498 266C498 269.978 499.58 273.794 502.393 276.607C505.206 279.42 509.022 281 513 281Z" fill="white" stroke="#02A105" stroke-width="2" stroke-miterlimit="10"/>
<path d="M512.605 275.992C513.95 276.045 515.293 275.826 516.551 275.348C517.81 274.87 518.959 274.143 519.93 273.209C520.901 272.276 521.673 271.157 522.201 269.918C522.728 268.679 523 267.346 523 266C523 264.654 522.728 263.321 522.201 262.082C521.673 260.843 520.901 259.724 519.93 258.791C518.959 257.857 517.81 257.13 516.551 256.652C515.293 256.174 513.95 255.955 512.605 256.008C510.023 256.11 507.581 257.207 505.791 259.07C504 260.933 503 263.416 503 266C503 268.584 504 271.067 505.791 272.93C507.581 274.793 510.023 275.89 512.605 275.992Z" fill="#02A105"/>
<path d="M481.082 613.84C484.111 613.84 487.016 612.637 489.157 610.495C491.299 608.354 492.502 605.449 492.502 602.42C492.502 599.391 491.299 596.487 489.157 594.345C487.016 592.203 484.111 591 481.082 591C478.113 591.088 475.295 592.329 473.226 594.46C471.157 596.591 470 599.445 470 602.415C470 605.385 471.157 608.239 473.226 610.37C475.295 612.501 478.113 613.742 481.082 613.83V613.84Z" fill="white" stroke="#042136" stroke-width="2" stroke-miterlimit="10"/>
<path d="M481.102 596.52C481.896 596.489 482.688 596.618 483.43 596.9C484.173 597.182 484.851 597.611 485.423 598.162C485.996 598.712 486.452 599.373 486.763 600.104C487.074 600.835 487.235 601.621 487.235 602.416C487.235 603.21 487.074 603.996 486.763 604.727C486.452 605.458 485.996 606.118 485.423 606.668C484.851 607.219 484.173 607.648 483.43 607.93C482.688 608.212 481.896 608.341 481.102 608.31C479.579 608.25 478.138 607.602 477.082 606.503C476.025 605.405 475.435 603.94 475.435 602.416C475.435 600.891 476.025 599.426 477.082 598.327C478.138 597.228 479.579 596.58 481.102 596.52Z" fill="#042136" stroke="#042136"/>
<path d="M606.41 496.84C607.91 496.841 609.395 496.546 610.781 495.973C612.166 495.399 613.426 494.559 614.487 493.499C615.547 492.439 616.389 491.18 616.964 489.795C617.538 488.41 617.834 486.925 617.835 485.425C617.836 483.925 617.541 482.44 616.968 481.054C616.394 479.669 615.554 478.409 614.494 477.348C613.434 476.287 612.175 475.446 610.79 474.871C609.405 474.297 607.92 474.001 606.42 474C603.391 474 600.486 475.203 598.345 477.345C596.203 479.486 595 482.391 595 485.42C595 488.449 596.203 491.353 598.345 493.495C600.486 495.637 603.391 496.84 606.42 496.84H606.41Z" stroke="#042136" stroke-width="2" stroke-miterlimit="10"/>
<path d="M606.438 479.529C607.239 479.484 608.041 479.604 608.795 479.879C609.549 480.155 610.238 480.582 610.822 481.133C611.405 481.685 611.869 482.349 612.187 483.086C612.504 483.823 612.667 484.618 612.667 485.42C612.667 486.223 612.504 487.017 612.187 487.753C611.869 488.49 611.405 489.155 610.822 489.707C610.238 490.258 609.549 490.685 608.795 490.96C608.041 491.236 607.239 491.356 606.438 491.311L606.01 491.287C604.644 491.134 603.368 490.511 602.409 489.513C601.353 488.414 600.763 486.949 600.763 485.425C600.763 483.901 601.353 482.435 602.409 481.336C603.466 480.237 604.907 479.59 606.43 479.53L606.438 479.529Z" fill="#042136" stroke="#042136"/>
<path d="M107.41 233.84C110.439 233.841 113.344 232.639 115.487 230.499C117.629 228.358 118.834 225.454 118.835 222.425C118.836 219.396 117.634 216.491 115.494 214.348C113.353 212.206 110.449 211.001 107.42 211C104.391 211 101.487 212.203 99.3448 214.345C97.2032 216.487 96 219.391 96 222.42C96 225.449 97.2032 228.353 99.3448 230.495C101.487 232.637 104.391 233.84 107.42 233.84H107.41Z" fill="white" stroke="#042136" stroke-width="2" stroke-miterlimit="10"/>
<path d="M107.438 216.529C108.239 216.484 109.042 216.604 109.795 216.879C110.549 217.155 111.239 217.582 111.822 218.133C112.405 218.685 112.869 219.349 113.186 220.086C113.503 220.824 113.667 221.618 113.667 222.42C113.667 223.223 113.503 224.016 113.186 224.753C112.869 225.49 112.405 226.155 111.822 226.707C111.239 227.258 110.549 227.685 109.795 227.96C109.042 228.236 108.239 228.356 107.438 228.311C105.933 228.227 104.517 227.569 103.481 226.474C102.445 225.379 101.868 223.928 101.868 222.42C101.868 220.913 102.445 219.462 103.481 218.367C104.517 217.271 105.933 216.613 107.438 216.529Z" fill="#042136" stroke="#042136"/>
<path d="M580.656 503.12L577.328 509.632V514H575.408V509.664L572.048 503.12H574.096L576.448 507.76L578.672 503.12H580.656ZM583.855 504.352H581.919V502.448H583.855V504.352ZM583.807 514H581.967V505.888H583.807V514ZM596.438 505.888L594.358 514H592.358L591.014 507.904L589.59 514H587.59L585.51 505.888H587.398L588.182 509.104L588.726 512.032L590.102 505.888H591.958L593.382 512.096L593.894 509.12L594.662 505.888H596.438ZM602.971 514V512.928C602.48 513.355 602.022 513.669 601.595 513.872C601.168 514.064 600.736 514.16 600.299 514.16C599.574 514.16 599.014 513.915 598.619 513.424C598.224 512.923 598.027 512.224 598.027 511.328V505.888H599.867V511.104C599.867 512 600.198 512.448 600.859 512.448C601.126 512.448 601.414 512.384 601.723 512.256C602.043 512.128 602.427 511.883 602.875 511.52V505.888H604.715V514H602.971Z" fill="#1E1E1E"/>
<path d="M408.704 632.296C408.437 632.456 407.995 632.643 407.376 632.856C406.768 633.059 406.053 633.16 405.232 633.16C404.304 633.16 403.525 632.968 402.896 632.584C402.277 632.2 401.808 631.672 401.488 631C401.168 630.328 401.008 629.56 401.008 628.696V626.408C401.008 625.523 401.168 624.749 401.488 624.088C401.808 623.416 402.283 622.893 402.912 622.52C403.552 622.147 404.352 621.96 405.312 621.96C405.781 621.96 406.267 622.013 406.768 622.12C407.269 622.216 407.819 622.397 408.416 622.664L407.824 624.344C407.301 624.141 406.848 623.997 406.464 623.912C406.091 623.816 405.717 623.768 405.344 623.768C404.512 623.768 403.909 624.008 403.536 624.488C403.163 624.957 402.976 625.597 402.976 626.408V628.696C402.976 629.464 403.163 630.093 403.536 630.584C403.92 631.075 404.517 631.32 405.328 631.32C405.573 631.32 405.84 631.299 406.128 631.256C406.416 631.213 406.693 631.155 406.96 631.08V628.696H405.2V627.016H408.704V632.296ZM415.737 633V631.928C415.246 632.355 414.787 632.669 414.361 632.872C413.934 633.064 413.502 633.16 413.065 633.16C412.339 633.16 411.779 632.915 411.385 632.424C410.99 631.923 410.793 631.224 410.793 630.328V624.888H412.633V630.104C412.633 631 412.963 631.448 413.625 631.448C413.891 631.448 414.179 631.384 414.489 631.256C414.809 631.128 415.193 630.883 415.641 630.52V624.888H417.481V633H415.737ZM426.158 633.08C425.614 633.08 425.177 632.968 424.846 632.744C424.526 632.52 424.291 632.243 424.142 631.912C423.683 632.339 423.241 632.653 422.814 632.856C422.387 633.059 421.929 633.16 421.438 633.16C420.723 633.16 420.195 632.931 419.854 632.472C419.523 632.013 419.358 631.432 419.358 630.728C419.358 630.259 419.443 629.848 419.614 629.496C419.795 629.133 420.089 628.851 420.494 628.648C420.899 628.445 421.454 628.344 422.158 628.344C422.435 628.344 422.723 628.365 423.022 628.408C423.321 628.44 423.619 628.483 423.918 628.536V627.592C423.918 627.144 423.795 626.84 423.55 626.68C423.305 626.509 422.974 626.424 422.558 626.424C422.238 626.424 421.886 626.467 421.502 626.552C421.129 626.637 420.723 626.771 420.286 626.952L419.758 625.384C420.835 624.947 421.811 624.728 422.686 624.728C423.475 624.728 424.083 624.861 424.51 625.128C424.947 625.395 425.251 625.747 425.422 626.184C425.593 626.621 425.678 627.091 425.678 627.592V630.712C425.678 630.872 425.721 631.027 425.806 631.176C425.902 631.315 426.083 631.384 426.35 631.384H426.526V633.08H426.158ZM421.134 630.696C421.134 630.984 421.198 631.213 421.326 631.384C421.454 631.544 421.641 631.624 421.886 631.624C422.131 631.624 422.409 631.56 422.718 631.432C423.027 631.304 423.427 631.005 423.918 630.536V629.848C423.363 629.752 422.819 629.704 422.286 629.704C421.87 629.704 421.571 629.789 421.39 629.96C421.219 630.131 421.134 630.376 421.134 630.696ZM432.091 626.44C431.825 626.44 431.521 626.504 431.179 626.632C430.838 626.76 430.433 627.011 429.963 627.384V633H428.123V624.888H429.867V625.976C430.369 625.539 430.843 625.224 431.291 625.032C431.739 624.829 432.193 624.728 432.651 624.728C433.43 624.728 434.022 624.979 434.427 625.48C434.833 625.971 435.035 626.664 435.035 627.56V633H433.195V627.784C433.195 626.888 432.827 626.44 432.091 626.44ZM444.203 633.816C444.203 634.68 443.862 635.352 443.179 635.832C442.507 636.323 441.568 636.568 440.363 636.568C439.798 636.568 439.2 636.504 438.571 636.376C437.942 636.248 437.36 636.035 436.827 635.736L437.355 634.28C437.867 634.536 438.374 634.717 438.875 634.824C439.376 634.941 439.867 635 440.347 635C441.019 635 441.531 634.909 441.883 634.728C442.235 634.547 442.411 634.307 442.411 634.008C442.411 633.549 442.139 633.32 441.595 633.32H439.675C439.152 633.32 438.731 633.235 438.411 633.064C438.091 632.893 437.856 632.675 437.707 632.408C437.558 632.131 437.483 631.843 437.483 631.544C437.483 631.235 437.547 630.947 437.675 630.68C437.814 630.403 438 630.147 438.235 629.912C437.851 629.677 437.542 629.363 437.307 628.968C437.083 628.573 436.971 628.099 436.971 627.544C436.971 626.915 437.104 626.392 437.371 625.976C437.638 625.56 438 625.251 438.459 625.048C438.928 624.835 439.446 624.728 440.011 624.728H440.283C440.496 624.728 440.704 624.744 440.907 624.776C441.11 624.797 441.302 624.835 441.483 624.888H444.379V626.456L442.779 626.2C442.939 626.371 443.062 626.584 443.147 626.84C443.243 627.085 443.291 627.389 443.291 627.752C443.291 628.296 443.152 628.765 442.875 629.16C442.608 629.544 442.246 629.843 441.787 630.056C441.339 630.259 440.838 630.36 440.283 630.36H440.011C439.798 630.36 439.595 630.344 439.403 630.312C439.286 630.44 439.2 630.573 439.147 630.712C439.094 630.84 439.067 630.963 439.067 631.08C439.067 631.453 439.307 631.64 439.787 631.64H441.739C442.475 631.64 443.067 631.832 443.515 632.216C443.974 632.589 444.203 633.123 444.203 633.816ZM440.283 628.856C440.614 628.856 440.902 628.744 441.147 628.52C441.403 628.296 441.531 627.971 441.531 627.544C441.531 627.117 441.403 626.792 441.147 626.568C440.902 626.344 440.614 626.232 440.283 626.232H440.011C439.67 626.232 439.371 626.344 439.115 626.568C438.87 626.792 438.747 627.117 438.747 627.544C438.747 627.971 438.87 628.296 439.115 628.52C439.371 628.744 439.67 628.856 440.011 628.856H440.283ZM451.055 631.4V633H445.263V631.56L448.687 626.488H445.423V624.888H450.895V626.328L447.471 631.4H451.055ZM456.841 626.44C456.575 626.44 456.271 626.504 455.929 626.632C455.588 626.76 455.183 627.011 454.713 627.384V633H452.873V621.16H454.713V625.896C455.204 625.48 455.663 625.181 456.089 625C456.516 624.819 456.953 624.728 457.401 624.728C458.18 624.728 458.772 624.979 459.177 625.48C459.583 625.971 459.785 626.664 459.785 627.56V633H457.945V627.784C457.945 626.888 457.577 626.44 456.841 626.44ZM468.857 628.456V629.416C468.857 630.547 468.548 631.453 467.929 632.136C467.31 632.819 466.436 633.16 465.305 633.16C464.174 633.16 463.3 632.819 462.681 632.136C462.062 631.453 461.753 630.547 461.753 629.416V628.456C461.753 627.325 462.057 626.424 462.665 625.752C463.284 625.069 464.164 624.728 465.305 624.728C466.446 624.728 467.321 625.069 467.929 625.752C468.548 626.424 468.857 627.325 468.857 628.456ZM466.969 628.456C466.969 627.805 466.825 627.299 466.537 626.936C466.249 626.563 465.838 626.376 465.305 626.376C464.772 626.376 464.361 626.563 464.073 626.936C463.785 627.299 463.641 627.805 463.641 628.456V629.416C463.641 630.067 463.785 630.579 464.073 630.952C464.361 631.325 464.772 631.512 465.305 631.512C465.838 631.512 466.249 631.325 466.537 630.952C466.825 630.579 466.969 630.067 466.969 629.416V628.456ZM475.752 633V631.928C475.262 632.355 474.803 632.669 474.376 632.872C473.95 633.064 473.518 633.16 473.08 633.16C472.355 633.16 471.795 632.915 471.4 632.424C471.006 631.923 470.808 631.224 470.808 630.328V624.888H472.648V630.104C472.648 631 472.979 631.448 473.64 631.448C473.907 631.448 474.195 631.384 474.504 631.256C474.824 631.128 475.208 630.883 475.656 630.52V624.888H477.496V633H475.752Z" fill="#1E1E1E"/>
<path d="M57.248 248.12H59.216V255.096C59.216 255.8 59.3707 256.355 59.68 256.76C59.9893 257.155 60.4853 257.352 61.168 257.352C61.8507 257.352 62.3467 257.155 62.656 256.76C62.9653 256.355 63.12 255.8 63.12 255.096V248.12H65.088V255.096C65.088 256.323 64.7627 257.309 64.112 258.056C63.4613 258.792 62.48 259.16 61.168 259.16C59.8453 259.16 58.8587 258.792 58.208 258.056C57.568 257.309 57.248 256.323 57.248 255.096V248.12ZM72.1838 252.568C71.6824 252.568 71.2024 252.648 70.7438 252.808C70.2958 252.957 69.8638 253.203 69.4478 253.544V259H67.6078V250.888H69.3518V252.136C69.8958 251.624 70.3811 251.261 70.8078 251.048C71.2344 250.835 71.6931 250.728 72.1838 250.728V252.568ZM78.6273 259V257.928C78.1366 258.355 77.6779 258.669 77.2513 258.872C76.8246 259.064 76.3926 259.16 75.9553 259.16C75.2299 259.16 74.6699 258.915 74.2753 258.424C73.8806 257.923 73.6833 257.224 73.6833 256.328V250.888H75.5233V256.104C75.5233 257 75.8539 257.448 76.5153 257.448C76.7819 257.448 77.0699 257.384 77.3793 257.256C77.6993 257.128 78.0833 256.883 78.5313 256.52V250.888H80.3713V259H78.6273ZM84.7446 253.384V259H82.9046V250.888H84.6486V251.96C85.15 251.523 85.614 251.208 86.0406 251.016C86.4673 250.824 86.9046 250.728 87.3526 250.728C88.3446 250.728 89.022 251.165 89.3846 252.04C89.918 251.571 90.414 251.235 90.8726 251.032C91.3313 250.829 91.7953 250.728 92.2646 250.728C93.0113 250.728 93.582 250.979 93.9766 251.48C94.3713 251.971 94.5686 252.664 94.5686 253.56V259H92.7286V253.784C92.7286 252.888 92.3873 252.44 91.7046 252.44C91.438 252.44 91.1446 252.504 90.8246 252.632C90.5046 252.76 90.1153 253.011 89.6566 253.384V259H87.8166V253.784C87.8166 252.888 87.4753 252.44 86.7926 252.44C86.526 252.44 86.2326 252.504 85.9126 252.632C85.5926 252.76 85.2033 253.011 84.7446 253.384ZM103.494 251.688V262.408H101.654V257.928C101.164 258.419 100.742 258.749 100.39 258.92C100.038 259.08 99.6757 259.16 99.3024 259.16C98.449 259.16 97.7824 258.829 97.3024 258.168C96.833 257.507 96.5984 256.579 96.5984 255.384V254.52C96.5984 253.357 96.8864 252.435 97.4624 251.752C98.049 251.069 98.8917 250.728 99.9904 250.728C101.142 250.728 102.31 251.048 103.494 251.688ZM98.4864 255.384C98.4864 256.099 98.5984 256.621 98.8224 256.952C99.057 257.283 99.3824 257.448 99.7984 257.448C100.054 257.448 100.321 257.373 100.598 257.224C100.886 257.075 101.238 256.781 101.654 256.344V252.712C101.366 252.595 101.1 252.509 100.854 252.456C100.62 252.403 100.385 252.376 100.15 252.376C99.5637 252.376 99.137 252.568 98.8704 252.952C98.6144 253.336 98.4864 253.859 98.4864 254.52V255.384ZM107.855 249.352H105.919V247.448H107.855V249.352ZM107.807 259H105.967V250.888H107.807V259Z" fill="#1E1E1E"/>
<path d="M488.88 302V288.4H493.36C494.787 288.4 495.853 288.76 496.56 289.48C497.28 290.2 497.64 291.16 497.64 292.36V293.42C497.64 294.62 497.28 295.587 496.56 296.32C495.853 297.04 494.787 297.4 493.36 297.4H491.28V302H488.88ZM493.36 290.7H491.28V295.1H493.36C493.947 295.1 494.393 294.953 494.7 294.66C495.02 294.367 495.18 293.953 495.18 293.42V292.36C495.18 291.84 495.02 291.433 494.7 291.14C494.393 290.847 493.947 290.7 493.36 290.7ZM507.569 301.42C506.876 301.7 506.222 301.9 505.609 302.02C504.996 302.14 504.416 302.2 503.869 302.2C502.362 302.2 501.222 301.773 500.449 300.92C499.676 300.067 499.289 298.933 499.289 297.52V296.32C499.289 295.373 499.462 294.553 499.809 293.86C500.156 293.167 500.649 292.627 501.289 292.24C501.929 291.853 502.682 291.66 503.549 291.66C504.256 291.66 504.916 291.807 505.529 292.1C506.156 292.38 506.662 292.827 507.049 293.44C507.449 294.04 507.649 294.813 507.649 295.76C507.649 296.04 507.629 296.34 507.589 296.66C507.549 296.967 507.482 297.293 507.389 297.64H501.509C501.536 298.467 501.742 299.087 502.129 299.5C502.516 299.913 503.136 300.12 503.989 300.12C504.442 300.12 504.909 300.067 505.389 299.96C505.882 299.853 506.389 299.693 506.909 299.48L507.569 301.42ZM503.549 293.6C502.936 293.6 502.456 293.8 502.109 294.2C501.776 294.587 501.582 295.147 501.529 295.88H505.369C505.382 295.813 505.389 295.753 505.389 295.7C505.389 295.633 505.389 295.573 505.389 295.52C505.389 294.88 505.209 294.4 504.849 294.08C504.489 293.76 504.056 293.6 503.549 293.6ZM516.359 302L513.859 297.78C513.459 298.18 513.039 298.58 512.599 298.98V302H510.299V287.2H512.599V296.44C513.359 295.667 514.012 294.927 514.559 294.22C515.119 293.5 515.632 292.713 516.099 291.86H518.739C518.299 292.66 517.819 293.42 517.299 294.14C516.779 294.86 516.205 295.587 515.579 296.32L519.139 302H516.359ZM523.303 289.94H520.883V287.56H523.303V289.94ZM523.243 302H520.943V291.86H523.243V302ZM531.372 293.8C531.039 293.8 530.659 293.88 530.232 294.04C529.805 294.2 529.299 294.513 528.712 294.98V302H526.412V291.86H528.592V293.22C529.219 292.673 529.812 292.28 530.372 292.04C530.932 291.787 531.499 291.66 532.072 291.66C533.045 291.66 533.785 291.973 534.292 292.6C534.799 293.213 535.052 294.08 535.052 295.2V302H532.752V295.48C532.752 294.36 532.292 293.8 531.372 293.8Z" fill="#1E1E1E"/>
</svg>
